<svg width="16" height="11" viewBox="0 0 16 11" fill="none" xmlns="http://www.w3.org/2000/svg">
<g id="Group">
<path id="Vector" d="M11.9143 1.84793L10.7369 0.642867C10.6924 0.597339 10.6393 0.561161 10.5806 0.536459C10.522 0.511757 10.4589 0.499029 10.3953 0.499023H9.21783C8.95405 0.499023 8.74023 0.712867 8.74023 0.976617C8.74023 1.24037 8.95408 1.45421 9.21783 1.45421H10.1942L11.2311 2.51543C11.4114 2.69996 11.7226 2.70293 11.9065 2.52327C12.0951 2.33896 12.0986 2.03659 11.9143 1.84793Z" fill="#262626"/>
<path id="Vector_2" d="M2.4145 5.77832C1.08106 5.77832 0 6.85938 0 8.19282C0 9.52626 1.08106 10.6073 2.4145 10.6073C3.74794 10.6073 4.829 9.52629 4.829 8.19282C4.82897 6.85938 3.74794 5.77832 2.4145 5.77832ZM2.4145 9.49051C1.69788 9.49051 1.11678 8.90941 1.11678 8.19279C1.11678 7.47616 1.69788 6.89507 2.4145 6.89507C3.13112 6.89507 3.71222 7.47616 3.71222 8.19279C3.71219 8.90945 3.13109 9.49051 2.4145 9.49051Z" fill="#F96515"/>
<path id="Vector_3" d="M2.39132 7.65645L6.04888 5.77148L6.69457 6.98745L2.84525 8.62348C2.58066 8.73595 2.2745 8.61895 2.15232 8.3587C2.03016 8.09845 2.13575 7.78817 2.39132 7.65645Z" fill="#262626"/>
<path id="Vector_4" d="M13.5864 5.77832C12.2529 5.77832 11.1719 6.85938 11.1719 8.19282C11.1719 9.52626 12.2529 10.6073 13.5864 10.6073C14.9198 10.6073 16.0009 9.52626 16.0009 8.19282C16.0009 6.85938 14.9198 5.77832 13.5864 5.77832ZM13.5864 9.49051C12.8698 9.49051 12.2887 8.90941 12.2887 8.19279C12.2887 7.47616 12.8698 6.89507 13.5864 6.89507C14.303 6.89507 14.8841 7.47616 14.8841 8.19279C14.8841 8.90945 14.303 9.49051 13.5864 9.49051Z" fill="#262626"/>
<path id="Vector_5" d="M12.9858 8.14606L11.4316 4.88947L12.657 4.35938L13.9663 7.72194C14.0706 7.98984 13.9443 8.29228 13.6804 8.40644C13.4165 8.52056 13.1096 8.40553 12.9858 8.14606Z" fill="#262626"/>
<path id="Vector_6" d="M15.4869 4.27442C15.4505 4.4077 15.3166 4.4898 15.1811 4.46242C14.3759 4.29986 11.4203 3.9013 9.97092 6.4262L7.83783 4.92627L7.33398 2.6377C7.59442 2.64383 7.82042 2.64705 8.00102 2.64705C10.4477 2.64705 11.4315 1.64648 11.4315 1.64648C11.4315 1.64648 11.926 1.93317 12.1663 2.9698C12.1905 3.07405 12.283 3.1483 12.39 3.14848C12.9652 3.14955 14.7087 3.1793 15.2586 3.4937C15.5278 3.64764 15.5651 3.99017 15.4869 4.27442Z" fill="#F96515"/>
<path id="Vector_7" d="M9.97008 6.42504L9.87833 7.27204C9.8323 7.69763 9.47302 8.02054 9.04483 8.02054H6.83671C6.68315 8.02054 6.55115 7.91335 6.51865 7.76332C6.34899 6.97491 5.47236 4.60066 1.02071 3.8641C0.555209 3.78685 0.18949 3.42338 0.111896 2.95819L0.048146 2.57704C0.0236772 2.43154 0.141833 2.30179 0.288958 2.3121C1.58024 2.40385 5.4038 2.59313 7.33315 2.6366L9.97008 6.42504Z" fill="#F96515"/>
<path id="Vector_8" d="M8.90503 6.75586H7.72266C7.59322 6.75586 7.48828 6.86077 7.48828 6.99023C7.48828 7.1197 7.59322 7.22461 7.72266 7.22461H8.90503C9.0345 7.22461 9.13941 7.1197 9.13941 6.99023C9.13941 6.86077 9.03447 6.75586 8.90503 6.75586Z" fill="#262626"/>
<path id="Vector_9" d="M3.3277 2.54197L4.00601 3.45481C4.09065 3.56871 4.20076 3.66122 4.32753 3.72496C4.45431 3.7887 4.59424 3.8219 4.73614 3.82191H8.72736C8.97776 3.82191 9.18123 3.61981 9.18295 3.36941L9.18792 2.63891C9.18911 2.46441 9.0492 2.32166 8.8747 2.31935L3.47792 2.24806C3.32545 2.24606 3.23676 2.4196 3.3277 2.54197Z" fill="#262626"/>
<path id="Vector_10" d="M11.8052 2.70519C11.5385 2.70519 11.3223 2.489 11.3223 2.22228V1.38525C11.3223 1.11856 11.5385 0.902344 11.8052 0.902344C12.0719 0.902344 12.2881 1.11853 12.2881 1.38525V2.22228C12.2881 2.489 12.0719 2.70519 11.8052 2.70519Z" fill="#262626"/>
</g>
</svg>
