<svg width="224" height="224" viewBox="0 0 224 224" fill="none" xmlns="http://www.w3.org/2000/svg">
<g id="Frame 1000005552" clip-path="url(#clip0_2390_38332)">
<g id="Rectangle 34624898" filter="url(#filter0_b_2390_38332)">
<rect width="224" height="224" rx="112" fill="url(#paint0_linear_2390_38332)"/>
<rect x="1.75916" y="1.75916" width="220.482" height="220.482" rx="110.241" stroke="url(#paint1_linear_2390_38332)" stroke-width="3.51832"/>
</g>
<g id="Frame 1000005003">
<g id="Frame 1000005002">
<path id="BOOK NOW" d="M49.1168 118.414V101.995H55.2856C56.2238 101.995 57.037 102.175 57.725 102.535C58.413 102.879 58.9447 103.348 59.32 103.942C59.7109 104.521 59.9063 105.162 59.9063 105.865C59.9063 106.757 59.7031 107.484 59.2965 108.047C58.9056 108.594 58.3974 109.024 57.7719 109.337C58.6163 109.65 59.32 110.126 59.8829 110.768C60.4458 111.393 60.7273 112.261 60.7273 113.371C60.7273 114.356 60.4927 115.232 60.0236 115.998C59.5701 116.749 58.9134 117.343 58.0534 117.781C57.209 118.203 56.2004 118.414 55.0276 118.414H49.1168ZM52.5882 115.224H54.84C55.6062 115.224 56.2004 115.06 56.6226 114.732C57.0448 114.388 57.2559 113.864 57.2559 113.16C57.2559 112.441 57.0448 111.917 56.6226 111.589C56.2004 111.244 55.6062 111.072 54.84 111.072H52.5882V115.224ZM52.5882 108.258H54.9103C55.3951 108.258 55.7938 108.125 56.1065 107.859C56.4193 107.578 56.5757 107.163 56.5757 106.616C56.5757 106.069 56.4193 105.662 56.1065 105.396C55.7938 105.13 55.3951 104.998 54.9103 104.998H52.5882V108.258ZM70.4205 118.742C69.2789 118.742 68.2 118.539 67.1836 118.133C66.1672 117.71 65.2681 117.124 64.4862 116.373C63.7044 115.607 63.0945 114.708 62.6567 113.676C62.2188 112.628 61.9999 111.471 61.9999 110.205C61.9999 108.938 62.2188 107.789 62.6567 106.757C63.0945 105.709 63.7044 104.81 64.4862 104.059C65.2681 103.293 66.1672 102.707 67.1836 102.3C68.2 101.878 69.2789 101.667 70.4205 101.667C71.5776 101.667 72.6565 101.878 73.6573 102.3C74.6737 102.707 75.5728 103.293 76.3547 104.059C77.1365 104.81 77.7464 105.709 78.1842 106.757C78.6221 107.789 78.841 108.938 78.841 110.205C78.841 111.471 78.6221 112.628 78.1842 113.676C77.7464 114.708 77.1365 115.607 76.3547 116.373C75.5728 117.124 74.6737 117.71 73.6573 118.133C72.6565 118.539 71.5776 118.742 70.4205 118.742ZM70.4205 115.506C71.1241 115.506 71.7731 115.38 72.3673 115.13C72.9615 114.864 73.4853 114.497 73.9388 114.028C74.3922 113.559 74.7441 113.004 74.9943 112.363C75.2445 111.706 75.3696 110.986 75.3696 110.205C75.3696 109.423 75.2445 108.711 74.9943 108.07C74.7441 107.413 74.3922 106.851 73.9388 106.381C73.4853 105.912 72.9615 105.553 72.3673 105.302C71.7731 105.037 71.1241 104.904 70.4205 104.904C69.7168 104.904 69.0679 105.037 68.4736 105.302C67.8794 105.553 67.3556 105.912 66.9021 106.381C66.4487 106.851 66.0968 107.413 65.8466 108.07C65.5964 108.711 65.4713 109.423 65.4713 110.205C65.4713 110.986 65.5964 111.706 65.8466 112.363C66.0968 113.004 66.4487 113.559 66.9021 114.028C67.3556 114.497 67.8794 114.864 68.4736 115.13C69.0679 115.38 69.7168 115.506 70.4205 115.506ZM88.9695 118.742C87.828 118.742 86.7491 118.539 85.7327 118.133C84.7163 117.71 83.8171 117.124 83.0353 116.373C82.2534 115.607 81.6436 114.708 81.2058 113.676C80.7679 112.628 80.549 111.471 80.549 110.205C80.549 108.938 80.7679 107.789 81.2058 106.757C81.6436 105.709 82.2534 104.81 83.0353 104.059C83.8171 103.293 84.7163 102.707 85.7327 102.3C86.7491 101.878 87.828 101.667 88.9695 101.667C90.1267 101.667 91.2056 101.878 92.2064 102.3C93.2228 102.707 94.1219 103.293 94.9038 104.059C95.6856 104.81 96.2955 105.709 96.7333 106.757C97.1711 107.789 97.3901 108.938 97.3901 110.205C97.3901 111.471 97.1711 112.628 96.7333 113.676C96.2955 114.708 95.6856 115.607 94.9038 116.373C94.1219 117.124 93.2228 117.71 92.2064 118.133C91.2056 118.539 90.1267 118.742 88.9695 118.742ZM88.9695 115.506C89.6732 115.506 90.3221 115.38 90.9163 115.13C91.5105 114.864 92.0344 114.497 92.4879 114.028C92.9413 113.559 93.2932 113.004 93.5434 112.363C93.7935 111.706 93.9186 110.986 93.9186 110.205C93.9186 109.423 93.7935 108.711 93.5434 108.07C93.2932 107.413 92.9413 106.851 92.4879 106.381C92.0344 105.912 91.5105 105.553 90.9163 105.302C90.3221 105.037 89.6732 104.904 88.9695 104.904C88.2659 104.904 87.6169 105.037 87.0227 105.302C86.4285 105.553 85.9047 105.912 85.4512 106.381C84.9977 106.851 84.6459 107.413 84.3957 108.07C84.1455 108.711 84.0204 109.423 84.0204 110.205C84.0204 110.986 84.1455 111.706 84.3957 112.363C84.6459 113.004 84.9977 113.559 85.4512 114.028C85.9047 114.497 86.4285 114.864 87.0227 115.13C87.6169 115.38 88.2659 115.506 88.9695 115.506ZM107.964 118.414L102.71 110.556V109.571L107.8 101.995H111.928L106.416 110.017L111.928 118.414H107.964ZM99.4499 118.414V101.995H102.921V118.414H99.4499ZM118.796 118.414V101.995H122.268L129.351 112.644C129.335 112.191 129.32 111.823 129.304 111.542C129.304 111.244 129.304 110.924 129.304 110.58V101.995H132.776V118.414H129.304L122.221 107.765C122.252 108.219 122.268 108.594 122.268 108.891C122.268 109.173 122.268 109.485 122.268 109.829V118.414H118.796ZM143.238 118.742C142.096 118.742 141.017 118.539 140.001 118.133C138.985 117.71 138.085 117.124 137.304 116.373C136.522 115.607 135.912 114.708 135.474 113.676C135.036 112.628 134.817 111.471 134.817 110.205C134.817 108.938 135.036 107.789 135.474 106.757C135.912 105.709 136.522 104.81 137.304 104.059C138.085 103.293 138.985 102.707 140.001 102.3C141.017 101.878 142.096 101.667 143.238 101.667C144.395 101.667 145.474 101.878 146.475 102.3C147.491 102.707 148.39 103.293 149.172 104.059C149.954 104.81 150.564 105.709 151.002 106.757C151.439 107.789 151.658 108.938 151.658 110.205C151.658 111.471 151.439 112.628 151.002 113.676C150.564 114.708 149.954 115.607 149.172 116.373C148.39 117.124 147.491 117.71 146.475 118.133C145.474 118.539 144.395 118.742 143.238 118.742ZM143.238 115.506C143.942 115.506 144.59 115.38 145.185 115.13C145.779 114.864 146.303 114.497 146.756 114.028C147.21 113.559 147.561 113.004 147.812 112.363C148.062 111.706 148.187 110.986 148.187 110.205C148.187 109.423 148.062 108.711 147.812 108.07C147.561 107.413 147.21 106.851 146.756 106.381C146.303 105.912 145.779 105.553 145.185 105.302C144.59 105.037 143.942 104.904 143.238 104.904C142.534 104.904 141.885 105.037 141.291 105.302C140.697 105.553 140.173 105.912 139.72 106.381C139.266 106.851 138.914 107.413 138.664 108.07C138.414 108.711 138.289 109.423 138.289 110.205C138.289 110.986 138.414 111.706 138.664 112.363C138.914 113.004 139.266 113.559 139.72 114.028C140.173 114.497 140.697 114.864 141.291 115.13C141.885 115.38 142.534 115.506 143.238 115.506ZM156.567 118.414L152.439 101.995H156.239L158.373 112.175C158.436 112.425 158.491 112.699 158.538 112.996C158.6 113.293 158.655 113.629 158.702 114.004C158.749 113.629 158.796 113.293 158.843 112.996C158.905 112.699 158.968 112.425 159.03 112.175L161.54 101.995H165.434L167.943 112.175C168.006 112.425 168.061 112.699 168.107 112.996C168.17 113.293 168.225 113.629 168.272 114.004C168.319 113.629 168.365 113.293 168.412 112.996C168.475 112.699 168.537 112.425 168.6 112.175L170.734 101.995H174.534L170.406 118.414H166.231L163.932 109.173C163.823 108.735 163.737 108.375 163.674 108.094C163.612 107.797 163.549 107.476 163.487 107.132C163.424 107.476 163.362 107.789 163.299 108.07C163.237 108.352 163.158 108.688 163.065 109.079L160.742 118.414H156.567Z" fill="white"/>
</g>
</g>
</g>
<defs>
<filter id="filter0_b_2390_38332" x="-11.7277" y="-11.7277" width="247.455" height="247.455" filterUnits="userSpaceOnUse" color-interpolation-filters="sRGB">
<feFlood flood-opacity="0" result="BackgroundImageFix"/>
<feGaussianBlur in="BackgroundImageFix" stdDeviation="5.86387"/>
<feComposite in2="SourceAlpha" operator="in" result="effect1_backgroundBlur_2390_38332"/>
<feBlend mode="normal" in="SourceGraphic" in2="effect1_backgroundBlur_2390_38332" result="shape"/>
</filter>
<linearGradient id="paint0_linear_2390_38332" x1="112" y1="0" x2="112" y2="224" gradientUnits="userSpaceOnUse">
<stop stop-color="#FF5900"/>
<stop offset="1" stop-color="#F96515" stop-opacity="0.75"/>
</linearGradient>
<linearGradient id="paint1_linear_2390_38332" x1="112" y1="0" x2="112" y2="224" gradientUnits="userSpaceOnUse">
<stop stop-color="white"/>
<stop offset="1" stop-color="white" stop-opacity="0"/>
</linearGradient>
<clipPath id="clip0_2390_38332">
<rect width="224" height="224" fill="white"/>
</clipPath>
</defs>
</svg>
