<svg width="16" height="15" viewBox="0 0 16 15" fill="none" xmlns="http://www.w3.org/2000/svg">
<g id="Group">
<path id="Vector" d="M9.40654 4.21875H2.84375V13.5942C2.84375 13.8531 3.05363 14.0629 3.31252 14.0629H15.5318C15.7907 14.0629 16.0006 13.8531 16.0006 13.5942V4.21875H9.40654Z" fill="#262626"/>
<path id="Vector_2" d="M15.5318 0.9375H3.31252C3.05363 0.9375 2.84375 1.14738 2.84375 1.40627V3.75013L3.78129 4.68767H15.063L16.0006 3.75013V1.40627C16.0006 1.14742 15.7907 0.9375 15.5318 0.9375Z" fill="#262626"/>
<path id="Vector_3" d="M6.12502 2.81263C5.86592 2.81263 5.65625 2.60296 5.65625 2.34385V0.468771C5.65625 0.209666 5.86592 0 6.12502 0C6.38413 0 6.59379 0.209666 6.59379 0.468771V2.34385C6.59379 2.60296 6.38413 2.81263 6.12502 2.81263Z" fill="#F96515"/>
<path id="Vector_4" d="M12.6875 2.81263C12.4284 2.81263 12.2188 2.60296 12.2188 2.34385V0.468771C12.2188 0.209666 12.4284 0 12.6875 0C12.9466 0 13.1563 0.209666 13.1563 0.468771V2.34385C13.1563 2.60296 12.9466 2.81263 12.6875 2.81263Z" fill="#F96515"/>
<path id="Vector_5" d="M9.40595 3.75H3.31193C3.05304 3.75 2.84316 3.95988 2.84316 4.21877C2.84316 9.07083 0.193385 11.3378 0.166821 11.3597C0.0162208 11.487 -0.0391879 11.6949 0.0285651 11.8798C0.0958494 12.0643 0.271201 12.1879 0.468054 12.1879H12.6874C12.7972 12.1879 12.9034 12.1494 12.9876 12.0794C13.109 11.9777 16 9.53363 16 4.21877C16 3.95988 15.7901 3.75 15.5312 3.75H9.40595Z" fill="#F96515"/>
<path id="Vector_6" d="M9.40627 0C9.14717 0 8.9375 0.209666 8.9375 0.468771V2.34385C8.9375 2.60296 9.14717 2.81263 9.40627 2.81263C9.66538 2.81263 9.87504 2.60296 9.87504 2.34385V0.468771C9.87504 0.209666 9.66538 0 9.40627 0Z" fill="#F96515"/>
</g>
</svg>
