<svg width="274" height="274" viewBox="0 0 274 274" fill="none" xmlns="http://www.w3.org/2000/svg">
<g id="Frame 1000004721" clip-path="url(#clip0_2390_38333)" filter="url(#filter0_d_2390_38333)">
<g id="Rectangle 34624898" filter="url(#filter1_b_2390_38333)">
<rect x="25" y="25.126" width="224" height="224" rx="112" fill="white" fill-opacity="0.8"/>
</g>
<g id="Frame 1000005003">
<g id="Communication / Phone">
<path id="Vector" d="M132.51 89.4444C132.035 88.2571 130.885 87.4785 129.606 87.4785H125.305C123.668 87.4785 122.342 88.8047 122.342 90.441C122.342 104.35 133.617 115.625 147.526 115.625C149.162 115.625 150.488 114.298 150.488 112.662L150.489 108.36C150.489 107.081 149.711 105.932 148.523 105.457L144.401 103.808C143.334 103.382 142.12 103.574 141.237 104.309L140.173 105.196C138.931 106.232 137.103 106.149 135.959 105.006L132.963 102.007C131.819 100.863 131.735 99.0363 132.77 97.7937L133.657 96.7298C134.393 95.8474 134.586 94.6327 134.16 93.5661L132.51 89.4444Z" fill="#6A6A6A"/>
</g>
<g id="Frame 1000005002">
<path id="Call us" d="M117.197 140.238C116.431 140.238 115.703 140.101 115.013 139.827C114.334 139.543 113.727 139.138 113.191 138.612C112.665 138.087 112.249 137.463 111.943 136.74C111.636 136.007 111.483 135.181 111.483 134.261C111.483 133.342 111.636 132.521 111.943 131.798C112.249 131.065 112.671 130.436 113.207 129.91C113.743 129.385 114.351 128.985 115.03 128.712C115.719 128.427 116.442 128.285 117.197 128.285C118.171 128.285 119.036 128.465 119.791 128.827C120.546 129.177 121.165 129.675 121.646 130.321C122.128 130.966 122.44 131.738 122.582 132.636H120.563C120.431 132.11 120.207 131.662 119.89 131.289C119.572 130.906 119.184 130.616 118.724 130.419C118.264 130.222 117.755 130.124 117.197 130.124C116.551 130.124 115.944 130.288 115.374 130.616C114.805 130.945 114.345 131.421 113.995 132.045C113.645 132.658 113.47 133.396 113.47 134.261C113.47 135.115 113.645 135.854 113.995 136.478C114.345 137.102 114.805 137.578 115.374 137.906C115.944 138.235 116.551 138.399 117.197 138.399C118.04 138.399 118.762 138.18 119.364 137.742C119.977 137.304 120.377 136.68 120.563 135.87H122.599C122.445 136.768 122.117 137.545 121.613 138.202C121.11 138.848 120.475 139.351 119.709 139.712C118.954 140.063 118.116 140.238 117.197 140.238ZM127.79 140.238C127.024 140.238 126.34 140.046 125.738 139.663C125.136 139.28 124.66 138.765 124.309 138.12C123.959 137.474 123.784 136.751 123.784 135.952C123.784 135.153 123.959 134.431 124.309 133.785C124.67 133.139 125.158 132.625 125.771 132.242C126.394 131.859 127.084 131.667 127.839 131.667C128.474 131.667 129.021 131.771 129.481 131.979C129.952 132.187 130.324 132.461 130.598 132.8V131.897H132.355V140.008H130.598V138.842C130.324 139.236 129.957 139.57 129.498 139.844C129.049 140.106 128.48 140.238 127.79 140.238ZM128.135 138.497C128.584 138.497 128.994 138.393 129.366 138.185C129.738 137.977 130.034 137.682 130.253 137.299C130.483 136.916 130.598 136.467 130.598 135.952C130.598 135.438 130.483 134.989 130.253 134.606C130.034 134.223 129.738 133.927 129.366 133.719C128.994 133.511 128.584 133.407 128.135 133.407C127.686 133.407 127.27 133.511 126.887 133.719C126.515 133.927 126.219 134.223 126 134.606C125.781 134.989 125.672 135.438 125.672 135.952C125.672 136.467 125.781 136.916 126 137.299C126.219 137.682 126.515 137.977 126.887 138.185C127.27 138.393 127.686 138.497 128.135 138.497ZM134.558 140.008V128.515H136.446V140.008H134.558ZM138.651 140.008V128.515H140.539V140.008H138.651ZM149.194 140.238C148.613 140.238 148.115 140.112 147.699 139.86C147.284 139.597 146.966 139.242 146.747 138.793C146.528 138.333 146.419 137.808 146.419 137.217V131.897H148.307V136.855C148.307 137.392 148.466 137.813 148.783 138.12C149.101 138.426 149.484 138.579 149.932 138.579C150.381 138.579 150.764 138.426 151.082 138.12C151.399 137.813 151.558 137.392 151.558 136.855V131.897H153.446V140.008H151.689V138.793C151.492 139.22 151.186 139.57 150.77 139.844C150.365 140.106 149.839 140.238 149.194 140.238ZM158.302 140.238C157.689 140.238 157.147 140.117 156.677 139.876C156.217 139.636 155.85 139.302 155.577 138.875C155.314 138.437 155.182 137.934 155.182 137.364H157.071C157.071 137.726 157.18 138.027 157.399 138.267C157.629 138.497 157.935 138.612 158.318 138.612C158.68 138.612 158.97 138.525 159.189 138.35C159.408 138.174 159.517 137.95 159.517 137.676C159.517 137.403 159.419 137.184 159.222 137.02C159.024 136.855 158.718 136.713 158.302 136.593L157.169 136.264C156.622 136.111 156.179 135.848 155.839 135.476C155.5 135.104 155.33 134.628 155.33 134.048C155.33 133.555 155.462 133.134 155.724 132.784C155.998 132.433 156.354 132.16 156.792 131.963C157.229 131.766 157.716 131.667 158.253 131.667C158.855 131.667 159.364 131.776 159.78 131.995C160.207 132.214 160.535 132.515 160.765 132.898C160.995 133.271 161.11 133.692 161.11 134.163H159.336C159.336 133.9 159.232 133.676 159.024 133.49C158.827 133.293 158.57 133.194 158.253 133.194C157.935 133.194 157.673 133.265 157.465 133.407C157.268 133.55 157.169 133.736 157.169 133.966C157.169 134.206 157.257 134.398 157.432 134.54C157.618 134.683 157.903 134.809 158.286 134.918L159.468 135.263C160.026 135.416 160.48 135.673 160.831 136.034C161.181 136.396 161.356 136.883 161.356 137.496C161.356 137.999 161.225 138.459 160.962 138.875C160.71 139.291 160.354 139.625 159.895 139.876C159.446 140.117 158.915 140.238 158.302 140.238Z" fill="#6A6A6A"/>
<path id="(+84) 999222111" d="M73.843 169.251C73.3676 168.588 72.9423 167.813 72.567 166.924C72.2042 166.036 71.9165 165.079 71.7039 164.053C71.4912 163.015 71.3849 161.958 71.3849 160.882C71.3849 159.806 71.4912 158.756 71.7039 157.73C71.9165 156.692 72.2042 155.728 72.567 154.84C72.9423 153.939 73.3676 153.164 73.843 152.513H76.4137C75.7257 153.627 75.1565 154.915 74.7062 156.379C74.2683 157.83 74.0494 159.331 74.0494 160.882C74.0494 162.433 74.2683 163.941 74.7062 165.404C75.1565 166.856 75.7257 168.138 76.4137 169.251H73.843ZM77.1259 161.164V159.1H85.2321V161.164H77.1259ZM80.147 164.185V156.079H82.211V164.185H80.147ZM90.8692 166.962C89.956 166.962 89.1429 166.793 88.4298 166.455C87.7293 166.118 87.1789 165.642 86.7786 165.029C86.3908 164.416 86.1969 163.697 86.1969 162.871C86.1969 162.121 86.4033 161.47 86.8161 160.92C87.2289 160.369 87.7043 159.982 88.2422 159.756C87.7918 159.481 87.4166 159.093 87.1163 158.593C86.8161 158.093 86.666 157.542 86.666 156.942C86.666 156.254 86.8349 155.641 87.1726 155.103C87.5229 154.552 88.0108 154.115 88.6362 153.789C89.2742 153.464 90.0186 153.301 90.8692 153.301C91.7199 153.301 92.4579 153.464 93.0834 153.789C93.7214 154.115 94.2093 154.552 94.547 155.103C94.8973 155.641 95.0724 156.254 95.0724 156.942C95.0724 157.542 94.9223 158.093 94.6221 158.593C94.3219 159.093 93.9466 159.481 93.4962 159.756C94.0466 159.982 94.522 160.369 94.9223 160.92C95.3351 161.47 95.5415 162.121 95.5415 162.871C95.5415 163.697 95.3414 164.416 94.9411 165.029C94.5533 165.642 94.0091 166.118 93.3086 166.455C92.608 166.793 91.7949 166.962 90.8692 166.962ZM90.8692 164.372C91.3821 164.372 91.8262 164.216 92.2015 163.903C92.5768 163.591 92.7644 163.184 92.7644 162.684C92.7644 162.121 92.583 161.683 92.2202 161.37C91.8575 161.057 91.4071 160.901 90.8692 160.901C90.3313 160.901 89.8809 161.057 89.5182 161.37C89.1554 161.683 88.974 162.121 88.974 162.684C88.974 163.184 89.1616 163.591 89.5369 163.903C89.9247 164.216 90.3688 164.372 90.8692 164.372ZM90.8692 158.724C91.3196 158.724 91.7011 158.587 92.0138 158.312C92.3266 158.036 92.4829 157.667 92.4829 157.204C92.4829 156.729 92.3266 156.354 92.0138 156.079C91.7011 155.803 91.3196 155.666 90.8692 155.666C90.4189 155.666 90.0373 155.803 89.7246 156.079C89.4118 156.354 89.2555 156.729 89.2555 157.204C89.2555 157.667 89.4118 158.036 89.7246 158.312C90.0373 158.587 90.4189 158.724 90.8692 158.724ZM102.492 166.699V163.509H96.825V161.858L102.323 153.564H105.269V161.408H106.751V163.509H105.269V166.699H102.492ZM99.8273 161.408H102.492V158.443C102.492 158.255 102.498 158.049 102.511 157.824C102.536 157.598 102.554 157.386 102.567 157.186L99.8273 161.408ZM107.696 169.251C108.397 168.138 108.966 166.856 109.404 165.404C109.842 163.941 110.061 162.433 110.061 160.882C110.061 159.331 109.842 157.83 109.404 156.379C108.966 154.915 108.397 153.627 107.696 152.513H110.267C110.743 153.164 111.162 153.939 111.524 154.84C111.9 155.728 112.194 156.692 112.406 157.73C112.619 158.756 112.725 159.806 112.725 160.882C112.725 161.958 112.619 163.015 112.406 164.053C112.194 165.079 111.9 166.036 111.524 166.924C111.162 167.813 110.743 168.588 110.267 169.251H107.696ZM120.295 166.699L124.236 161.182L124.724 161.258C124.448 161.52 124.123 161.727 123.748 161.877C123.385 162.027 122.941 162.102 122.416 162.102C121.665 162.102 120.983 161.921 120.37 161.558C119.77 161.195 119.294 160.695 118.944 160.057C118.594 159.406 118.419 158.649 118.419 157.786C118.419 156.935 118.619 156.172 119.019 155.497C119.419 154.821 119.976 154.29 120.689 153.902C121.415 153.502 122.259 153.301 123.222 153.301C124.223 153.301 125.08 153.52 125.793 153.958C126.506 154.384 127.057 154.953 127.444 155.666C127.832 156.366 128.026 157.142 128.026 157.993C128.026 158.543 127.964 159.05 127.838 159.512C127.713 159.975 127.532 160.432 127.294 160.882C127.057 161.333 126.763 161.814 126.412 162.327L123.429 166.699H120.295ZM123.222 159.813C123.598 159.813 123.935 159.731 124.236 159.569C124.548 159.406 124.792 159.175 124.967 158.874C125.155 158.562 125.249 158.199 125.249 157.786C125.249 157.361 125.155 156.998 124.967 156.698C124.792 156.398 124.548 156.166 124.236 156.004C123.935 155.828 123.598 155.741 123.222 155.741C122.86 155.741 122.522 155.828 122.209 156.004C121.896 156.166 121.646 156.398 121.459 156.698C121.283 156.998 121.196 157.361 121.196 157.786C121.196 158.199 121.283 158.562 121.459 158.874C121.646 159.175 121.896 159.406 122.209 159.569C122.522 159.731 122.86 159.813 123.222 159.813ZM131.396 166.699L135.337 161.182L135.825 161.258C135.549 161.52 135.224 161.727 134.849 161.877C134.486 162.027 134.042 162.102 133.517 162.102C132.766 162.102 132.084 161.921 131.471 161.558C130.871 161.195 130.395 160.695 130.045 160.057C129.695 159.406 129.52 158.649 129.52 157.786C129.52 156.935 129.72 156.172 130.12 155.497C130.521 154.821 131.077 154.29 131.79 153.902C132.516 153.502 133.36 153.301 134.323 153.301C135.324 153.301 136.181 153.52 136.894 153.958C137.607 154.384 138.158 154.953 138.545 155.666C138.933 156.366 139.127 157.142 139.127 157.993C139.127 158.543 139.065 159.05 138.939 159.512C138.814 159.975 138.633 160.432 138.395 160.882C138.158 161.333 137.864 161.814 137.513 162.327L134.53 166.699H131.396ZM134.323 159.813C134.699 159.813 135.036 159.731 135.337 159.569C135.649 159.406 135.893 159.175 136.069 158.874C136.256 158.562 136.35 158.199 136.35 157.786C136.35 157.361 136.256 156.998 136.069 156.698C135.893 156.398 135.649 156.166 135.337 156.004C135.036 155.828 134.699 155.741 134.323 155.741C133.961 155.741 133.623 155.828 133.31 156.004C132.997 156.166 132.747 156.398 132.56 156.698C132.384 156.998 132.297 157.361 132.297 157.786C132.297 158.199 132.384 158.562 132.56 158.874C132.747 159.175 132.997 159.406 133.31 159.569C133.623 159.731 133.961 159.813 134.323 159.813ZM142.497 166.699L146.438 161.182L146.926 161.258C146.65 161.52 146.325 161.727 145.95 161.877C145.587 162.027 145.143 162.102 144.618 162.102C143.867 162.102 143.185 161.921 142.572 161.558C141.972 161.195 141.496 160.695 141.146 160.057C140.796 159.406 140.621 158.649 140.621 157.786C140.621 156.935 140.821 156.172 141.221 155.497C141.622 154.821 142.178 154.29 142.891 153.902C143.617 153.502 144.461 153.301 145.424 153.301C146.425 153.301 147.282 153.52 147.995 153.958C148.708 154.384 149.259 154.953 149.646 155.666C150.034 156.366 150.228 157.142 150.228 157.993C150.228 158.543 150.166 159.05 150.041 159.512C149.915 159.975 149.734 160.432 149.496 160.882C149.259 161.333 148.965 161.814 148.614 162.327L145.631 166.699H142.497ZM145.424 159.813C145.8 159.813 146.138 159.731 146.438 159.569C146.751 159.406 146.994 159.175 147.17 158.874C147.357 158.562 147.451 158.199 147.451 157.786C147.451 157.361 147.357 156.998 147.17 156.698C146.994 156.398 146.751 156.166 146.438 156.004C146.138 155.828 145.8 155.741 145.424 155.741C145.062 155.741 144.724 155.828 144.411 156.004C144.098 156.166 143.848 156.398 143.661 156.698C143.486 156.998 143.398 157.361 143.398 157.786C143.398 158.199 143.486 158.562 143.661 158.874C143.848 159.175 144.098 159.406 144.411 159.569C144.724 159.731 145.062 159.813 145.424 159.813ZM151.409 166.699V164.635L155.838 160.15C156.313 159.675 156.676 159.25 156.926 158.874C157.189 158.487 157.32 158.018 157.32 157.467C157.32 156.992 157.17 156.604 156.87 156.304C156.582 156.004 156.194 155.853 155.707 155.853C155.181 155.853 154.768 156.01 154.468 156.323C154.168 156.635 154.005 157.042 153.98 157.542H151.372C151.372 156.692 151.553 155.947 151.916 155.309C152.279 154.671 152.786 154.177 153.436 153.827C154.099 153.477 154.868 153.301 155.744 153.301C156.67 153.301 157.452 153.47 158.09 153.808C158.728 154.146 159.209 154.621 159.534 155.234C159.86 155.835 160.022 156.541 160.022 157.355C160.022 157.88 159.941 158.38 159.778 158.856C159.628 159.319 159.391 159.781 159.065 160.244C158.74 160.695 158.327 161.176 157.827 161.689L155.406 164.147H160.172V166.699H151.409ZM161.539 166.699V164.635L165.968 160.15C166.443 159.675 166.806 159.25 167.056 158.874C167.319 158.487 167.45 158.018 167.45 157.467C167.45 156.992 167.3 156.604 167 156.304C166.712 156.004 166.324 155.853 165.836 155.853C165.311 155.853 164.898 156.01 164.598 156.323C164.298 156.635 164.135 157.042 164.11 157.542H161.502C161.502 156.692 161.683 155.947 162.046 155.309C162.409 154.671 162.915 154.177 163.566 153.827C164.229 153.477 164.998 153.301 165.874 153.301C166.8 153.301 167.581 153.47 168.219 153.808C168.857 154.146 169.339 154.621 169.664 155.234C169.99 155.835 170.152 156.541 170.152 157.355C170.152 157.88 170.071 158.38 169.908 158.856C169.758 159.319 169.52 159.781 169.195 160.244C168.87 160.695 168.457 161.176 167.957 161.689L165.536 164.147H170.302V166.699H161.539ZM171.669 166.699V164.635L176.098 160.15C176.573 159.675 176.936 159.25 177.186 158.874C177.449 158.487 177.58 158.018 177.58 157.467C177.58 156.992 177.43 156.604 177.13 156.304C176.842 156.004 176.454 155.853 175.966 155.853C175.441 155.853 175.028 156.01 174.728 156.323C174.428 156.635 174.265 157.042 174.24 157.542H171.632C171.632 156.692 171.813 155.947 172.176 155.309C172.539 154.671 173.045 154.177 173.696 153.827C174.359 153.477 175.128 153.301 176.004 153.301C176.929 153.301 177.711 153.47 178.349 153.808C178.987 154.146 179.469 154.621 179.794 155.234C180.119 155.835 180.282 156.541 180.282 157.355C180.282 157.88 180.201 158.38 180.038 158.856C179.888 159.319 179.65 159.781 179.325 160.244C179 160.695 178.587 161.176 178.087 161.689L175.666 164.147H180.432V166.699H171.669ZM184.353 166.699V156.172H181.745V153.564H187.13V166.699H184.353ZM191.423 166.699V156.172H188.815V153.564H194.2V166.699H191.423ZM198.492 166.699V156.172H195.884V153.564H201.27V166.699H198.492Z" fill="#262626"/>
</g>
</g>
<g id="Linked Path Group">
<path id="[Copy] Speak to one of our travel specialists" d="M44.57 122.826C44.4749 123.458 44.3363 124.048 44.1542 124.597C43.9624 125.144 43.7442 125.603 43.4996 125.974L41.2403 125.634C41.5103 125.227 41.7486 124.766 41.9555 124.251C42.1623 123.735 42.3008 123.244 42.3711 122.778C42.4443 122.292 42.4603 121.922 42.4191 121.667C42.3697 121.401 42.1993 121.247 41.9078 121.203C41.7037 121.172 41.5324 121.221 41.3938 121.349C41.2567 121.467 41.1169 121.67 40.9744 121.956C40.8333 122.233 40.654 122.599 40.4365 123.053C40.1373 123.654 39.8384 124.121 39.5399 124.453C39.2413 124.786 38.9047 125.009 38.53 125.121C38.1568 125.224 37.7175 125.237 37.2122 125.161C36.2891 125.022 35.6385 124.591 35.2604 123.868C34.8741 123.134 34.7782 122.121 34.9729 120.829C35.0505 120.314 35.174 119.791 35.3434 119.26C35.5143 118.719 35.6788 118.287 35.8369 117.963L38.1107 118.305C37.8573 118.734 37.6603 119.152 37.5196 119.558C37.3789 119.964 37.2808 120.352 37.2251 120.721C37.1607 121.148 37.1399 121.518 37.1625 121.829C37.1852 122.141 37.3374 122.318 37.6192 122.36C37.8621 122.397 38.0609 122.298 38.2156 122.063C38.362 121.816 38.5724 121.376 38.8468 120.742C39.1665 120.005 39.5021 119.459 39.8537 119.104C40.2067 118.74 40.5885 118.514 40.9991 118.427C41.4001 118.339 41.8435 118.331 42.3293 118.404C43.1844 118.533 43.8246 118.967 44.2498 119.707C44.6653 120.445 44.772 121.485 44.57 122.826Z" fill="#1A1A1A"/>
<path id="[Copy] Speak to one of our travel specialists_2" d="M48.1938 119.34L38.3191 116.904L38.8946 114.571L39.4702 114.577C39.319 114.246 39.2262 113.904 39.1917 113.551C39.1501 113.187 39.1834 112.785 39.2917 112.346C39.5412 111.335 39.9906 110.621 40.64 110.204C41.2821 109.776 42.2139 109.712 43.4351 110.013C44.6468 110.312 45.4956 110.83 45.9818 111.568C46.4679 112.305 46.585 113.184 46.3332 114.205C46.166 114.882 45.896 115.423 45.5231 115.827L48.8576 116.649L48.1938 119.34ZM44.2031 114.408C44.2996 114.017 44.2354 113.682 44.0105 113.404C43.7856 113.126 43.3821 112.915 42.8001 112.771C42.2372 112.633 41.8309 112.639 41.5811 112.79C41.3337 112.931 41.1605 113.202 41.0617 113.603C40.9628 114.003 41.0093 114.389 41.2011 114.761L43.6054 115.354C43.7575 115.229 43.8811 115.098 43.976 114.959C44.0709 114.821 44.1466 114.637 44.2031 114.408Z" fill="#1A1A1A"/>
<path id="[Copy] Speak to one of our travel specialists_3" d="M49.1348 105.123C48.8648 105.893 48.5005 106.53 48.0419 107.036C47.5773 107.529 47.0315 107.853 46.4043 108.008C45.7805 108.154 45.093 108.095 44.3419 107.831C43.2941 107.463 42.5637 106.874 42.1506 106.062C41.7283 105.248 41.7237 104.252 42.1369 103.074C42.5143 101.998 43.0823 101.255 43.8408 100.844C44.6026 100.424 45.4564 100.38 46.4023 100.712L47.5567 101.117L45.9512 105.693C46.3458 105.696 46.6791 105.548 46.9511 105.247C47.2231 104.947 47.4648 104.496 47.6763 103.893C47.8097 103.513 47.9106 103.121 47.9791 102.718C48.0416 102.303 48.0671 101.963 48.0557 101.698L49.6274 102.25C49.7057 103.006 49.5415 103.964 49.1348 105.123ZM44.5324 105.195L45.3474 102.873L45.111 102.79C44.8513 102.699 44.6088 102.707 44.3833 102.816C44.1611 102.915 43.9784 103.168 43.8353 103.576C43.6758 104.031 43.661 104.385 43.7906 104.638C43.9143 104.88 44.1615 105.065 44.5324 105.195Z" fill="#1A1A1A"/>
<path id="[Copy] Speak to one of our travel specialists_4" d="M51.4032 99.499C51.218 99.9006 50.9738 100.242 50.6705 100.525C50.3713 100.798 50.0227 100.967 49.6247 101.032C49.2266 101.098 48.7956 101.023 48.3315 100.81C47.6623 100.501 47.2476 100.039 47.0875 99.4242C46.9184 98.8052 47.0417 98.045 47.4573 97.1437L48.2166 95.4973L48.0961 95.4417C47.8463 95.3265 47.616 95.3448 47.4053 95.4965C47.1947 95.6483 46.97 95.9829 46.7313 96.5005C46.3939 97.2322 46.1721 98.0065 46.066 98.8233L44.5534 98.1258C44.5766 97.7469 44.6592 97.298 44.8011 96.7791C44.9341 96.2561 45.1158 95.7447 45.3463 95.2449C45.8113 94.2366 46.3848 93.5326 47.0669 93.1329C47.749 92.7332 48.5362 92.7391 49.4286 93.1507L53.3372 94.9531L52.3248 97.1483L51.7606 97.0342C51.8541 97.3479 51.8765 97.7099 51.8279 98.1204C51.7834 98.5219 51.6418 98.9814 51.4032 99.499ZM50.3258 97.9633C50.4575 97.6778 50.5195 97.4142 50.5119 97.1726C50.5084 96.9221 50.4661 96.697 50.3851 96.4973L49.5953 96.1331L49.0336 97.3512C48.7784 97.9044 48.8695 98.2819 49.3068 98.4835C49.7351 98.6811 50.0748 98.5077 50.3258 97.9633Z" fill="#1A1A1A"/>
<path id="[Copy] Speak to one of our travel specialists_5" d="M53.939 93.7656L45.3456 88.7799L46.7363 86.3829L50.982 88.8462L50.2627 86.1794L51.8383 83.4637L52.9902 87.3529L57.963 86.8297L56.4836 89.3797L53.3742 89.5695L53.5829 90.3552L55.3296 91.3687L53.939 93.7656Z" fill="#1A1A1A"/>
<path id="[Copy] Speak to one of our travel specialists_6" d="M62.4873 80.791C61.9185 81.5313 61.3184 81.9252 60.6869 81.9729C60.0554 82.0205 59.4202 81.7989 58.7813 81.3079L56.8293 79.8081L56.2725 80.5327L54.6478 79.2844L55.2047 78.5597L54.0709 77.6885L55.2334 75.087L56.8931 76.3623L57.8721 75.0883L59.4339 76.4185L58.5178 77.6107L60.3061 78.9848C60.5398 79.1644 60.7523 79.2347 60.9434 79.1957C61.1267 79.1506 61.3112 79.0073 61.4968 78.7658C61.6704 78.5398 61.8081 78.28 61.9098 77.9864L63.3708 79.109C63.2249 79.6537 62.9304 80.2144 62.4873 80.791Z" fill="#1A1A1A"/>
<path id="[Copy] Speak to one of our travel specialists_7" d="M67.4374 74.8333C66.5009 75.8678 65.5789 76.425 64.6715 76.5049C63.7706 76.5775 62.8795 76.2147 61.998 75.4167C61.1238 74.6253 60.6815 73.7742 60.671 72.8633C60.6532 71.9458 61.1093 70.9735 62.0392 69.9463C62.9757 68.9119 63.9013 68.358 64.816 68.2847C65.7301 68.1975 66.6242 68.5496 67.4984 69.3411C68.3798 70.1391 68.8258 70.9935 68.8363 71.9044C68.8468 72.8153 68.3805 73.7916 67.4374 74.8333ZM65.9403 73.478C66.2437 73.1429 66.3666 72.8168 66.3091 72.4996C66.2582 72.1751 66.0215 71.8217 65.599 71.4391C65.1837 71.0632 64.8121 70.866 64.4842 70.8475C64.1556 70.8151 63.8396 70.9665 63.5363 71.3016C63.2395 71.6295 63.1235 71.9552 63.1883 72.279C63.2458 72.5962 63.4822 72.9427 63.8974 73.3187C64.3199 73.7012 64.6919 73.9053 65.0132 73.9311C65.3345 73.9569 65.6435 73.8059 65.9403 73.478Z" fill="#1A1A1A"/>
<path id="[Copy] Speak to one of our travel specialists_8" d="M76.8969 65.7309C75.8267 66.6264 74.8367 67.0511 73.9269 67.0051C73.0247 66.9528 72.1921 66.4707 71.429 65.5588C70.6723 64.6544 70.3516 63.7504 70.4668 62.8467C70.5757 61.9356 71.1615 61.0354 72.2241 60.1463C73.2943 59.2508 74.2875 58.8299 75.2035 58.8834C76.1208 58.9231 76.9579 59.3951 77.7146 60.2995C78.4776 61.2114 78.8015 62.1192 78.6863 63.0228C78.5711 63.9265 77.9746 64.8291 76.8969 65.7309ZM75.601 64.1821C75.9477 63.8921 76.1144 63.586 76.1012 63.2639C76.0955 62.9355 75.9098 62.5528 75.544 62.1157C75.1846 61.6861 74.8438 61.4395 74.5215 61.376C74.2005 61.2986 73.8667 61.405 73.52 61.6951C73.1809 61.9788 73.0211 62.2855 73.0406 62.6151C73.0538 62.9372 73.2401 63.313 73.5996 63.7426C73.9653 64.1797 74.3056 64.4332 74.6203 64.503C74.9349 64.5729 75.2619 64.4659 75.601 64.1821Z" fill="#1A1A1A"/>
<path id="[Copy] Speak to one of our travel specialists_9" d="M80.7449 62.4072L76.7869 56.6495L78.9248 55.1799L79.2861 55.5754C79.4046 55.2793 79.603 54.9522 79.8814 54.5938C80.1678 54.23 80.5176 53.9061 80.9306 53.6222C81.6513 53.1267 82.3001 52.943 82.8771 53.0711C83.4541 53.1992 83.9986 53.6357 84.5107 54.3808L87.0492 58.0735L84.7655 59.6433L82.3858 56.1814C82.2076 55.9222 82.0229 55.775 81.8316 55.7395C81.6403 55.7041 81.4029 55.7838 81.1195 55.9786C80.9494 56.0955 80.7991 56.2585 80.6685 56.4675C80.546 56.6709 80.4671 56.8683 80.4316 57.0596L83.0285 60.8374L80.7449 62.4072Z" fill="#1A1A1A"/>
<path id="[Copy] Speak to one of our travel specialists_10" d="M92.6351 55.0747C91.9222 55.4711 91.2265 55.7061 90.5479 55.7798C89.8731 55.8401 89.2498 55.7201 88.678 55.4196C88.1148 55.1144 87.6397 54.6139 87.253 53.9182C86.7134 52.9477 86.5584 52.0219 86.7882 51.1409C87.0132 50.2512 87.671 49.5032 88.7618 48.8967C89.7581 48.3428 90.6762 48.1641 91.5162 48.3604C92.3648 48.552 93.0326 49.0858 93.5197 49.9618L94.1142 51.0311L89.8757 53.3876C90.1688 53.6519 90.5167 53.7621 90.9195 53.718C91.3222 53.674 91.8028 53.4968 92.361 53.1864C92.7132 52.9906 93.0486 52.7648 93.3673 52.5089C93.6898 52.2396 93.9346 52.0023 94.1015 51.7971L94.9109 53.2529C94.4673 53.8705 93.7087 54.4778 92.6351 55.0747ZM89.1451 52.0736L91.2965 50.8774L91.1748 50.6584C91.0411 50.4179 90.8539 50.2633 90.6134 50.1947C90.3814 50.1213 90.0765 50.1896 89.6986 50.3997C89.2777 50.6337 89.0316 50.8886 88.9601 51.1645C88.8924 51.427 88.9541 51.73 89.1451 52.0736Z" fill="#1A1A1A"/>
<path id="[Copy] Speak to one of our travel specialists_11" d="M103.369 50.1676C102.066 50.6691 100.992 50.751 100.146 50.4134C99.3093 50.0723 98.6771 49.347 98.2498 48.2374C97.826 47.1369 97.8146 46.1778 98.2157 45.3599C98.6133 44.5329 99.4586 43.8703 100.752 43.3724C102.054 42.8709 103.13 42.7935 103.979 43.1402C104.834 43.4743 105.474 44.1915 105.898 45.292C106.325 46.4016 106.338 47.3653 105.937 48.1832C105.536 49.0011 104.68 49.6625 103.369 50.1676ZM102.643 48.2831C103.065 48.1206 103.321 47.8848 103.413 47.5758C103.514 47.2632 103.462 46.841 103.257 46.3091C103.055 45.7864 102.813 45.4429 102.528 45.2786C102.249 45.1017 101.899 45.0944 101.477 45.2569C101.065 45.4158 100.814 45.6544 100.726 45.9726C100.635 46.2817 100.69 46.6975 100.891 47.2203C101.096 47.7521 101.336 48.102 101.611 48.2698C101.886 48.4376 102.23 48.442 102.643 48.2831Z" fill="#1A1A1A"/>
<path id="[Copy] Speak to one of our travel specialists_12" d="M107.616 48.4528L106.224 43.715L105.362 43.9685L104.784 42.0026L105.647 41.7492L105.518 41.3108C105.297 40.5565 105.331 39.8705 105.62 39.2528C105.907 38.6257 106.484 38.1847 107.352 37.9299C107.719 37.8219 108.053 37.7546 108.352 37.7281C108.661 37.6988 108.958 37.6986 109.243 37.7275L109.75 39.4529C109.595 39.4473 109.442 39.4512 109.293 39.4644C109.152 39.4749 109.007 39.5023 108.856 39.5466C108.517 39.6464 108.299 39.7769 108.203 39.9382C108.116 40.0968 108.113 40.3128 108.194 40.5862L108.306 40.9681L109.89 40.5028L110.354 42.5018L108.883 42.9339L110.275 47.6717L107.616 48.4528Z" fill="#1A1A1A"/>
<path id="[Copy] Speak to one of our travel specialists_13" d="M122.046 45.1619C120.668 45.3809 119.6 45.2372 118.843 44.7307C118.096 44.2227 117.629 43.3815 117.442 42.2072C117.257 41.0426 117.446 40.1021 118.008 39.3858C118.57 38.6598 119.534 38.188 120.903 37.9705C122.281 37.7514 123.349 37.9 124.108 38.4162C124.875 38.9211 125.351 39.7559 125.536 40.9205C125.723 42.0948 125.534 43.0401 124.972 43.7565C124.409 44.4728 123.434 44.9413 122.046 45.1619ZM121.729 43.1675C122.175 43.0965 122.476 42.9195 122.629 42.6363C122.793 42.3515 122.83 41.9277 122.741 41.3648C122.653 40.8117 122.487 40.4251 122.243 40.2052C122.007 39.974 121.666 39.8939 121.22 39.9649C120.783 40.0343 120.488 40.2154 120.336 40.5083C120.182 40.7915 120.149 41.2097 120.237 41.7629C120.326 42.3258 120.488 42.7179 120.722 42.9394C120.957 43.1609 121.292 43.2369 121.729 43.1675Z" fill="#1A1A1A"/>
<path id="[Copy] Speak to one of our travel specialists_14" d="M129.557 44.2778C128.743 44.3286 128.091 44.1379 127.601 43.7057C127.112 43.2735 126.839 42.6112 126.783 41.7187L126.509 37.3199L129.275 37.1473L129.535 41.3254C129.573 41.9335 129.901 42.2183 130.519 42.1797C130.745 42.1656 130.962 42.1028 131.172 41.9913C131.382 41.8797 131.546 41.7464 131.664 41.5914L131.378 37.016L134.144 36.8434L134.579 43.8168L131.99 43.9783L131.883 43.4533C131.621 43.6666 131.293 43.8495 130.899 44.0021C130.514 44.1541 130.067 44.246 129.557 44.2778Z" fill="#1A1A1A"/>
<path id="[Copy] Speak to one of our travel specialists_15" d="M135.849 43.8442L135.977 36.8585L138.644 36.9074L138.708 37.4688C138.996 37.307 139.362 37.1614 139.807 37.0319C140.251 36.9025 140.7 36.8272 141.152 36.806L141.114 38.8693C140.859 38.8843 140.578 38.9135 140.273 38.957C139.977 39.0008 139.686 39.0593 139.4 39.1327C139.123 39.1964 138.891 39.2708 138.703 39.3558L138.619 43.895L135.849 43.8442Z" fill="#1A1A1A"/>
<path id="[Copy] Speak to one of our travel specialists_16" d="M148.914 44.8298C147.989 44.705 147.349 44.3806 146.993 43.8567C146.637 43.3328 146.513 42.6715 146.621 41.8729L146.95 39.4334L146.044 39.3112L146.318 37.2807L147.224 37.4029L147.415 35.9859L150.25 35.699L149.97 37.7733L151.563 37.9881L151.187 40.0048L149.696 39.8038L149.395 42.0389C149.356 42.331 149.4 42.5502 149.529 42.6966C149.66 42.8331 149.876 42.9218 150.178 42.9625C150.46 43.0006 150.754 42.9906 151.059 42.9327L150.813 44.7587C150.268 44.9033 149.635 44.927 148.914 44.8298Z" fill="#1A1A1A"/>
<path id="[Copy] Speak to one of our travel specialists_17" d="M152.89 45.256L154.276 38.4079L156.891 38.9368L156.852 39.5005C157.164 39.3932 157.551 39.316 158.012 39.2689C158.472 39.2217 158.927 39.2285 159.376 39.2892L158.967 41.3119C158.712 41.2805 158.431 41.2587 158.123 41.2464C157.824 41.2361 157.527 41.2413 157.232 41.2618C156.949 41.2747 156.707 41.3059 156.507 41.3556L155.606 45.8055L152.89 45.256Z" fill="#1A1A1A"/>
<path id="[Copy] Speak to one of our travel specialists_18" d="M161.218 47.2809C160.793 47.1587 160.418 46.969 160.094 46.7119C159.778 46.4575 159.558 46.1385 159.433 45.755C159.308 45.3714 159.317 44.934 159.458 44.443C159.662 43.7347 160.056 43.2549 160.639 43.0036C161.225 42.7428 161.995 42.7497 162.949 43.0242L164.692 43.5256L164.728 43.3981C164.804 43.1337 164.752 42.9088 164.57 42.7235C164.388 42.5383 164.023 42.3668 163.475 42.2092C162.701 41.9864 161.902 41.8843 161.079 41.903L161.539 40.3023C161.917 40.2679 162.373 40.2816 162.908 40.3434C163.445 40.3957 163.978 40.4979 164.507 40.6501C165.574 40.9572 166.357 41.4176 166.855 42.0314C167.353 42.6451 167.466 43.4242 167.195 44.3686L166.004 48.5049L163.681 47.8363L163.709 47.2614C163.413 47.4012 163.058 47.4781 162.645 47.4922C162.242 47.509 161.766 47.4386 161.218 47.2809ZM162.573 45.9836C162.875 46.0706 163.145 46.092 163.383 46.0479C163.63 46.0066 163.846 45.9307 164.031 45.8204L164.272 44.9846L162.983 44.6137C162.397 44.4452 162.038 44.5923 161.905 45.055C161.774 45.5083 161.997 45.8179 162.573 45.9836Z" fill="#1A1A1A"/>
<path id="[Copy] Speak to one of our travel specialists_19" d="M169.051 49.6021L169.077 42.0912L171.761 43.1607L171.477 47.4584L174.226 44.1428L176.91 45.2123L171.763 50.6825L169.051 49.6021Z" fill="#1A1A1A"/>
<path id="[Copy] Speak to one of our travel specialists_20" d="M180.85 55.0946C180.125 54.72 179.544 54.2704 179.108 53.7459C178.684 53.2172 178.439 52.6315 178.373 51.9889C178.316 51.3509 178.47 50.6783 178.835 49.9712C179.345 48.9848 180.031 48.3436 180.892 48.0476C181.758 47.7429 182.745 47.8771 183.853 48.4502C184.866 48.9737 185.523 49.6397 185.824 50.4481C186.134 51.2609 186.058 52.1126 185.598 53.003L185.036 54.0897L180.728 51.8625C180.67 52.2529 180.771 52.6037 181.031 52.9149C181.29 53.226 181.704 53.5283 182.271 53.8216C182.629 54.0067 183.003 54.1612 183.392 54.2851C183.795 54.4048 184.128 54.4774 184.391 54.503L183.626 55.9826C182.866 55.9547 181.941 55.6587 180.85 55.0946ZM181.419 50.527L183.606 51.6575L183.721 51.4349C183.847 51.1905 183.872 50.9491 183.796 50.7107C183.729 50.4769 183.504 50.2607 183.119 50.0621C182.692 49.841 182.343 49.7769 182.074 49.87C181.818 49.9588 181.599 50.1778 181.419 50.527Z" fill="#1A1A1A"/>
<path id="[Copy] Speak to one of our travel specialists_21" d="M186.205 58.2214C185.478 57.7705 185.057 57.2948 184.939 56.7941C184.822 56.2934 184.968 55.7133 185.378 55.0537L189.505 48.4034L191.86 49.8647L187.896 56.252C187.782 56.4357 187.741 56.5843 187.775 56.6977C187.814 56.8028 187.913 56.9046 188.071 57.003C188.18 57.0704 188.289 57.1268 188.4 57.1723C188.519 57.223 188.635 57.2601 188.747 57.2837L187.776 58.8492C187.507 58.798 187.255 58.7285 187.02 58.6407C186.794 58.558 186.522 58.4183 186.205 58.2214Z" fill="#1A1A1A"/>
<path id="[Copy] Speak to one of our travel specialists_22" d="M194.548 64.1175C194.077 63.7471 193.66 63.3631 193.298 62.9657C192.937 62.582 192.676 62.2458 192.515 61.9571L193.745 60.3926C193.918 60.7288 194.163 61.0774 194.479 61.4384C194.803 61.8055 195.096 62.0923 195.359 62.2988C195.637 62.5174 195.852 62.6737 196.003 62.7675C196.162 62.8675 196.287 62.8595 196.378 62.7436C196.481 62.6123 196.433 62.4116 196.233 62.1417C196.032 61.8718 195.791 61.5193 195.508 61.0843C195.145 60.5119 194.934 60.0088 194.875 59.5749C194.816 59.1411 194.966 58.6963 195.324 58.2405C195.756 57.6919 196.303 57.4409 196.966 57.4874C197.636 57.5262 198.434 57.91 199.361 58.6387C199.717 58.9181 200.062 59.2336 200.398 59.5852C200.734 59.9369 200.983 60.2325 201.145 60.4721L199.942 62.0018C199.79 61.7192 199.592 61.4454 199.351 61.1804C199.117 60.9215 198.888 60.704 198.664 60.5278C198.416 60.3335 198.187 60.172 197.976 60.0434C197.764 59.9147 197.616 59.9045 197.531 60.0126C197.434 60.1363 197.472 60.3101 197.646 60.5342C197.828 60.7644 198.058 61.0832 198.338 61.4906C198.658 61.9422 198.876 62.3324 198.993 62.6614C199.117 62.9964 199.143 63.3047 199.072 63.5862C199.008 63.8737 198.855 64.172 198.612 64.481C198.175 65.0373 197.607 65.2908 196.908 65.2415C196.223 65.1906 195.437 64.8159 194.548 64.1175Z" fill="#1A1A1A"/>
<path id="[Copy] Speak to one of our travel specialists_23" d="M195.503 68.7484L202.439 61.3089L204.196 62.9472L203.911 63.4474C204.274 63.4764 204.618 63.5617 204.942 63.7032C205.281 63.8443 205.616 64.069 205.946 64.3772C206.708 65.0875 207.113 65.8277 207.161 66.5978C207.223 67.3674 206.825 68.2122 205.967 69.1323C205.116 70.0451 204.25 70.5344 203.37 70.6001C202.489 70.6657 201.664 70.34 200.895 69.6231C200.384 69.1473 200.044 68.6482 199.872 68.1258L197.53 70.638L195.503 68.7484ZM201.754 67.6635C202.049 67.9382 202.373 68.0451 202.725 67.984C203.077 67.923 203.458 67.6733 203.867 67.2348C204.262 66.8107 204.455 66.4528 204.445 66.1612C204.441 65.8762 204.289 65.593 203.987 65.3116C203.685 65.0301 203.325 64.8828 202.908 64.8697L201.219 66.681C201.254 66.8745 201.309 67.0464 201.383 67.1967C201.458 67.3471 201.582 67.5027 201.754 67.6635Z" fill="#1A1A1A"/>
<path id="[Copy] Speak to one of our travel specialists_24" d="M207.401 76.4485C206.86 75.8384 206.479 75.2101 206.26 74.5636C206.055 73.9179 206.037 73.2834 206.207 72.6601C206.383 72.0441 206.769 71.4719 207.364 70.9436C208.194 70.2066 209.065 69.8547 209.975 69.8881C210.892 69.915 211.765 70.3952 212.593 71.3287C213.35 72.1813 213.723 73.0389 213.713 73.9015C213.71 74.7714 213.334 75.539 212.584 76.2043L211.669 77.0163L208.45 73.3891C208.256 73.7325 208.223 74.096 208.354 74.4797C208.484 74.8633 208.761 75.294 209.185 75.7718C209.452 76.0731 209.746 76.3517 210.064 76.6074C210.397 76.8639 210.682 77.0514 210.918 77.17L209.673 78.2755C208.973 77.9762 208.216 77.3672 207.401 76.4485ZM209.575 72.3911L211.209 74.2323L211.396 74.066C211.602 73.8834 211.712 73.6672 211.727 73.4175C211.748 73.1751 211.616 72.8923 211.329 72.5689C211.009 72.2087 210.707 72.0236 210.422 72.0136C210.151 72.0044 209.869 72.1302 209.575 72.3911Z" fill="#1A1A1A"/>
<path id="[Copy] Speak to one of our travel specialists_25" d="M212.197 82.5265C211.445 81.5059 211.092 80.5212 211.137 79.5723C211.19 78.6175 211.708 77.7788 212.689 77.056C213.353 76.5664 214.005 76.2997 214.644 76.2561C215.283 76.2124 215.889 76.364 216.462 76.7109C217.043 77.0519 217.578 77.5547 218.068 78.2193C218.377 78.6386 218.622 79.0377 218.804 79.4166C218.993 79.7897 219.127 80.179 219.206 80.5846L217.64 81.7387C217.517 81.1087 217.238 80.497 216.801 79.9037C216.427 79.3973 216.05 79.0836 215.668 78.9624C215.291 78.8491 214.858 78.9731 214.367 79.3345C213.908 79.6726 213.666 80.04 213.641 80.4368C213.616 80.8336 213.799 81.2971 214.19 81.8271C214.4 82.112 214.635 82.3655 214.897 82.5879C215.166 82.8044 215.454 82.9887 215.762 83.1407L214.124 84.3473C213.768 84.1457 213.434 83.8913 213.122 83.584C212.808 83.2904 212.5 82.9379 212.197 82.5265Z" fill="#1A1A1A"/>
<path id="[Copy] Speak to one of our travel specialists_26" d="M221.526 81.8439L223.218 80.7692L224.822 83.2951L223.13 84.3698L221.526 81.8439ZM214.963 86.2741L219.156 83.611L218.611 82.7524L220.442 81.8689L222.346 84.8677L216.448 88.6134L214.963 86.2741Z" fill="#1A1A1A"/>
<path id="[Copy] Speak to one of our travel specialists_27" d="M218.412 92.2915C218.205 91.9012 218.08 91.4999 218.039 91.0877C218.002 90.6842 218.078 90.3042 218.267 89.9477C218.456 89.5912 218.775 89.2929 219.227 89.0528C219.877 88.7065 220.496 88.6556 221.082 88.9C221.677 89.1398 222.208 89.6978 222.675 90.5739L223.526 92.1744L223.643 92.1121C223.886 91.9828 224.011 91.7884 224.018 91.5288C224.024 91.2693 223.894 90.888 223.626 90.3848C223.247 89.6735 222.765 89.0286 222.179 88.4501L223.649 87.6675C223.937 87.9151 224.244 88.2524 224.572 88.6792C224.908 89.1015 225.205 89.5555 225.463 90.0413C225.985 91.0215 226.199 91.9041 226.105 92.689C226.01 93.4739 225.529 94.0972 224.662 94.5589L220.863 96.5813L219.727 94.4473L220.159 94.067C219.853 93.9517 219.551 93.7506 219.253 93.4637C218.96 93.1854 218.68 92.7947 218.412 92.2915ZM220.287 92.3625C220.435 92.6401 220.607 92.8489 220.804 92.9889C221.006 93.1377 221.21 93.2401 221.418 93.2964L222.186 92.8878L221.556 91.7037C221.27 91.1659 220.914 91.0101 220.489 91.2363C220.073 91.4579 220.005 91.8333 220.287 92.3625Z" fill="#1A1A1A"/>
<path id="[Copy] Speak to one of our travel specialists_28" d="M222.294 100.204C221.948 99.4214 221.869 98.7906 222.055 98.3112C222.24 97.8318 222.688 97.4353 223.399 97.1218L230.559 93.9613L231.678 96.4966L224.801 99.532C224.603 99.6193 224.486 99.7193 224.45 99.832C224.423 99.9407 224.447 100.08 224.522 100.251C224.574 100.368 224.632 100.476 224.698 100.576C224.767 100.685 224.842 100.781 224.922 100.864L223.236 101.608C223.043 101.414 222.874 101.215 222.73 101.01C222.59 100.814 222.444 100.545 222.294 100.204Z" fill="#1A1A1A"/>
<path id="[Copy] Speak to one of our travel specialists_29" d="M231.176 100.572L233.055 99.8726L234.099 102.677L232.22 103.376L231.176 100.572ZM223.836 103.542L228.491 101.808L228.136 100.855L230.11 100.371L231.35 103.7L224.803 106.139L223.836 103.542Z" fill="#1A1A1A"/>
<path id="[Copy] Speak to one of our travel specialists_30" d="M226.088 110.59C225.914 110.016 225.793 109.462 225.725 108.929C225.649 108.407 225.629 107.983 225.663 107.654L227.568 107.079C227.517 107.454 227.517 107.879 227.569 108.357C227.623 108.843 227.699 109.246 227.796 109.566C227.898 109.905 227.984 110.156 228.054 110.32C228.127 110.493 228.234 110.558 228.375 110.515C228.535 110.467 228.61 110.275 228.601 109.939C228.592 109.603 228.596 109.176 228.614 108.657C228.646 107.98 228.762 107.447 228.963 107.058C229.164 106.669 229.542 106.391 230.097 106.223C230.765 106.021 231.357 106.13 231.873 106.549C232.399 106.965 232.833 107.737 233.174 108.866C233.304 109.299 233.406 109.756 233.479 110.237C233.553 110.718 233.587 111.102 233.582 111.391L231.719 111.954C231.756 111.635 231.752 111.297 231.706 110.941C231.663 110.595 231.6 110.286 231.518 110.013C231.427 109.712 231.332 109.448 231.233 109.221C231.134 108.995 231.018 108.901 230.886 108.941C230.736 108.986 230.667 109.151 230.681 109.434C230.698 109.727 230.704 110.12 230.699 110.614C230.702 111.168 230.656 111.613 230.563 111.949C230.472 112.294 230.317 112.562 230.097 112.751C229.88 112.95 229.583 113.107 229.207 113.22C228.529 113.425 227.919 113.306 227.375 112.865C226.843 112.43 226.414 111.672 226.088 110.59Z" fill="#1A1A1A"/>
<path id="[Copy] Speak to one of our travel specialists_31" d="M227.64 116.482C227.435 115.571 227.515 114.858 227.883 114.342C228.25 113.826 228.826 113.479 229.612 113.302L232.013 112.76L231.812 111.868L233.811 111.417L234.012 112.309L235.407 111.994L236.664 114.551L234.622 115.012L234.976 116.579L232.954 116.93L232.623 115.463L230.424 115.959C230.136 116.024 229.946 116.143 229.854 116.315C229.771 116.484 229.764 116.718 229.831 117.015C229.893 117.293 230.005 117.565 230.166 117.831L228.368 118.236C228.043 117.776 227.8 117.191 227.64 116.482Z" fill="#1A1A1A"/>
<path id="[Copy] Speak to one of our travel specialists_32" d="M228.956 123.453C228.867 122.86 228.826 122.295 228.834 121.757C228.834 121.23 228.874 120.807 228.955 120.487L230.923 120.189C230.819 120.553 230.758 120.974 230.741 121.454C230.726 121.943 230.743 122.353 230.793 122.683C230.846 123.033 230.895 123.294 230.941 123.466C230.988 123.648 231.085 123.728 231.231 123.705C231.396 123.681 231.498 123.501 231.537 123.167C231.576 122.833 231.641 122.411 231.733 121.9C231.861 121.235 232.052 120.724 232.306 120.368C232.56 120.011 232.974 119.789 233.548 119.703C234.237 119.599 234.808 119.79 235.26 120.279C235.721 120.766 236.039 121.592 236.216 122.758C236.283 123.205 236.319 123.672 236.323 124.158C236.327 124.644 236.306 125.03 236.26 125.316L234.336 125.606C234.418 125.296 234.462 124.961 234.467 124.603C234.474 124.254 234.456 123.938 234.414 123.657C234.367 123.346 234.31 123.071 234.244 122.832C234.178 122.594 234.077 122.485 233.941 122.506C233.786 122.529 233.695 122.682 233.668 122.964C233.643 123.256 233.592 123.647 233.517 124.135C233.441 124.683 233.332 125.117 233.192 125.436C233.053 125.766 232.861 126.008 232.616 126.164C232.373 126.33 232.057 126.443 231.668 126.502C230.969 126.607 230.381 126.403 229.906 125.889C229.442 125.382 229.125 124.57 228.956 123.453Z" fill="#1A1A1A"/>
</g>
</g>
<defs>
<filter id="filter0_d_2390_38333" x="0.371727" y="0.497704" width="273.257" height="273.257" filterUnits="userSpaceOnUse" color-interpolation-filters="sRGB">
<feFlood flood-opacity="0" result="BackgroundImageFix"/>
<feColorMatrix in="SourceAlpha" type="matrix" values="0 0 0 0 0 0 0 0 0 0 0 0 0 0 0 0 0 0 127 0" result="hardAlpha"/>
<feOffset/>
<feGaussianBlur stdDeviation="12.3141"/>
<feComposite in2="hardAlpha" operator="out"/>
<feColorMatrix type="matrix" values="0 0 0 0 1 0 0 0 0 1 0 0 0 0 1 0 0 0 0.25 0"/>
<feBlend mode="normal" in2="BackgroundImageFix" result="effect1_dropShadow_2390_38333"/>
<feBlend mode="normal" in="SourceGraphic" in2="effect1_dropShadow_2390_38333" result="shape"/>
</filter>
<filter id="filter1_b_2390_38333" x="19.1361" y="19.2621" width="235.728" height="235.728" filterUnits="userSpaceOnUse" color-interpolation-filters="sRGB">
<feFlood flood-opacity="0" result="BackgroundImageFix"/>
<feGaussianBlur in="BackgroundImageFix" stdDeviation="2.93194"/>
<feComposite in2="SourceAlpha" operator="in" result="effect1_backgroundBlur_2390_38333"/>
<feBlend mode="normal" in="SourceGraphic" in2="effect1_backgroundBlur_2390_38333" result="shape"/>
</filter>
<clipPath id="clip0_2390_38333">
<rect width="224" height="224" fill="white" transform="translate(25 25.126)"/>
</clipPath>
</defs>
</svg>
