<svg width="20" height="18" viewBox="0 0 20 18" fill="none" xmlns="http://www.w3.org/2000/svg">
<g id="Group">
<path id="Vector" d="M2.10642 1.26004C-0.31471 3.19809 -0.706341 6.73191 1.23172 9.15304C1.36019 9.31353 1.49737 9.46685 1.64265 9.61231L9.99942 17.9728L11.5428 8.78501L9.99942 2.13474C8.06137 -0.286389 4.52756 -0.67802 2.10642 1.26004Z" fill="#1D1D1D"/>
<path id="Vector_2" d="M18.3523 1.6724C16.0189 -0.689978 12.0576 -0.466724 9.99805 2.13417V17.9723L18.3548 9.61548C20.5476 7.42136 20.5464 3.86511 18.3523 1.6724Z" fill="#1D1D1D"/>
<path id="Vector_3" d="M7.28125 5.57517H8.108V11.1628H9.35895V4.32422H7.28125V5.57517Z" fill="white"/>
<path id="Vector_4" d="M14.0612 7.42146C14.329 7.09704 14.49 6.68143 14.49 6.22897C14.49 5.1943 13.6482 4.35254 12.6135 4.35254C11.5789 4.35254 10.7371 5.1943 10.7371 6.22897C10.7371 6.68148 10.8981 7.09704 11.1658 7.42146C10.6917 7.82943 10.3906 8.4331 10.3906 9.10615C10.3906 10.3319 11.3878 11.3291 12.6135 11.3291C13.8392 11.3291 14.8364 10.3319 14.8364 9.10615C14.8364 8.4331 14.5354 7.82939 14.0612 7.42146ZM12.6135 5.60349C12.9584 5.60349 13.239 5.88408 13.239 6.22897C13.239 6.57385 12.9584 6.85444 12.6135 6.85444C12.2686 6.85444 11.988 6.57385 11.988 6.22897C11.988 5.88408 12.2686 5.60349 12.6135 5.60349ZM12.6135 10.0781C12.0776 10.0781 11.6416 9.64206 11.6416 9.10611C11.6416 8.57016 12.0776 8.13416 12.6135 8.13416C13.1494 8.13416 13.5855 8.57016 13.5855 9.10611C13.5855 9.64206 13.1495 10.0781 12.6135 10.0781Z" fill="white"/>
<path id="Vector_5" d="M5.85186 6.04688H4.60091V6.96224H3.68555V8.21319H4.60091V9.12851H5.85186V8.21319H6.76718V6.96224H5.85186V6.04688Z" fill="white"/>
</g>
</svg>
