<svg width="20" height="20" viewBox="0 0 20 20" fill="none" xmlns="http://www.w3.org/2000/svg">
<g id="REFUND" clip-path="url(#clip0_3278_55800)">
<circle id="Ellipse 2009" cx="10" cy="10" r="6" fill="white"/>
<g id="Group">
<path id="Vector" d="M10.2301 0.00279315C9.93539 -0.00454018 9.64072 0.00279318 9.34739 0.0221265C7.44472 0.146793 5.64872 0.761459 4.06606 1.95212V1.33079C4.06606 1.15398 3.99582 0.984412 3.8708 0.859388C3.74577 0.734364 3.5762 0.664126 3.39939 0.664126C3.22258 0.664126 3.05301 0.734364 2.92799 0.859388C2.80296 0.984412 2.73273 1.15398 2.73273 1.33079V3.39746C2.73273 3.99146 3.44873 4.28812 3.86939 3.87012C6.94872 0.791459 11.8227 0.472126 15.2767 3.12279C18.7307 5.77345 19.6827 10.5628 17.5067 14.3334C15.3294 18.1041 10.7081 19.6708 6.68539 18.0041C2.66273 16.3374 0.504728 11.9634 1.63206 7.75812C1.65481 7.67346 1.66063 7.58514 1.64917 7.49822C1.63772 7.41131 1.60922 7.32751 1.5653 7.25164C1.52139 7.17577 1.46293 7.10931 1.39327 7.05608C1.32362 7.00285 1.24414 6.9639 1.15939 6.94145C0.988953 6.89509 0.807081 6.91827 0.653712 7.00589C0.500343 7.09351 0.388016 7.23842 0.341395 7.40879C-0.955937 12.2514 1.54206 17.3201 6.17339 19.2394C10.8047 21.1581 16.1527 19.3374 18.6594 14.9974C21.166 10.6574 20.0674 5.11545 16.09 2.06412C14.4061 0.77045 12.3531 0.0482675 10.2301 0.00279315ZM10.0014 3.17746C6.24072 3.17746 3.17473 6.23879 3.17473 9.99878C3.17473 13.7588 6.24139 16.8241 10.0014 16.8241C13.7614 16.8241 16.8214 13.7581 16.8214 9.99878C16.8214 6.23945 13.7614 3.17746 10.0014 3.17746ZM10.0014 5.81012C10.0889 5.81047 10.1756 5.82806 10.2563 5.86189C10.3371 5.89571 10.4104 5.94511 10.472 6.00727C10.5337 6.06942 10.5825 6.14311 10.6157 6.22413C10.6488 6.30515 10.6657 6.3919 10.6654 6.47945V6.58212C11.3321 6.67279 11.9034 7.08612 12.2067 7.66145C12.2889 7.81819 12.3055 8.00118 12.2528 8.17015C12.2001 8.33912 12.0825 8.48023 11.9257 8.56245C11.769 8.64467 11.586 8.66125 11.417 8.60855C11.248 8.55586 11.1069 8.43819 11.0247 8.28145C10.9648 8.16486 10.8737 8.06721 10.7615 7.9994C10.6493 7.9316 10.5205 7.8963 10.3894 7.89745H9.76939C9.36005 7.89745 9.05072 8.20678 9.05072 8.61612C9.05072 9.02545 9.36005 9.33478 9.76939 9.33478H10.2321C11.3574 9.33478 12.2787 10.2621 12.2787 11.3868C12.2768 11.8541 12.1161 12.3069 11.8229 12.6708C11.5298 13.0347 11.1216 13.2881 10.6654 13.3894V13.5221C10.6654 13.6991 10.5951 13.8688 10.4699 13.994C10.3448 14.1191 10.175 14.1894 9.99805 14.1894C9.82106 14.1894 9.65133 14.1191 9.52618 13.994C9.40103 13.8688 9.33072 13.6991 9.33072 13.5221V13.4181C9.00726 13.3732 8.69907 13.2522 8.43147 13.0651C8.16387 12.8779 7.9445 12.6299 7.79139 12.3414C7.74775 12.2636 7.72014 12.1779 7.71022 12.0892C7.70029 12.0006 7.70823 11.9109 7.73358 11.8253C7.75893 11.7398 7.80116 11.6602 7.85779 11.5913C7.91442 11.5224 7.98429 11.4655 8.06328 11.4241C8.14227 11.3826 8.22876 11.3574 8.31765 11.35C8.40654 11.3425 8.49603 11.353 8.58081 11.3807C8.66559 11.4084 8.74396 11.4528 8.81127 11.5114C8.87859 11.5699 8.93349 11.6413 8.97272 11.7214C9.09205 11.9488 9.32739 12.1041 9.61205 12.1041H10.2321C10.6421 12.1041 10.9454 11.7961 10.9454 11.3868C10.9454 10.9774 10.6421 10.6681 10.2321 10.6681H9.76939C9.22603 10.6653 8.70572 10.4482 8.3215 10.064C7.93728 9.67978 7.72019 9.15948 7.71739 8.61612C7.71739 7.64212 8.41339 6.81879 9.33072 6.61479V6.47945C9.33037 6.39134 9.34748 6.30404 9.38108 6.22258C9.41467 6.14113 9.46408 6.06714 9.52645 6.0049C9.58881 5.94266 9.6629 5.8934 9.74442 5.85997C9.82594 5.82653 9.91328 5.80959 10.0014 5.81012Z" fill="#1D1D1D"/>
</g>
</g>
<defs>
<clipPath id="clip0_3278_55800">
<rect width="20" height="20" fill="white"/>
</clipPath>
</defs>
</svg>
