<svg width="20" height="20" viewBox="0 0 20 20" fill="none" xmlns="http://www.w3.org/2000/svg">
<g id="CAR">
<path id="Rectangle 34625020" d="M5.5 4.5H15.5L17.75 13H2.25L5.5 4.5Z" fill="white"/>
<g id="Group">
<path id="Vector" d="M19.8611 7.34943C19.8136 7.21103 19.6451 7.10339 19.5044 7.10339H17.6769C17.5363 7.10339 17.3677 7.21103 17.3201 7.34943C17.2736 7.48489 17.2389 7.60576 17.2158 7.71943L15.995 4.34219C15.7937 3.78529 15.2604 3.41113 14.6683 3.41113H5.33174C4.73957 3.41113 4.20644 3.78529 4.00499 4.34229L2.78421 7.71983C2.76105 7.60606 2.72628 7.48504 2.67971 7.34943C2.63217 7.21103 2.46362 7.10339 2.32299 7.10339H0.495486C0.354854 7.10339 0.186299 7.21103 0.138763 7.34943C-0.0463134 7.88829 -0.0462121 8.19677 0.138814 8.73568C0.18635 8.87408 0.354905 8.98172 0.495537 8.98172H2.32304C2.32476 8.98172 2.32659 8.98126 2.32836 8.98121L2.30079 9.05758C1.92815 9.18139 1.65911 9.53218 1.65911 9.94643V16.1371C1.6591 16.1962 1.67074 16.2548 1.69337 16.3094C1.71601 16.3641 1.74918 16.4137 1.791 16.4555C1.83282 16.4974 1.88248 16.5305 1.93712 16.5532C1.99177 16.5758 2.05033 16.5874 2.10948 16.5874H4.37616C4.49561 16.5874 4.61016 16.54 4.69462 16.4555C4.77908 16.3711 4.82653 16.2565 4.82653 16.1371V13.9446H15.1735V16.1371C15.1735 16.2565 15.2209 16.3711 15.3054 16.4555C15.3898 16.54 15.5044 16.5874 15.6239 16.5874H17.8905C17.9497 16.5874 18.0082 16.5758 18.0629 16.5532C18.1175 16.5305 18.1672 16.4974 18.209 16.4555C18.2508 16.4137 18.284 16.3641 18.3066 16.3094C18.3293 16.2548 18.3409 16.1962 18.3409 16.1371V9.94643C18.3409 9.53228 18.072 9.18154 17.6995 9.05763L17.6719 8.98121C17.6735 8.98126 17.6753 8.98167 17.677 8.98167H19.5045C19.6452 8.98167 19.8137 8.87403 19.8612 8.73563C20.0462 8.19677 20.0461 7.88829 19.8611 7.34943ZM5.5042 5.06851H14.4946L15.9191 9.00934H4.07979L5.5042 5.06851ZM5.75496 11.7855H3.85869C3.45184 11.7855 3.12208 11.4558 3.12208 11.0489C3.12208 10.6421 3.45179 10.3123 3.85869 10.3123H5.75496C6.16175 10.3123 6.49156 10.6421 6.49156 11.0489C6.49161 11.4558 6.16175 11.7855 5.75496 11.7855ZM16.1412 11.7855H14.2449C13.8381 11.7855 13.5083 11.4558 13.5083 11.0489C13.5083 10.6421 13.8381 10.3123 14.2449 10.3123H16.1412C16.548 10.3123 16.8778 10.6421 16.8778 11.0489C16.8778 11.4558 16.548 11.7855 16.1412 11.7855Z" fill="#1D1D1D"/>
</g>
</g>
</svg>
