<svg width="20" height="20" viewBox="0 0 20 20" fill="none" xmlns="http://www.w3.org/2000/svg">
<g id="Group">
<path id="Vector" d="M17.845 1.25488H2.15492C0.96668 1.25488 0 2.2216 0 3.40984V5.60645C0 5.93004 0.262344 6.19238 0.585938 6.19238H19.4141C19.7377 6.19238 20 5.93004 20 5.60645V3.40984C20 2.2216 19.0333 1.25488 17.845 1.25488Z" fill="#1D1D1D"/>
<path id="Vector_2" d="M16.6683 2.5H3.33168C2.32168 2.5 1.5 3.08737 1.5 3.80934V5.14399C1.5 5.3406 1.72299 5.5 1.99805 5.5H18.002C18.277 5.5 18.5 5.3406 18.5 5.14399V3.80934C18.5 3.08737 17.6783 2.5 16.6683 2.5Z" fill="#F0F7FF"/>
<path id="Vector_3" d="M8.11715 3.6823C7.79355 3.6823 7.53121 3.41996 7.53121 3.09637V0.585938C7.53121 0.262344 7.79355 0 8.11715 0C8.44074 0 8.70309 0.262344 8.70309 0.585938V3.09637C8.70309 3.41996 8.44074 3.6823 8.11715 3.6823ZM4.35156 3.6823C4.02797 3.6823 3.76562 3.41996 3.76562 3.09637V0.585938C3.76562 0.262344 4.02797 0 4.35156 0C4.67516 0 4.9375 0.262344 4.9375 0.585938V3.09637C4.9375 3.41996 4.6752 3.6823 4.35156 3.6823Z" fill="#1D1D1D"/>
<path id="Vector_4" d="M15.6485 3.6823C15.3249 3.6823 15.0625 3.41996 15.0625 3.09637V0.585938C15.0625 0.262344 15.3249 0 15.6485 0C15.9721 0 16.2344 0.262344 16.2344 0.585938V3.09637C16.2344 3.41996 15.9721 3.6823 15.6485 3.6823ZM11.8828 3.6823C11.5592 3.6823 11.2969 3.41996 11.2969 3.09637V0.585938C11.2969 0.262344 11.5592 0 11.8828 0C12.2064 0 12.4688 0.262344 12.4688 0.585938V3.09637C12.4688 3.41996 12.2064 3.6823 11.8828 3.6823Z" fill="#1D1D1D"/>
<path id="Vector_5" d="M0 5.5V17.7383C0 18.9265 0.96668 19.8932 2.15492 19.8932H17.845C19.0333 19.8932 20 18.9265 20 17.7383V5.5H0Z" fill="#1D1D1D"/>
<path id="Vector_6" d="M5.92059 11.8405H3.41016C3.08656 11.8405 2.82422 11.5781 2.82422 11.2545V8.74414C2.82422 8.42055 3.08656 8.1582 3.41016 8.1582H5.92062C6.24422 8.1582 6.50656 8.42055 6.50656 8.74414V11.2545C6.50652 11.5781 6.24422 11.8405 5.92059 11.8405ZM3.99609 10.6686H5.33469V9.33008H3.99609V10.6686Z" fill="#F0F7FF"/>
<path id="Vector_7" d="M16.5885 11.8405H14.0781C13.7545 11.8405 13.4922 11.5781 13.4922 11.2545V8.74414C13.4922 8.42055 13.7545 8.1582 14.0781 8.1582H16.5885C16.9121 8.1582 17.1745 8.42055 17.1745 8.74414V11.2545C17.1745 11.5781 16.9121 11.8405 16.5885 11.8405ZM14.6641 10.6686H16.0026V9.33008H14.6641V10.6686Z" fill="#F0F7FF"/>
<path id="Vector_8" d="M5.92059 16.862H3.41016C3.08656 16.862 2.82422 16.5996 2.82422 16.276V13.7656C2.82422 13.442 3.08656 13.1797 3.41016 13.1797H5.92062C6.24422 13.1797 6.50656 13.442 6.50656 13.7656V16.276C6.50652 16.5996 6.24422 16.862 5.92059 16.862ZM3.99609 15.6901H5.33469V14.3516H3.99609V15.6901Z" fill="#F0F7FF"/>
<path id="Vector_9" d="M16.5885 16.862H14.0781C13.7545 16.862 13.4922 16.5996 13.4922 16.276V13.7656C13.4922 13.442 13.7545 13.1797 14.0781 13.1797H16.5885C16.9121 13.1797 17.1745 13.442 17.1745 13.7656V16.276C17.1745 16.5996 16.9121 16.862 16.5885 16.862ZM14.6641 15.6901H16.0026V14.3516H14.6641V15.6901Z" fill="#F0F7FF"/>
<path id="Vector_10" d="M11.2546 16.862H8.74414C8.42055 16.862 8.1582 16.5996 8.1582 16.276V13.7656C8.1582 13.442 8.42055 13.1797 8.74414 13.1797H11.2546C11.5782 13.1797 11.8405 13.442 11.8405 13.7656V16.276C11.8405 16.5996 11.5782 16.862 11.2546 16.862ZM9.33008 15.6901H10.6687V14.3516H9.33008V15.6901Z" fill="#F0F7FF"/>
<path id="Vector_11" d="M9.55557 11.4734C9.40014 11.4734 9.25111 11.4117 9.14127 11.3018L8.25365 10.4142C8.02482 10.1854 8.02482 9.81436 8.25365 9.58553C8.48244 9.35674 8.85346 9.35674 9.08229 9.58553L9.55557 10.0588L10.9163 8.69799C11.1451 8.4692 11.5161 8.46912 11.7449 8.69799C11.9738 8.92678 11.9738 9.29775 11.7449 9.52662L9.9699 11.3017C9.9155 11.3562 9.85091 11.3993 9.77982 11.4288C9.70872 11.4583 9.63252 11.4734 9.55557 11.4734Z" fill="#F0F7FF"/>
</g>
</svg>
