<svg width="20" height="20" viewBox="0 0 20 20" fill="none" xmlns="http://www.w3.org/2000/svg">
<g id="Group">
<path id="Vector" d="M19.5012 13.0793C19.4992 13.0805 16.8621 15.0055 15.5723 15.932C15.2645 16.1531 14.9805 16.3363 14.7152 16.4887C13.95 16.9289 13.0805 17.1547 12.1977 17.1547H6.2207L4.07617 13.4816L5.49805 12.9281C6.11094 11.6789 7.3957 10.8184 8.88125 10.8184C9.7168 10.8184 10.4887 11.0906 11.1133 11.5512C11.2949 11.6852 11.4645 11.8352 11.6191 11.9988H13.9039C14.3234 11.9988 14.6812 12.3238 14.6984 12.743C14.7168 13.1848 14.3637 13.552 13.9227 13.552H10.9211C10.598 13.552 10.3352 13.8137 10.3352 14.1379C10.3352 14.4617 10.5977 14.7238 10.9211 14.7238H13.7277C14.1359 14.7238 14.527 14.6105 14.8641 14.3984C14.9507 14.3443 15.0332 14.2839 15.1109 14.2176C15.2812 14.0945 17.425 12.55 18.5414 11.7457C18.9094 11.4805 19.4227 11.5637 19.6879 11.932C19.9535 12.3004 19.8699 12.8145 19.5012 13.0793Z" fill="#1D1D1D"/>
<path id="Vector_2" d="M16.6195 4.94766C16.6195 7.67578 14.4004 9.89531 11.6723 9.89531C8.94414 9.89531 6.72461 7.67578 6.72461 4.94766C6.72461 2.21953 8.94414 0 11.6723 0C14.4004 0 16.6195 2.21953 16.6195 4.94766Z" fill="#1D1D1D"/>
<path id="Vector_3" d="M13.4836 6.32402V6.32949C13.4863 6.74277 13.3281 7.13262 13.0375 7.42676C12.8219 7.64512 12.5523 7.7916 12.2586 7.85332V7.99043C12.2586 8.31426 11.9961 8.57637 11.6727 8.57637C11.3488 8.57637 11.0867 8.31426 11.0867 7.99043V7.85527C10.8008 7.79434 10.5379 7.65371 10.3254 7.44356C10.0312 7.15332 9.86797 6.76582 9.86563 6.35254C9.86367 6.0291 10.1242 5.76504 10.4477 5.76309H10.4516C10.7734 5.76309 11.0355 6.02324 11.0375 6.34551C11.0376 6.39477 11.0474 6.44354 11.0665 6.48894C11.0857 6.53435 11.1136 6.57549 11.1488 6.60996C11.1835 6.6444 11.2245 6.67169 11.2697 6.69025C11.3149 6.70882 11.3633 6.7183 11.4121 6.71816H11.4145L11.6727 6.7166L11.9391 6.71504C11.9884 6.71483 12.0372 6.70485 12.0827 6.68568C12.1281 6.6665 12.1693 6.63851 12.2039 6.60332C12.2386 6.56832 12.266 6.52679 12.2845 6.48112C12.303 6.43546 12.3122 6.38657 12.3117 6.33731V6.33184C12.3109 6.21465 12.2543 6.10293 12.1598 6.03301L11.6727 5.67246L10.4879 4.7959C10.0957 4.50527 9.86133 4.04043 9.86133 3.55254C9.86133 2.80957 10.3875 2.18809 11.0867 2.03965V1.90527C11.0867 1.58145 11.3488 1.31934 11.6727 1.31934C11.9961 1.31934 12.2586 1.58145 12.2586 1.90527V2.04043C12.9559 2.19004 13.4805 2.81113 13.4805 3.55254C13.4805 3.87598 13.218 4.13848 12.8945 4.13848C12.5707 4.13848 12.3086 3.87598 12.3086 3.55254C12.3086 3.3459 12.1402 3.17754 11.9336 3.17754H11.4082C11.2016 3.17754 11.0332 3.3459 11.0332 3.55254C11.0333 3.61111 11.0471 3.66886 11.0734 3.72115C11.0998 3.77345 11.1381 3.81885 11.1852 3.85371L11.6727 4.21465L12.857 5.09121C13.2461 5.3791 13.4805 5.83965 13.4836 6.32402Z" fill="#F0F7FF"/>
<path id="Vector_4" d="M6.55032 18.3353L3.79415 19.9267C3.7114 19.9746 3.61749 19.9999 3.52189 19.9999C3.33298 19.9999 3.1495 19.902 3.04833 19.7269L0.231377 14.8479C0.0806741 14.5866 0.170244 14.2528 0.431221 14.1017L3.18739 12.5107C3.24947 12.4748 3.318 12.4516 3.38907 12.4422C3.46014 12.4328 3.53236 12.4375 3.60161 12.4561C3.67091 12.4746 3.73587 12.5066 3.79277 12.5502C3.84967 12.5939 3.8974 12.6484 3.93321 12.7105L6.75017 17.5895C6.90083 17.8508 6.81165 18.1846 6.55032 18.3353Z" fill="#1D1D1D"/>
</g>
</svg>
