<svg width="32" height="32" viewBox="0 0 32 32" fill="none" xmlns="http://www.w3.org/2000/svg">
<g id="Group">
<path id="Vector" d="M16 32.001C24.8366 32.001 32 24.8376 32 16.001C32 7.16443 24.8366 0.000976562 16 0.000976562C7.16344 0.000976562 0 7.16443 0 16.001C0 24.8376 7.16344 32.001 16 32.001Z" fill="#F96515"/>
<path id="Vector_2" d="M16.3297 18.9335C16.9061 19.5099 16.9061 20.498 16.3297 21.0744L15.1358 22.2683C14.5594 22.8447 13.5713 22.8447 12.9949 22.2683L7.76627 16.9985C7.18989 16.4221 7.18989 15.4341 7.76627 14.8577L8.96021 13.6637C9.53659 13.0873 10.5247 13.0873 11.1011 13.6637L16.3297 18.9335Z" fill="#1D1D1D"/>
<path id="Vector_3" d="M20.8999 9.83463C21.4763 9.25825 22.4644 9.25825 23.0408 9.83463L24.2347 11.0286C24.8111 11.605 24.8111 12.593 24.2347 13.1694L15.1772 22.1857C14.6009 22.7621 13.6128 22.7621 13.0364 22.1857L11.8424 20.9918C11.2661 20.4154 11.2661 19.4273 11.8424 18.8509L20.8999 9.83463Z" fill="#1D1D1D"/>
</g>
</svg>
