<svg width="32" height="32" viewBox="0 0 32 32" fill="none" xmlns="http://www.w3.org/2000/svg">
<g id="Group">
<path id="Vector" d="M22.654 5.625H18.7539V1.65L16.8789 0H2.81641C1.26003 0 0.00390625 1.25619 0.00390625 2.8125V29.1875C0.00390625 30.7437 1.26003 32 2.81641 32H21.5664C23.1228 32 24.3789 30.7437 24.3789 29.1875V7.5L22.654 5.625Z" fill="#F96515"/>
<path id="Vector_2" d="M24.3789 6.1875V7.5H17.8164C17.2913 7.5 16.8789 7.08744 16.8789 6.5625V0H17.8164C17.8727 0 17.9478 0 18.0038 0.01875C18.7914 0.037375 19.4288 0.299937 19.9164 0.749937L23.4977 4.16244C24.0603 4.6875 24.3789 5.41875 24.3789 6.1875Z" fill="#1D1D1D"/>
<path id="Vector_3" d="M15.0039 6.5625C15.0039 7.08744 14.5915 7.5 14.0664 7.5H4.69141C4.16634 7.5 3.75391 7.08744 3.75391 6.5625C3.75391 6.03744 4.16634 5.625 4.69141 5.625H14.0664C14.5915 5.625 15.0039 6.03744 15.0039 6.5625ZM20.6289 12.25C20.6289 12.7749 20.2165 13.1875 19.6914 13.1875H4.69141C4.16634 13.1875 3.75391 12.7749 3.75391 12.25C3.75391 11.7249 4.16634 11.3125 4.69141 11.3125H19.6914C20.2165 11.3125 20.6289 11.7249 20.6289 12.25ZM20.6289 17.875C20.6289 18.3999 20.2165 18.8125 19.6914 18.8125H4.69141C4.16634 18.8125 3.75391 18.3999 3.75391 17.875C3.75391 17.3499 4.16634 16.9375 4.69141 16.9375H19.6914C20.2165 16.9375 20.6289 17.3499 20.6289 17.875ZM15.0039 23.5C15.0039 24.0249 14.5915 24.4375 14.0664 24.4375H4.69141C4.16634 24.4375 3.75391 24.0249 3.75391 23.5C3.75391 22.9749 4.16634 22.5625 4.69141 22.5625H14.0664C14.5915 22.5625 15.0039 22.9749 15.0039 23.5Z" fill="#1D1D1D"/>
<path id="Vector_4" d="M22.2033 22.2992L20.8156 21.1367L18.8469 21.8867L18.8281 21.9053L18.5281 22.2803C18.2468 22.6178 18.0593 22.9928 17.9282 23.4428L17.0656 27.0991C16.9907 27.4366 17.1031 27.7928 17.3844 28.0178C17.6842 28.2803 18.0969 28.2992 18.3594 28.1679L21.7906 26.6679C22.1845 26.4991 22.5594 26.2366 22.8218 25.8991L23.1408 25.5054L23.3093 23.2178L22.2033 22.2992Z" fill="#1D1D1D"/>
<path id="Vector_5" d="M31.9807 13.7311C31.9244 12.9811 31.562 12.3061 31.0182 11.8561C30.4368 11.3686 29.7243 11.1436 28.9742 11.1999C28.2244 11.2561 27.5304 11.6123 27.0617 12.1936L26.443 12.9248L26.1992 15.1561L27.3992 16.1498L28.7494 17.2936L30.7555 16.5248L31.3554 15.831V15.8123C31.843 15.2311 32.0555 14.4811 31.9807 13.7311Z" fill="#F96515"/>
<path id="Vector_6" d="M28.5969 14.7258L28.5962 14.7252L26.4406 12.9258L18.8281 21.907L21.0031 23.7258L21.0044 23.727L23.1406 25.507L30.7531 16.5258L28.5969 14.7258Z" fill="#1D1D1D"/>
</g>
</svg>
