<svg width="32" height="32" viewBox="0 0 32 32" fill="none" xmlns="http://www.w3.org/2000/svg">
<g id="Group">
<path id="Vector" d="M16 32C7.15681 32 0 24.844 0 16C0 7.15694 7.156 0 16 0C24.8432 0 32 7.156 32 16C32 24.8431 24.844 32 16 32Z" fill="#F96515"/>
<path id="Vector_2" d="M18.2843 7.46335C18.2843 8.60363 17.2747 9.62379 16.0125 9.62379C14.7224 9.62379 13.7129 8.60363 13.7129 7.46335C13.7129 6.32316 14.7225 5.33301 16.0125 5.33301C17.2745 5.33301 18.2843 6.32316 18.2843 7.46335ZM18.2 13.7944V25.2262C18.2 25.9463 17.2184 26.6663 16.0125 26.6663C14.7505 26.6663 13.853 25.9463 13.853 25.2262V13.7944C13.853 12.9542 14.7505 12.384 16.0125 12.384C17.2185 12.3842 18.2 12.9543 18.2 13.7944Z" fill="#1D1D1D"/>
</g>
</svg>
