<svg width="14" height="17" viewBox="0 0 14 17" fill="none" xmlns="http://www.w3.org/2000/svg">
<g id="Group 1000004073">
<circle id="Ellipse 1989" cx="7.04605" cy="5.43765" r="3.84488" fill="white"/>
<path id="Vector" d="M8.29437 12.8193C11.2213 12.9877 13.4276 13.7399 13.4276 14.6422C13.4276 15.6677 10.5717 16.5 7.04683 16.5C3.523 16.5 0.666016 15.6677 0.666016 14.6422C0.666016 13.7504 2.82155 13.0061 5.69692 12.8251L8.29437 12.8193Z" fill="white"/>
<path id="Vector_2" d="M6.98926 0.5C9.75072 0.5 11.9895 2.7388 11.9895 5.50098C11.9895 7.05996 9.88265 10.3163 8.2934 12.8193C8.04739 13.2069 7.81376 13.5764 7.60227 13.9187C7.3271 14.3641 6.65125 14.3642 6.37723 13.9181C6.16952 13.58 5.93916 13.2123 5.69594 12.8251C4.11498 10.3095 1.98828 6.96516 1.98828 5.50098C1.98828 2.7388 4.22708 0.5 6.98926 0.5ZM9.22338 5.31246C9.22338 4.08114 8.21986 3.07727 6.98926 3.07727C5.75794 3.07727 4.75443 4.08114 4.75443 5.31246C4.75443 6.54306 5.75794 7.54658 6.98926 7.54658C8.21986 7.54658 9.22338 6.54306 9.22338 5.31246Z" fill="#F96515"/>
</g>
</svg>
