<svg width="66" height="46" viewBox="0 0 66 46" fill="none" xmlns="http://www.w3.org/2000/svg">
<g id="&#240;&#159;&#166;&#134; icon &#34;youtube&#34;">
<path id="Vector" d="M26.3848 31.3186L43.7223 22.3512L26.3848 13.3086V31.3186Z" fill="white"/>
<path id="Vector_2" opacity="0.12" d="M26.3848 13.3086L41.5927 23.4533L43.7223 22.3512L26.3848 13.3086Z" fill="#420000"/>
<path id="Vector_3" d="M64.3941 10.1759C64.3941 10.1759 63.768 5.76736 61.8396 3.81356C59.4103 1.25859 56.6805 1.25859 55.4032 1.1083C46.4623 0.457031 33.0135 0.457031 33.0135 0.457031H32.9885C32.9885 0.457031 19.5396 0.457031 10.5487 1.1083C9.29647 1.25859 6.56663 1.25859 4.11228 3.81356C2.2089 5.76736 1.58279 10.1759 1.58279 10.1759C1.58279 10.1759 0.931641 15.3861 0.931641 20.5712V25.4306C0.931641 30.6157 1.58279 35.8008 1.58279 35.8008C1.58279 35.8008 2.2089 40.2094 4.13732 42.1632C6.56663 44.7181 9.77231 44.643 11.1998 44.8935C16.3339 45.3945 32.9885 45.5448 32.9885 45.5448C32.9885 45.5448 46.4623 45.5197 55.4282 44.8684C56.6805 44.7181 59.4103 44.7181 61.8646 42.1632C63.7931 40.2094 64.4192 35.8008 64.4192 35.8008C64.4192 35.8008 65.0703 30.6157 65.0703 25.4306V20.5712C65.0453 15.3861 64.3941 10.1759 64.3941 10.1759ZM26.3767 31.3171V13.307L43.7075 22.3496L26.3767 31.3171Z" fill="url(#paint0_linear_2390_38328)"/>
</g>
<defs>
<linearGradient id="paint0_linear_2390_38328" x1="8207.48" y1="0.457112" x2="8207.48" y2="8118.7" gradientUnits="userSpaceOnUse">
<stop stop-color="#E52D27"/>
<stop offset="1" stop-color="#BF171D"/>
</linearGradient>
</defs>
</svg>
