<svg width="14" height="13" viewBox="0 0 14 13" fill="none" xmlns="http://www.w3.org/2000/svg">
<g id="Group">
<path id="Vector" d="M0.806551 12.6107H13.1974C13.6399 12.6107 14.002 12.2224 14.002 11.7477V0.873756C14.002 0.399098 13.6399 0.0107422 13.1974 0.0107422H0.806551C0.364022 0.0107422 0.00195312 0.399098 0.00195312 0.873756V11.7477C0.00195312 12.2224 0.364022 12.6107 0.806551 12.6107ZM11.0314 1.71778C11.799 1.71778 12.4217 2.38576 12.4217 3.20907C12.4217 4.03239 11.799 4.70036 11.0314 4.70036C10.2638 4.70036 9.64103 4.03239 9.64103 3.20907C9.64103 2.38576 10.2638 1.71778 11.0314 1.71778ZM1.4969 10.1857L5.0677 4.88677C5.32678 4.50187 5.75161 4.50187 6.01069 4.88677L8.12195 8.01778C8.38103 8.40269 8.80586 8.40269 9.06494 8.01778L9.63942 7.16513C9.89851 6.78022 10.3233 6.78022 10.5824 7.16513L12.618 10.1857C12.8771 10.5706 12.7275 10.8847 12.2849 10.8847H1.83C1.38747 10.8847 1.23782 10.5706 1.4969 10.1857Z" fill="white"/>
</g>
</svg>
