<svg width="14" height="16" viewBox="0 0 14 16" fill="none" xmlns="http://www.w3.org/2000/svg">
<g id="Group 1000004073">
<ellipse id="Ellipse 1989" cx="7.048" cy="4.93667" rx="3.84488" ry="3.84488" fill="#262626"/>
<path id="Vector" d="M8.29632 12.3193C11.2232 12.4877 13.4296 13.2399 13.4296 14.1422C13.4296 15.1677 10.5737 16 7.04878 16C3.52495 16 0.667969 15.1677 0.667969 14.1422C0.667969 13.2504 2.8235 12.5061 5.69887 12.3251L8.29632 12.3193Z" fill="#262626"/>
<path id="Vector_2" d="M6.99317 0C9.75463 0 11.9934 2.2388 11.9934 5.00098C11.9934 6.55996 9.88656 9.81633 8.2973 12.3193C8.11132 12.6123 7.93241 12.895 7.76478 13.1634C7.41815 13.7185 6.56808 13.7185 6.22326 13.1623C6.05887 12.8972 5.88301 12.6167 5.69985 12.3251C4.11888 9.80948 1.99219 6.46516 1.99219 5.00098C1.99219 2.2388 4.23099 0 6.99317 0ZM9.22728 4.81246C9.22728 3.58114 8.22377 2.57727 6.99317 2.57727C5.76185 2.57727 4.75834 3.58114 4.75834 4.81246C4.75834 6.04306 5.76185 7.04658 6.99317 7.04658C8.22377 7.04658 9.22728 6.04306 9.22728 4.81246Z" fill="#F96515"/>
</g>
</svg>
