<svg width="30" height="30" viewBox="0 0 30 30" fill="none" xmlns="http://www.w3.org/2000/svg">
<g id="Media / Play">
<path id="Vector" d="M6.80078 21.3996V8.5996C6.80078 7.54412 6.80078 7.01579 7.02289 6.70351C7.21675 6.43094 7.51554 6.25199 7.84727 6.20921C8.2272 6.1602 8.69319 6.40873 9.62383 6.90507L21.6238 13.3051L21.6282 13.307C22.6567 13.8555 23.1711 14.1299 23.3399 14.4956C23.4871 14.8146 23.4871 15.1829 23.3399 15.5019C23.1709 15.8682 22.6552 16.1437 21.6238 16.6937L9.62383 23.0937C8.69252 23.5904 8.22734 23.838 7.84727 23.789C7.51554 23.7462 7.21675 23.5673 7.02289 23.2947C6.80078 22.9824 6.80078 22.4551 6.80078 21.3996Z" fill="#262626"/>
</g>
</svg>
