<svg width="16" height="16" viewBox="0 0 16 16" fill="none" xmlns="http://www.w3.org/2000/svg">
<g clip-path="url(#clip0_2308_44978)">
<mask id="mask0_2308_44978" style="mask-type:luminance" maskUnits="userSpaceOnUse" x="0" y="0" width="16" height="16">
<path d="M0 4.86374e-05H16V16H0V4.86374e-05Z" fill="white"/>
</mask>
<g mask="url(#mask0_2308_44978)">
<path d="M10.9043 6.37115C3.99217 4.00901 8.6529 1.17923 10.9987 0.0632677C11.0307 0.0480175 11.0198 4.86374e-05 10.9844 4.86374e-05H9.31093C9.04624 4.86374e-05 8.78474 0.0612669 8.54275 0.179579C5.88528 1.47848 0.527051 4.63878 4.85588 7.28921C9.81996 10.3286 4.49807 14.2976 1.71289 16H12.634C14.0945 13.9154 17.1207 8.49552 10.9043 6.37115Z" fill="#F96515"/>
<path d="M11.4048 5.79181C4.81771 3.75601 8.61832 1.43773 11.0572 0.243641C11.1711 0.187829 11.1348 4.86374e-05 11.0102 4.86374e-05H10.9196C8.62535 1.06886 3.64412 3.96301 10.6909 6.37115C16.9072 8.49552 13.8811 13.9154 12.4206 16H13.6584C13.9682 16 14.2529 15.8121 14.3993 15.5106C15.8026 12.6214 17.1122 7.55571 11.4048 5.79181Z" fill="#262626"/>
<path d="M4.86765 7.28921C1.66725 5.32969 3.69756 3.09145 6.08099 1.53273C3.41456 3.02804 0.356567 5.48559 3.94115 7.68037C8.13961 10.251 3.73549 13.4865 0.526879 15.4533C0.288473 15.5995 0.382879 16 0.655566 16H1.72469C4.50984 14.2976 9.83173 10.3286 4.86765 7.28921Z" fill="#262626"/>
</g>
<path d="M6.85692 2C5.99978 2.38095 4.62835 3.54286 5.99978 5.14286C7.71406 7.14286 14.2854 9.42857 7.99972 16" stroke="#262626" stroke-width="0.857143" stroke-dasharray="1.14 1.14"/>
</g>
<defs>
<clipPath id="clip0_2308_44978">
<rect width="16" height="16" fill="white"/>
</clipPath>
</defs>
</svg>
