<svg width="32" height="32" viewBox="0 0 32 32" fill="none" xmlns="http://www.w3.org/2000/svg">
<g clip-path="url(#clip0_3278_55734)">
<path d="M3.11404 9.749L13.9932 5.78925C14.6407 5.5536 15.3565 5.88895 15.5897 6.53731L18.1977 13.7864H3.26518L2.37121 11.3463C2.13444 10.7001 2.46727 9.98439 3.11404 9.749Z" fill="#1D1D1D"/>
<path d="M20.8439 9.30664H12.0092C11.4421 9.30664 10.9824 9.76633 10.9824 10.3334V13.7864H21.8707V10.3334C21.8707 9.76633 21.411 9.30664 20.8439 9.30664Z" fill="#1D1D1D"/>
<path d="M22.692 12.3887C23.8261 12.3887 24.7455 13.3081 24.7455 14.4422V29.9467C24.7455 31.0808 23.8261 32.0003 22.692 32.0003H2.05357C0.919435 32.0003 0 31.0808 0 29.9467V14.4422C0 13.3081 0.919435 12.3887 2.05357 12.3887H22.692Z" fill="#F96515"/>
<path d="M21.1526 25.274H25.2598C25.8269 25.274 26.2866 24.8143 26.2866 24.2472V20.1401C26.2866 19.573 25.8269 19.1133 25.2598 19.1133H21.1526C19.4514 19.1133 18.0723 20.4924 18.0723 22.1936C18.0723 23.8949 19.4514 25.274 21.1526 25.274Z" fill="#1D1D1D"/>
<path d="M21.1529 22.964C21.5782 22.964 21.923 22.6192 21.923 22.1939C21.923 21.7686 21.5782 21.4238 21.1529 21.4238C20.7276 21.4238 20.3828 21.7686 20.3828 22.1939C20.3828 22.6192 20.7276 22.964 21.1529 22.964Z" fill="#F96515"/>
<path d="M32.0136 5.1493C32.0136 7.98247 29.7132 10.2886 26.8824 10.2987H26.8643C24.0251 10.2987 21.7148 7.9886 21.7148 5.1493C21.7148 2.31017 24.0251 0 26.8643 0H26.8824C29.7132 0.0100886 32.0136 2.3163 32.0136 5.1493Z" fill="#F96515"/>
<path d="M29.39 4.46264L27.0708 6.78209L26.5697 7.28321C26.5135 7.33958 26.4466 7.38428 26.373 7.41473C26.2995 7.44519 26.2206 7.46081 26.141 7.46069C26.0613 7.46081 25.9824 7.44519 25.9088 7.41473C25.8352 7.38428 25.7683 7.33958 25.712 7.28321L24.6346 6.20531C24.3978 5.96851 24.3978 5.58498 24.6346 5.34806C24.8711 5.1113 25.2551 5.1113 25.4918 5.34806L26.141 5.9972L28.5328 3.60539C28.7695 3.36851 29.1535 3.36851 29.39 3.60539C29.6267 3.84219 29.6267 4.22621 29.39 4.46264Z" fill="#1A1A1A"/>
</g>
<defs>
<clipPath id="clip0_3278_55734">
<rect width="32" height="32" fill="white"/>
</clipPath>
</defs>
</svg>
