<svg width="224" height="224" viewBox="0 0 224 224" fill="none" xmlns="http://www.w3.org/2000/svg">
<g id="Frame 1000005552" clip-path="url(#clip0_2205_53060)">
<g id="Rectangle 34624898" filter="url(#filter0_b_2205_53060)">
<rect width="224" height="224" rx="112" fill="url(#paint0_linear_2205_53060)"/>
<rect x="1.75916" y="1.75916" width="220.482" height="220.482" rx="110.241" stroke="url(#paint1_linear_2205_53060)" stroke-width="3.51832"/>
</g>
<g id="Frame 1000006087">
<g id="Frame 1000005003">
<g id="Frame 1000005002">
<path id="BACK TO" d="M87.4473 105H84.0453V95.2H87.5593C89.2113 95.2 90.2473 96.236 90.2473 97.524C90.2473 98.588 89.6593 99.246 88.9453 99.582C89.9673 99.96 90.7093 100.73 90.7093 102.06C90.7093 103.782 89.3933 105 87.4473 105ZM85.7393 96.67V99.036H87.3773C88.0773 99.036 88.6093 98.63 88.6093 97.846C88.6093 97.076 88.0773 96.67 87.3773 96.67H85.7393ZM85.7393 100.436V103.446H87.3773C88.3713 103.446 89.0153 102.914 89.0153 101.948C89.0153 100.968 88.3713 100.436 87.3773 100.436H85.7393ZM100.145 105H98.3666L97.5686 102.774H93.5226L92.7246 105H90.9466L94.5306 95.2H96.5606L100.145 105ZM95.2726 97.888L94.0826 101.22H97.0086L95.8186 97.888C95.7066 97.594 95.6366 97.426 95.5526 97.146C95.4546 97.426 95.3846 97.594 95.2726 97.888ZM105.307 105.196C102.703 105.196 100.435 103.208 100.435 100.1C100.435 96.992 102.731 95.004 105.307 95.004C107.799 95.004 109.521 96.432 109.899 98.714H108.177C107.841 97.37 106.721 96.572 105.307 96.572C103.627 96.572 102.129 97.902 102.129 100.1C102.129 102.298 103.627 103.628 105.307 103.628C106.735 103.628 107.841 102.844 108.177 101.472H109.913C109.521 103.782 107.659 105.196 105.307 105.196ZM114.802 100.016L118.4 105H116.426L113.066 100.436V105H111.372V95.2H113.066V99.638L116.328 95.2H118.372L114.802 100.016ZM129.71 95.2V96.754H126.91V105H125.216V96.754H122.416V95.2H129.71ZM135.373 105.196C132.713 105.196 130.403 103.208 130.403 100.1C130.403 96.992 132.713 95.004 135.373 95.004C138.033 95.004 140.343 96.992 140.343 100.1C140.343 103.208 138.033 105.196 135.373 105.196ZM135.373 103.628C137.123 103.628 138.649 102.298 138.649 100.1C138.649 97.902 137.123 96.572 135.373 96.572C133.623 96.572 132.097 97.902 132.097 100.1C132.097 102.298 133.623 103.628 135.373 103.628Z" fill="white"/>
<path id="HOMEPAGE" d="M52.1537 133.691V117.273H55.6251V123.371H62.9901V117.273H66.4615V133.691H62.9901V126.561H55.6251V133.691H52.1537ZM76.939 134.02C75.7975 134.02 74.7185 133.817 73.7021 133.41C72.6857 132.988 71.7866 132.401 71.0047 131.651C70.2229 130.885 69.613 129.985 69.1752 128.953C68.7374 127.906 68.5185 126.749 68.5185 125.482C68.5185 124.215 68.7374 123.066 69.1752 122.034C69.613 120.986 70.2229 120.087 71.0047 119.337C71.7866 118.57 72.6857 117.984 73.7021 117.577C74.7185 117.155 75.7975 116.944 76.939 116.944C78.0961 116.944 79.1751 117.155 80.1758 117.577C81.1922 117.984 82.0914 118.57 82.8732 119.337C83.6551 120.087 84.2649 120.986 84.7027 122.034C85.1406 123.066 85.3595 124.215 85.3595 125.482C85.3595 126.749 85.1406 127.906 84.7027 128.953C84.2649 129.985 83.6551 130.885 82.8732 131.651C82.0914 132.401 81.1922 132.988 80.1758 133.41C79.1751 133.817 78.0961 134.02 76.939 134.02ZM76.939 130.783C77.6426 130.783 78.2916 130.658 78.8858 130.408C79.48 130.142 80.0038 129.774 80.4573 129.305C80.9108 128.836 81.2626 128.281 81.5128 127.64C81.763 126.983 81.8881 126.264 81.8881 125.482C81.8881 124.7 81.763 123.989 81.5128 123.348C81.2626 122.691 80.9108 122.128 80.4573 121.659C80.0038 121.19 79.48 120.83 78.8858 120.58C78.2916 120.314 77.6426 120.181 76.939 120.181C76.2353 120.181 75.5864 120.314 74.9922 120.58C74.398 120.83 73.8741 121.19 73.4207 121.659C72.9672 122.128 72.6153 122.691 72.3652 123.348C72.115 123.989 71.9899 124.7 71.9899 125.482C71.9899 126.264 72.115 126.983 72.3652 127.64C72.6153 128.281 72.9672 128.836 73.4207 129.305C73.8741 129.774 74.398 130.142 74.9922 130.408C75.5864 130.658 76.2353 130.783 76.939 130.783ZM95.3708 133.691V128.484C95.4177 127.906 95.535 127.335 95.7226 126.772C95.9259 126.193 96.1057 125.685 96.2621 125.247L99.0064 117.273H103.322V133.691H99.9681V125.388C99.9681 124.919 99.9837 124.481 100.015 124.075C100.046 123.652 100.078 123.222 100.109 122.785L96.6139 133.691H95.3708ZM87.4194 133.691V117.273H91.7352L94.4795 125.247C94.6358 125.685 94.8079 126.193 94.9955 126.772C95.1988 127.335 95.3239 127.906 95.3708 128.484V133.691H94.1276L90.6328 122.785C90.664 123.222 90.6953 123.652 90.7266 124.075C90.7579 124.481 90.7735 124.919 90.7735 125.388V133.691H87.4194ZM105.716 133.691V117.273H115.755V120.463H109.188V123.512H114.723V126.702H109.188V130.501H116.037V133.691H105.716ZM117.737 133.691V117.273H123.977C125.087 117.273 126.072 117.476 126.932 117.882C127.792 118.273 128.464 118.86 128.949 119.642C129.45 120.408 129.7 121.362 129.7 122.503C129.7 123.645 129.45 124.606 128.949 125.388C128.464 126.154 127.792 126.741 126.932 127.147C126.072 127.538 125.087 127.734 123.977 127.734H121.209V133.691H117.737ZM121.209 124.684H123.836C124.602 124.684 125.188 124.505 125.595 124.145C126.017 123.77 126.228 123.222 126.228 122.503C126.228 121.784 126.017 121.244 125.595 120.885C125.188 120.509 124.602 120.322 123.836 120.322H121.209V124.684ZM128.152 133.691L133.922 117.273H138.191L143.961 133.691H140.302L136.526 122.644C136.432 122.378 136.346 122.151 136.268 121.964C136.205 121.776 136.135 121.557 136.057 121.307C135.978 121.557 135.9 121.776 135.822 121.964C135.759 122.151 135.681 122.378 135.587 122.644L131.811 133.691H128.152ZM132.186 130.361V127.171H139.927V130.361H132.186ZM152.296 134.02C151.154 134.02 150.075 133.817 149.059 133.41C148.058 132.988 147.182 132.401 146.432 131.651C145.681 130.885 145.087 129.985 144.649 128.953C144.227 127.906 144.016 126.749 144.016 125.482C144.016 124.215 144.227 123.066 144.649 122.034C145.087 120.986 145.689 120.087 146.455 119.337C147.221 118.57 148.105 117.984 149.106 117.577C150.106 117.155 151.17 116.944 152.296 116.944C153.734 116.944 154.977 117.179 156.025 117.648C157.088 118.117 157.948 118.789 158.605 119.665C159.262 120.525 159.692 121.549 159.895 122.738H156.353C156.197 122.206 155.931 121.753 155.556 121.377C155.181 120.986 154.719 120.689 154.172 120.486C153.625 120.283 152.999 120.181 152.296 120.181C151.42 120.181 150.615 120.408 149.88 120.861C149.145 121.299 148.558 121.917 148.121 122.714C147.698 123.512 147.487 124.434 147.487 125.482C147.487 126.53 147.698 127.452 148.121 128.25C148.558 129.047 149.145 129.673 149.88 130.126C150.615 130.564 151.42 130.783 152.296 130.783C153.547 130.783 154.555 130.462 155.321 129.821C156.088 129.164 156.549 128.258 156.705 127.1L157.573 127.828H152.577V125.036H160.177V125.787C160.177 127.194 159.958 128.422 159.52 129.469C159.098 130.501 158.511 131.354 157.761 132.026C157.026 132.698 156.181 133.199 155.228 133.527C154.289 133.856 153.312 134.02 152.296 134.02ZM162.23 133.691V117.273H172.269V120.463H165.701V123.512H171.236V126.702H165.701V130.501H172.55V133.691H162.23Z" fill="white"/>
</g>
</g>
</g>
</g>
<defs>
<filter id="filter0_b_2205_53060" x="-11.7277" y="-11.7277" width="247.455" height="247.455" filterUnits="userSpaceOnUse" color-interpolation-filters="sRGB">
<feFlood flood-opacity="0" result="BackgroundImageFix"/>
<feGaussianBlur in="BackgroundImageFix" stdDeviation="5.86387"/>
<feComposite in2="SourceAlpha" operator="in" result="effect1_backgroundBlur_2205_53060"/>
<feBlend mode="normal" in="SourceGraphic" in2="effect1_backgroundBlur_2205_53060" result="shape"/>
</filter>
<linearGradient id="paint0_linear_2205_53060" x1="112" y1="0" x2="112" y2="224" gradientUnits="userSpaceOnUse">
<stop/>
<stop offset="1" stop-color="#1B1B1B" stop-opacity="0.75"/>
</linearGradient>
<linearGradient id="paint1_linear_2205_53060" x1="112" y1="0" x2="112" y2="224" gradientUnits="userSpaceOnUse">
<stop stop-color="white"/>
<stop offset="1" stop-color="white" stop-opacity="0"/>
</linearGradient>
<clipPath id="clip0_2205_53060">
<rect width="224" height="224" fill="white"/>
</clipPath>
</defs>
</svg>
