<svg width="174" height="173" viewBox="0 0 174 173" fill="none" xmlns="http://www.w3.org/2000/svg">
<g id="Frame 1000005552" clip-path="url(#clip0_2413_29548)">
<g id="Rectangle 34624898" filter="url(#filter0_b_2413_29548)">
<rect x="0.5" width="173" height="173" rx="86.5" fill="url(#paint0_linear_2413_29548)"/>
<rect x="1.85864" y="1.35864" width="170.283" height="170.283" rx="85.1414" stroke="url(#paint1_linear_2413_29548)" stroke-width="2.71728"/>
</g>
<g id="Frame 1000006087">
<g id="Frame 1000005003">
<g id="Frame 1000005002">
<path id="BACK TO" d="M63.533 68.1523V59.7523H66.545C67.017 59.7523 67.425 59.8443 67.769 60.0283C68.113 60.2043 68.377 60.4443 68.561 60.7483C68.753 61.0443 68.849 61.3763 68.849 61.7443C68.849 62.2003 68.741 62.5723 68.525 62.8603C68.309 63.1483 68.045 63.3643 67.733 63.5083C68.173 63.6683 68.533 63.9203 68.813 64.2643C69.101 64.6083 69.245 65.0643 69.245 65.6323C69.245 66.1203 69.125 66.5563 68.885 66.9403C68.653 67.3163 68.325 67.6123 67.901 67.8283C67.485 68.0443 67.001 68.1523 66.449 68.1523H63.533ZM64.985 66.8203H66.389C66.813 66.8203 67.153 66.7123 67.409 66.4963C67.665 66.2723 67.793 65.9523 67.793 65.5363C67.793 65.1123 67.665 64.7923 67.409 64.5763C67.153 64.3523 66.813 64.2403 66.389 64.2403H64.985V66.8203ZM64.985 63.0403H66.389C66.693 63.0403 66.945 62.9563 67.145 62.7883C67.345 62.6123 67.445 62.3563 67.445 62.0203C67.445 61.6923 67.345 61.4443 67.145 61.2763C66.945 61.1003 66.693 61.0123 66.389 61.0123H64.985V63.0403ZM69.4483 68.1523L72.5203 59.7523H74.2603L77.3323 68.1523H75.8083L73.6243 62.0563C73.5763 61.9283 73.5363 61.8203 73.5043 61.7323C73.4723 61.6363 73.4363 61.5323 73.3963 61.4203C73.3563 61.5323 73.3163 61.6363 73.2763 61.7323C73.2443 61.8203 73.2043 61.9283 73.1563 62.0563L70.9723 68.1523H69.4483ZM71.2723 66.2443V64.9123H75.5083V66.2443H71.2723ZM81.769 68.3203C81.209 68.3203 80.677 68.2203 80.173 68.0203C79.677 67.8123 79.233 67.5163 78.841 67.1323C78.457 66.7483 78.153 66.2923 77.929 65.7643C77.705 65.2283 77.593 64.6243 77.593 63.9523C77.593 63.2803 77.705 62.6803 77.929 62.1523C78.153 61.6163 78.461 61.1563 78.853 60.7723C79.245 60.3883 79.689 60.0963 80.185 59.8963C80.689 59.6883 81.217 59.5843 81.769 59.5843C82.481 59.5843 83.113 59.7163 83.665 59.9803C84.217 60.2363 84.669 60.6003 85.021 61.0723C85.373 61.5443 85.601 62.1083 85.705 62.7643H84.229C84.133 62.3803 83.969 62.0523 83.737 61.7803C83.505 61.5003 83.221 61.2883 82.885 61.1443C82.549 61.0003 82.177 60.9283 81.769 60.9283C81.297 60.9283 80.853 61.0483 80.437 61.2883C80.021 61.5283 79.685 61.8763 79.429 62.3323C79.173 62.7803 79.045 63.3203 79.045 63.9523C79.045 64.5763 79.173 65.1163 79.429 65.5723C79.685 66.0283 80.021 66.3763 80.437 66.6163C80.853 66.8563 81.297 66.9763 81.769 66.9763C82.385 66.9763 82.913 66.8163 83.353 66.4963C83.801 66.1763 84.093 65.7203 84.229 65.1283H85.717C85.605 65.7843 85.365 66.3523 84.997 66.8323C84.629 67.3043 84.165 67.6723 83.605 67.9363C83.053 68.1923 82.441 68.3203 81.769 68.3203ZM91.2992 68.1523L88.3232 64.1083V63.6883L91.2152 59.7523H92.9672L89.9072 63.8803L92.9912 68.1523H91.2992ZM86.9672 68.1523V59.7523H88.4192V68.1523H86.9672ZM98.834 68.1523V59.7523H100.286V68.1523H98.834ZM96.434 61.0843V59.7523H102.686V61.0843H96.434ZM107.54 68.3203C106.972 68.3203 106.432 68.2203 105.92 68.0203C105.408 67.8123 104.952 67.5163 104.552 67.1323C104.16 66.7483 103.848 66.2923 103.616 65.7643C103.392 65.2283 103.28 64.6243 103.28 63.9523C103.28 63.2803 103.392 62.6803 103.616 62.1523C103.848 61.6163 104.16 61.1563 104.552 60.7723C104.952 60.3883 105.408 60.0963 105.92 59.8963C106.432 59.6883 106.972 59.5843 107.54 59.5843C108.116 59.5843 108.656 59.6883 109.16 59.8963C109.672 60.0963 110.128 60.3883 110.528 60.7723C110.928 61.1563 111.24 61.6163 111.464 62.1523C111.688 62.6803 111.8 63.2803 111.8 63.9523C111.8 64.6243 111.688 65.2283 111.464 65.7643C111.24 66.2923 110.928 66.7483 110.528 67.1323C110.128 67.5163 109.672 67.8123 109.16 68.0203C108.656 68.2203 108.116 68.3203 107.54 68.3203ZM107.54 66.9763C107.916 66.9763 108.272 66.9083 108.608 66.7723C108.944 66.6283 109.244 66.4283 109.508 66.1723C109.772 65.9083 109.976 65.5923 110.12 65.2243C110.272 64.8483 110.348 64.4243 110.348 63.9523C110.348 63.4803 110.272 63.0603 110.12 62.6923C109.976 62.3163 109.772 62.0003 109.508 61.7443C109.244 61.4803 108.944 61.2803 108.608 61.1443C108.272 61.0003 107.916 60.9283 107.54 60.9283C107.164 60.9283 106.808 61.0003 106.472 61.1443C106.136 61.2803 105.836 61.4803 105.572 61.7443C105.308 62.0003 105.1 62.3163 104.948 62.6923C104.804 63.0603 104.732 63.4803 104.732 63.9523C104.732 64.4243 104.804 64.8483 104.948 65.2243C105.1 65.5923 105.308 65.9083 105.572 66.1723C105.836 66.4283 106.136 66.6283 106.472 66.7723C106.808 66.9083 107.164 66.9763 107.54 66.9763Z" fill="white"/>
<path id="BOOK NOW" d="M46.6762 88.7754V77.5754H49.0442V81.7354H54.0682V77.5754H56.4362V88.7754H54.0682V83.9114H49.0442V88.7754H46.6762ZM63.5834 88.9994C62.8047 88.9994 62.0687 88.8607 61.3754 88.5834C60.682 88.2954 60.0687 87.8954 59.5354 87.3834C59.002 86.8607 58.586 86.2474 58.2874 85.5434C57.9887 84.8287 57.8394 84.0394 57.8394 83.1754C57.8394 82.3114 57.9887 81.5274 58.2874 80.8234C58.586 80.1087 59.002 79.4954 59.5354 78.9834C60.0687 78.4607 60.682 78.0607 61.3754 77.7834C62.0687 77.4954 62.8047 77.3514 63.5834 77.3514C64.3727 77.3514 65.1087 77.4954 65.7914 77.7834C66.4847 78.0607 67.098 78.4607 67.6314 78.9834C68.1647 79.4954 68.5807 80.1087 68.8794 80.8234C69.178 81.5274 69.3274 82.3114 69.3274 83.1754C69.3274 84.0394 69.178 84.8287 68.8794 85.5434C68.5807 86.2474 68.1647 86.8607 67.6314 87.3834C67.098 87.8954 66.4847 88.2954 65.7914 88.5834C65.1087 88.8607 64.3727 88.9994 63.5834 88.9994ZM63.5834 86.7914C64.0634 86.7914 64.506 86.7061 64.9114 86.5354C65.3167 86.3541 65.674 86.1034 65.9834 85.7834C66.2927 85.4634 66.5327 85.0847 66.7034 84.6474C66.874 84.1994 66.9594 83.7087 66.9594 83.1754C66.9594 82.6421 66.874 82.1567 66.7034 81.7194C66.5327 81.2714 66.2927 80.8874 65.9834 80.5674C65.674 80.2474 65.3167 80.0021 64.9114 79.8314C64.506 79.6501 64.0634 79.5594 63.5834 79.5594C63.1034 79.5594 62.6607 79.6501 62.2554 79.8314C61.85 80.0021 61.4927 80.2474 61.1834 80.5674C60.874 80.8874 60.634 81.2714 60.4634 81.7194C60.2927 82.1567 60.2074 82.6421 60.2074 83.1754C60.2074 83.7087 60.2927 84.1994 60.4634 84.6474C60.634 85.0847 60.874 85.4634 61.1834 85.7834C61.4927 86.1034 61.85 86.3541 62.2554 86.5354C62.6607 86.7061 63.1034 86.7914 63.5834 86.7914ZM76.1565 88.7754V85.2234C76.1885 84.8287 76.2685 84.4394 76.3965 84.0554C76.5352 83.6607 76.6578 83.3141 76.7645 83.0154L78.6365 77.5754H81.5805V88.7754H79.2925V83.1114C79.2925 82.7914 79.3032 82.4927 79.3245 82.2154C79.3458 81.9274 79.3672 81.6341 79.3885 81.3354L77.0045 88.7754H76.1565ZM70.7325 88.7754V77.5754H73.6765L75.5485 83.0154C75.6552 83.3141 75.7725 83.6607 75.9005 84.0554C76.0392 84.4394 76.1245 84.8287 76.1565 85.2234V88.7754H75.3085L72.9245 81.3354C72.9458 81.6341 72.9672 81.9274 72.9885 82.2154C73.0098 82.4927 73.0205 82.7914 73.0205 83.1114V88.7754H70.7325ZM83.2137 88.7754V77.5754H90.0617V79.7514H85.5817V81.8314H89.3577V84.0074H85.5817V86.5994H90.2537V88.7754H83.2137ZM91.4137 88.7754V77.5754H95.6697C96.4271 77.5754 97.0991 77.7141 97.6857 77.9914C98.2724 78.2581 98.7311 78.6581 99.0617 79.1914C99.4031 79.7141 99.5737 80.3647 99.5737 81.1434C99.5737 81.9221 99.4031 82.5781 99.0617 83.1114C98.7311 83.6341 98.2724 84.0341 97.6857 84.3114C97.0991 84.5781 96.4271 84.7114 95.6697 84.7114H93.7817V88.7754H91.4137ZM93.7817 82.6314H95.5737C96.0964 82.6314 96.4964 82.5087 96.7737 82.2634C97.0617 82.0074 97.2057 81.6341 97.2057 81.1434C97.2057 80.6527 97.0617 80.2847 96.7737 80.0394C96.4964 79.7834 96.0964 79.6554 95.5737 79.6554H93.7817V82.6314ZM98.518 88.7754L102.454 77.5754H105.366L109.302 88.7754H106.806L104.23 81.2394C104.166 81.0581 104.107 80.9034 104.054 80.7754C104.011 80.6474 103.963 80.4981 103.91 80.3274C103.857 80.4981 103.803 80.6474 103.75 80.7754C103.707 80.9034 103.654 81.0581 103.59 81.2394L101.014 88.7754H98.518ZM101.27 86.5034V84.3274H106.55V86.5034H101.27ZM114.987 88.9994C114.209 88.9994 113.473 88.8607 112.779 88.5834C112.097 88.2954 111.499 87.8954 110.987 87.3834C110.475 86.8607 110.07 86.2474 109.771 85.5434C109.483 84.8287 109.339 84.0394 109.339 83.1754C109.339 82.3114 109.483 81.5274 109.771 80.8234C110.07 80.1087 110.481 79.4954 111.003 78.9834C111.526 78.4607 112.129 78.0607 112.811 77.7834C113.494 77.4954 114.219 77.3514 114.987 77.3514C115.969 77.3514 116.817 77.5114 117.531 77.8314C118.257 78.1514 118.843 78.6101 119.291 79.2074C119.739 79.7941 120.033 80.4927 120.171 81.3034H117.755C117.649 80.9407 117.467 80.6314 117.211 80.3754C116.955 80.1087 116.641 79.9061 116.267 79.7674C115.894 79.6287 115.467 79.5594 114.987 79.5594C114.39 79.5594 113.841 79.7141 113.339 80.0234C112.838 80.3221 112.438 80.7434 112.139 81.2874C111.851 81.8314 111.707 82.4607 111.707 83.1754C111.707 83.8901 111.851 84.5194 112.139 85.0634C112.438 85.6074 112.838 86.0341 113.339 86.3434C113.841 86.6421 114.39 86.7914 114.987 86.7914C115.841 86.7914 116.529 86.5727 117.051 86.1354C117.574 85.6874 117.889 85.0687 117.995 84.2794L118.587 84.7754H115.179V82.8714H120.363V83.3834C120.363 84.3434 120.214 85.1807 119.915 85.8954C119.627 86.5994 119.227 87.1807 118.715 87.6394C118.214 88.0981 117.638 88.4394 116.987 88.6634C116.347 88.8874 115.681 88.9994 114.987 88.9994ZM121.764 88.7754V77.5754H128.612V79.7514H124.132V81.8314H127.908V84.0074H124.132V86.5994H128.804V88.7754H121.764Z" fill="white"/>
</g>
</g>
<path id="Vector" d="M59.3119 110.767L63.1736 114.629M59.3119 110.767L63.1736 106.906M59.3119 110.767L115.691 110.767" stroke="#F1F1F1" stroke-width="2.31696" stroke-linecap="round" stroke-linejoin="round"/>
</g>
</g>
<defs>
<filter id="filter0_b_2413_29548" x="-8.55759" y="-9.05759" width="191.115" height="191.115" filterUnits="userSpaceOnUse" color-interpolation-filters="sRGB">
<feFlood flood-opacity="0" result="BackgroundImageFix"/>
<feGaussianBlur in="BackgroundImageFix" stdDeviation="4.5288"/>
<feComposite in2="SourceAlpha" operator="in" result="effect1_backgroundBlur_2413_29548"/>
<feBlend mode="normal" in="SourceGraphic" in2="effect1_backgroundBlur_2413_29548" result="shape"/>
</filter>
<linearGradient id="paint0_linear_2413_29548" x1="87" y1="0" x2="87" y2="173" gradientUnits="userSpaceOnUse">
<stop stop-color="#E45000"/>
<stop offset="1" stop-color="#F96515" stop-opacity="0.75"/>
</linearGradient>
<linearGradient id="paint1_linear_2413_29548" x1="87" y1="0" x2="87" y2="173" gradientUnits="userSpaceOnUse">
<stop stop-color="white"/>
<stop offset="1" stop-color="white" stop-opacity="0"/>
</linearGradient>
<clipPath id="clip0_2413_29548">
<rect width="173" height="173" fill="white" transform="translate(0.5)"/>
</clipPath>
</defs>
</svg>
