<svg width="12" height="318" viewBox="0 0 12 318" fill="none" xmlns="http://www.w3.org/2000/svg">
<path d="M5.46968 318.53C5.76258 318.823 6.23745 318.823 6.53034 318.53L11.3033 313.757C11.5962 313.464 11.5962 312.99 11.3033 312.697C11.0104 312.404 10.5355 312.404 10.2427 312.697L6.00001 316.939L1.75737 312.697C1.46448 312.404 0.989606 312.404 0.696713 312.697C0.403819 312.99 0.403819 313.464 0.696713 313.757L5.46968 318.53ZM5.25 3.27835e-08L5.25 2.94444L6.75 2.94444L6.75 -3.27835e-08L5.25 3.27835e-08ZM5.25 8.83333L5.25 14.7222L6.75 14.7222L6.75 8.83333L5.25 8.83333ZM5.25 20.6111L5.25 26.5L6.75 26.5L6.75 20.6111L5.25 20.6111ZM5.25 32.3889L5.25 38.2778L6.75 38.2778L6.75 32.3889L5.25 32.3889ZM5.25 44.1667L5.25 50.0556L6.75 50.0556L6.75 44.1667L5.25 44.1667ZM5.25 55.9444L5.25 61.8333L6.75 61.8333L6.75 55.9444L5.25 55.9444ZM5.25 67.7222L5.25 73.6111L6.75 73.6111L6.75 67.7222L5.25 67.7222ZM5.25 79.5L5.25 85.3889L6.75 85.3889L6.75 79.5L5.25 79.5ZM5.25 91.2778L5.25 97.1666L6.75 97.1666L6.75 91.2778L5.25 91.2778ZM5.25 103.056L5.25 108.944L6.75 108.944L6.75 103.056L5.25 103.056ZM5.25001 114.833L5.25001 120.722L6.75001 120.722L6.75001 114.833L5.25001 114.833ZM5.25001 126.611L5.25001 132.5L6.75001 132.5L6.75001 126.611L5.25001 126.611ZM5.25001 138.389L5.25001 144.278L6.75001 144.278L6.75001 138.389L5.25001 138.389ZM5.25001 150.167L5.25001 156.055L6.75001 156.055L6.75001 150.167L5.25001 150.167ZM5.25001 161.944L5.25001 167.833L6.75001 167.833L6.75001 161.944L5.25001 161.944ZM5.25001 173.722L5.25001 179.611L6.75001 179.611L6.75001 173.722L5.25001 173.722ZM5.25001 185.5L5.25001 191.389L6.75001 191.389L6.75001 185.5L5.25001 185.5ZM5.25001 197.278L5.25001 203.167L6.75001 203.167L6.75001 197.278L5.25001 197.278ZM5.25001 209.055L5.25001 214.944L6.75001 214.944L6.75001 209.055L5.25001 209.055ZM5.25001 220.833L5.25001 226.722L6.75001 226.722L6.75001 220.833L5.25001 220.833ZM5.25001 232.611L5.25001 238.5L6.75001 238.5L6.75001 232.611L5.25001 232.611ZM5.25001 244.389L5.25001 250.278L6.75001 250.278L6.75001 244.389L5.25001 244.389ZM5.25001 256.167L5.25001 262.055L6.75001 262.055L6.75001 256.167L5.25001 256.167ZM5.25001 267.944L5.25001 273.833L6.75001 273.833L6.75001 267.944L5.25001 267.944ZM5.25001 279.722L5.25001 285.611L6.75001 285.611L6.75001 279.722L5.25001 279.722ZM5.25001 291.5L5.25001 297.389L6.75001 297.389L6.75001 291.5L5.25001 291.5ZM5.25001 303.278L5.25001 309.167L6.75001 309.167L6.75001 303.278L5.25001 303.278ZM5.25001 315.055L5.25001 318L6.75001 318L6.75001 315.055L5.25001 315.055Z" fill="#C5C5C5"/>
</svg>
