<svg width="138" height="110" viewBox="0 0 138 110" fill="none" xmlns="http://www.w3.org/2000/svg">
<path d="M0 0V109.25H138V0H0ZM102.917 6.15239C102.917 5.28463 103.711 4.57502 104.68 4.57502H109.932C110.9 4.57502 111.695 5.28359 111.695 6.15239V13.6897C111.695 14.5574 110.9 15.2671 109.932 15.2671H104.68C103.711 15.2671 102.917 14.5585 102.917 13.6897V6.15239ZM134.698 22.0188V88.3508C134.698 90.7647 132.51 92.7219 129.812 92.7219H8.18907C5.49113 92.7219 3.3032 90.7647 3.3032 88.3508V22.0198C3.3032 19.6059 5.49113 17.6487 8.18907 17.6487H129.812C132.51 17.6487 134.698 19.6059 134.698 22.0198V22.0188ZM85.5285 4.57606H90.7778C91.7477 4.57606 92.5409 5.28463 92.5409 6.15343V13.6907C92.5409 14.5585 91.749 15.2681 90.7778 15.2681H85.5285C84.5586 15.2681 83.7654 14.5595 83.7654 13.6907V6.15239C83.7654 5.28463 84.5574 4.57502 85.5285 4.57502V4.57606ZM64.6129 6.15343C64.6129 5.28567 65.4073 4.57606 66.376 4.57606H71.6253C72.5952 4.57606 73.3896 5.28463 73.3896 6.15343V13.6907C73.3896 14.5585 72.5952 15.2681 71.6253 15.2681H66.376C65.4073 15.2681 64.6129 14.5595 64.6129 13.6907V6.15239V6.15343ZM52.474 4.57606C53.4439 4.57606 54.2371 5.28463 54.2371 6.15343V13.6907C54.2371 14.5585 53.4451 15.2681 52.474 15.2681H47.2247C46.2548 15.2681 45.4603 14.5595 45.4603 13.6907V6.15239C45.4603 5.28463 46.2548 4.57502 47.2247 4.57502H52.474V4.57606ZM26.309 6.15343C26.309 5.28567 27.101 4.57606 28.0722 4.57606H33.3214C34.2914 4.57606 35.0858 5.28463 35.0858 6.15343V13.6907C35.0858 14.5585 34.2914 15.2681 33.3214 15.2681H28.0722C27.1023 15.2681 26.309 14.5595 26.309 13.6907V6.15239V6.15343ZM7.15526 6.15343C7.15526 5.28567 7.94973 4.57606 8.91964 4.57606H14.1689C15.1388 4.57606 15.932 5.28463 15.932 6.15343V13.6907C15.932 14.5585 15.1401 15.2681 14.1689 15.2681H8.91964C7.94973 15.2681 7.15526 14.5595 7.15526 13.6907V6.15239V6.15343ZM8.91964 105.795C7.94973 105.795 7.15526 105.086 7.15526 104.217V96.6799C7.15526 95.8121 7.94973 95.1025 8.91964 95.1025H14.1689C15.1388 95.1025 15.932 95.8111 15.932 96.6799V104.217C15.932 105.085 15.1401 105.795 14.1689 105.795H8.91964ZM35.0846 104.217C35.0846 105.085 34.2901 105.795 33.3202 105.795H28.0709C27.101 105.795 26.3078 105.086 26.3078 104.217V96.6799C26.3078 95.8121 27.0998 95.1025 28.0709 95.1025H33.3202C34.2901 95.1025 35.0846 95.8111 35.0846 96.6799V104.217ZM54.2359 104.217C54.2359 105.085 53.4439 105.795 52.4727 105.795H47.2235C46.2535 105.795 45.4591 105.086 45.4591 104.217V96.6799C45.4591 95.8121 46.2535 95.1025 47.2235 95.1025H52.4727C53.4426 95.1025 54.2359 95.8111 54.2359 96.6799V104.217ZM73.3896 104.217C73.3896 105.085 72.5952 105.795 71.6253 105.795H66.376C65.4073 105.795 64.6129 105.086 64.6129 104.217V96.6799C64.6129 95.8121 65.4073 95.1025 66.376 95.1025H71.6253C72.5952 95.1025 73.3896 95.8111 73.3896 96.6799V104.217ZM85.5285 105.795C84.5586 105.795 83.7654 105.086 83.7654 104.217V96.6799C83.7654 95.8121 84.5574 95.1025 85.5285 95.1025H90.7778C91.7477 95.1025 92.5409 95.8111 92.5409 96.6799V104.217C92.5409 105.085 91.749 105.795 90.7778 105.795H85.5285ZM109.93 105.795H104.679C103.71 105.795 102.915 105.086 102.915 104.217V96.6799C102.915 95.8121 103.71 95.1025 104.679 95.1025H109.93C110.899 95.1025 111.693 95.8111 111.693 96.6799V104.217C111.693 105.085 110.899 105.795 109.93 105.795ZM130.846 104.217C130.846 105.085 130.052 105.795 129.082 105.795H123.832C122.862 105.795 122.069 105.086 122.069 104.217V96.6799C122.069 95.8121 122.861 95.1025 123.832 95.1025H129.082C130.052 95.1025 130.846 95.8111 130.846 96.6799V104.217ZM130.846 13.6897C130.846 14.5574 130.052 15.2671 129.082 15.2671H123.832C122.862 15.2671 122.069 14.5585 122.069 13.6897V6.15239C122.069 5.28463 122.861 4.57502 123.832 4.57502H129.082C130.052 4.57502 130.846 5.28359 130.846 6.15239V13.6897Z" fill="#E4E4E4"/>
</svg>
