<svg width="40" height="40" viewBox="0 0 40 40" fill="none" xmlns="http://www.w3.org/2000/svg">
<rect width="40" height="40" rx="20" fill="#33E0A0"/>
<g clip-path="url(#clip0_1638_3231)">
<path d="M17.9931 26.5762C15.2904 29.0782 11.1218 28.9035 8.63152 26.3751C7.29219 25.0151 6.63128 23.368 6.66742 21.4603C6.70356 19.5476 7.4904 17.9553 8.84014 16.6128C8.1086 15.8163 7.38965 15.0336 6.67125 14.2509L6.6844 14.2208C6.73203 14.2208 6.77967 14.2208 6.82731 14.2208C8.35117 14.2208 9.87448 14.2208 11.3983 14.223C11.5106 14.223 11.6037 14.1983 11.6989 14.1348C13.4648 12.9533 15.395 12.1777 17.4866 11.8063C18.6978 11.5916 19.9184 11.5237 21.1454 11.6064C23.8794 11.791 26.3883 12.6422 28.6689 14.1649C28.7253 14.2027 28.8074 14.218 28.8775 14.218C30.4096 14.2208 31.9417 14.2202 33.4732 14.2202C33.5181 14.2202 33.5635 14.2202 33.6084 14.2202L33.6287 14.2482C32.9136 15.027 32.1985 15.8059 31.4735 16.5958C31.5255 16.6544 31.5732 16.7103 31.6219 16.7645C32.2472 17.4601 32.7865 18.21 33.1441 19.0842C34.4703 22.3268 33.0204 26.1319 29.8719 27.6667C28.7675 28.2051 27.6039 28.4363 26.3823 28.3432C24.8541 28.2271 23.5158 27.6486 22.3703 26.6282C22.3523 26.6123 22.3331 26.5975 22.3052 26.5751C21.589 27.354 20.8766 28.1296 20.1489 28.9216C19.4283 28.1378 18.7148 27.3605 17.9931 26.5762ZM26.8855 26.1632C29.4103 26.155 31.4417 24.1195 31.4363 21.6038C31.4308 19.0864 29.3878 17.0564 26.8669 17.0635C24.347 17.0707 22.3293 19.1148 22.3353 21.6536C22.3413 24.1338 24.3968 26.1708 26.8855 26.1632ZM13.3986 26.1632C15.8938 26.1697 17.9526 24.1404 17.9619 21.6651C17.9712 19.1192 15.9551 17.0761 13.4292 17.0625C10.9055 17.0482 8.86587 19.1132 8.85985 21.6049C8.85383 24.113 10.8864 26.1566 13.3986 26.1632ZM25.1662 14.786C21.814 13.4698 18.4799 13.4693 15.1316 14.786C17.8951 16.0097 19.7634 17.9224 20.1489 20.8972C20.5366 17.9235 22.4015 16.0119 25.1662 14.786Z" fill="#1D1D1D"/>
<path d="M26.8969 19.209C28.2269 19.215 29.2908 20.2946 29.2848 21.6333C29.2788 22.9468 28.1913 24.0209 26.8756 24.0127C25.539 24.0039 24.4827 22.9249 24.4893 21.5747C24.4953 20.2694 25.5806 19.2035 26.8969 19.2095V19.209Z" fill="#1A1A1A"/>
<path d="M13.4056 19.209C14.7131 19.2014 15.8011 20.2749 15.8088 21.5813C15.817 22.9194 14.7531 24.0056 13.4269 24.0133C12.1062 24.0209 11.021 22.9545 11.0127 21.6404C11.0045 20.2946 12.0646 19.2167 13.405 19.209H13.4056Z" fill="#1A1A1A"/>
</g>
<defs>
<clipPath id="clip0_1638_3231">
<rect width="26.97" height="17.3491" fill="white" transform="translate(6.66602 11.5723)"/>
</clipPath>
</defs>
</svg>
