<svg width="64" height="64" viewBox="0 0 64 64" fill="none" xmlns="http://www.w3.org/2000/svg">
<g clip-path="url(#clip0_1671_24121)">
<circle cx="32" cy="32" r="32" fill="#1A1A1A"/>
<circle cx="32" cy="32" r="28" fill="#F96515"/>
<path d="M41.7047 22.6307C40.9436 21.88 39.7181 21.8884 38.9676 22.6494L34.4258 27.254L34.8822 29.4462L37.0037 30.1529L41.7236 25.3678C42.4741 24.6068 42.4657 23.3813 41.7047 22.6307ZM29.2656 27.4303L18.9653 18.2513C18.1672 17.54 16.9438 17.6105 16.2327 18.4087C15.5216 19.2067 15.5919 20.4302 16.3901 21.1413L26.8932 30.501L29.0818 29.771L29.2656 27.4303Z" fill="#1A1A1A"/>
<path d="M45.7066 44.4792C45.479 44.4794 45.2586 44.3991 45.0846 44.2524L32.8255 33.9552C32.6306 33.7896 32.5092 33.5536 32.4878 33.2988C32.4664 33.044 32.5466 32.7911 32.7111 32.5953C32.8756 32.3995 33.1109 32.2768 33.3655 32.2539C33.6202 32.231 33.8736 32.3099 34.0703 32.4732L46.3295 42.7706C46.4815 42.8983 46.5905 43.0697 46.6418 43.2616C46.693 43.4534 46.6841 43.6563 46.6161 43.8429C46.5481 44.0294 46.4243 44.1906 46.2616 44.3044C46.0989 44.4182 45.9051 44.4792 45.7066 44.4792Z" fill="#1A1A1A"/>
<path d="M26.8906 30.5008L28.6981 32.1115L31.0194 31.3228L30.8935 28.8829L29.2631 27.43C28.1287 28.1117 27.2701 29.2038 26.8906 30.5008ZM34.4231 27.2539L32.8864 28.8119V31.8702H35.3071L37.0011 30.1528C36.5356 28.8933 35.6073 27.8592 34.4231 27.2539Z" fill="#1A1A1A"/>
<path d="M35.1049 30.8375C34.6346 29.5838 33.425 28.6914 32.007 28.6914C30.589 28.6914 29.3794 29.5838 28.9091 30.8375C28.7736 31.1989 28.9001 34.1453 32.007 34.1453C35.1139 34.1453 35.2404 31.1989 35.1049 30.8375Z" fill="#1A1A1A"/>
<path d="M32.0029 32.9851C30.5849 32.9851 29.3758 32.0926 28.9056 30.8389C28.7662 31.2102 28.695 31.6035 28.6953 32.0001C28.6953 33.8269 30.1762 35.3076 32.0028 35.3076C33.8296 35.3076 35.3103 33.8267 35.3103 32.0001C35.3103 31.5914 35.2357 31.2002 35.1002 30.8389C34.6301 32.0925 33.4209 32.9851 32.0029 32.9851Z" fill="#1A1A1A"/>
<path d="M32.9726 11.6957V8.69228C32.9726 8.43512 32.8704 8.18849 32.6886 8.00665C32.5067 7.82481 32.2601 7.72266 32.0029 7.72266C31.7458 7.72266 31.4991 7.82481 31.3173 8.00665C31.1355 8.18849 31.0333 8.43512 31.0333 8.69228V11.6957C31.0333 12.2312 31.4673 12.6653 32.0029 12.6653C32.5386 12.6653 32.9726 12.2312 32.9726 11.6957ZM31.0333 52.3024V55.3058C31.0333 55.8413 31.4673 56.2754 32.0029 56.2754C32.5386 56.2754 32.9726 55.8413 32.9726 55.3058V52.3024C32.9726 52.0452 32.8704 51.7986 32.6886 51.6168C32.5067 51.4349 32.2601 51.3328 32.0029 51.3328C31.7458 51.3328 31.4991 51.4349 31.3173 51.6168C31.1355 51.7986 31.0333 52.0452 31.0333 52.3024ZM55.3097 32.9687C55.5668 32.9687 55.8135 32.8665 55.9953 32.6847C56.1772 32.5028 56.2793 32.2562 56.2793 31.999C56.2793 31.7419 56.1772 31.4952 55.9953 31.3134C55.8135 31.1316 55.5668 31.0294 55.3097 31.0294H52.3063C52.0492 31.0294 51.8025 31.1316 51.6207 31.3134C51.4388 31.4952 51.3367 31.7419 51.3367 31.999C51.3367 32.2562 51.4388 32.5028 51.6207 32.6847C51.8025 32.8665 52.0492 32.9687 52.3063 32.9687H55.3097ZM8.69619 31.0294C8.16056 31.0294 7.72656 31.4635 7.72656 31.999C7.72656 32.5345 8.16056 32.9687 8.69619 32.9687H11.6996C11.9567 32.9687 12.2034 32.8665 12.3852 32.6847C12.567 32.5028 12.6692 32.2562 12.6692 31.999C12.6692 31.7419 12.567 31.4952 12.3852 31.3134C12.2034 31.1316 11.9567 31.0294 11.6996 31.0294H8.69619Z" fill="#1A1A1A"/>
</g>
<defs>
<clipPath id="clip0_1671_24121">
<rect width="64" height="64" fill="white"/>
</clipPath>
</defs>
</svg>
