<svg width="64" height="64" viewBox="0 0 64 64" fill="none" xmlns="http://www.w3.org/2000/svg">
<g clip-path="url(#clip0_1671_24060)">
<path d="M41.8782 42.3419C42.9169 41.3099 44.0886 40.7939 45.262 40.7939C46.4353 40.7939 47.6104 41.3099 48.6557 42.3419C51.1994 44.8722 53.7431 47.4026 56.2735 49.9463C57.3321 51.0116 57.858 52.1967 57.853 53.385C57.848 54.5733 57.3121 55.765 56.2468 56.8437C55.7539 57.3412 55.25 57.8309 54.7458 58.3208C53.779 59.2603 52.8114 60.2007 51.9185 61.1986C49.9344 63.4224 47.4576 64.1415 44.6078 63.9817C40.4661 63.7553 36.6573 62.3837 32.9817 60.5991C24.818 56.6305 17.8396 51.1303 11.9931 44.1785C7.66491 39.0379 4.0958 33.4312 1.75191 27.1187C0.6066 24.0689 -0.205735 20.9394 0.0472885 17.6235C0.207086 15.586 0.966113 13.8416 2.47085 12.4168C3.44555 11.49 4.38672 10.5393 5.32883 9.58757C5.95717 8.95285 6.58592 8.3177 7.22531 7.68896C8.26396 6.66363 9.43571 6.15102 10.6091 6.14935C11.7824 6.14769 12.9575 6.65697 14.0028 7.67564C14.864 8.51911 15.7134 9.37442 16.5628 10.2297C16.9875 10.6574 17.4121 11.085 17.8383 11.5112C18.4576 12.1371 19.0769 12.7564 19.6961 13.3757C20.3154 13.9949 20.9347 14.6142 21.554 15.2401C22.6459 16.3387 23.1918 17.5271 23.1935 18.7138C23.1951 19.9004 22.6526 21.0855 21.5673 22.1774C21.3437 22.4029 21.1204 22.6285 20.8972 22.8538C19.5649 24.1991 18.2368 25.5402 16.8794 26.852C16.6729 27.0585 16.5596 27.2451 16.5246 27.4434C16.4896 27.6418 16.5329 27.8517 16.6395 28.1048C17.6917 30.6087 19.1966 32.8328 20.888 34.9105C24.2974 39.0923 28.1463 42.808 32.7411 45.6981C33.2339 46.0044 33.7533 46.2708 34.2777 46.5305C34.3865 46.5844 34.4956 46.638 34.6046 46.6916C35.0211 46.8963 35.4379 47.1012 35.8442 47.3229C36.104 47.4694 36.3239 47.5195 36.5323 47.4778C36.7407 47.4361 36.9373 47.3028 37.1504 47.083C38.7085 45.485 40.2932 43.9136 41.8779 42.3422L41.8782 42.3419Z" fill="#F96515" stroke="#F96515" stroke-width="0.00182079"/>
<path fill-rule="evenodd" clip-rule="evenodd" d="M47.8038 11.7905C42.4569 7.8864 36.1188 6.06983 31.3294 5.53799C30.2315 5.41607 29.3723 4.48974 29.4171 3.38598L29.4732 2.00395C29.518 0.900392 30.448 0.0374508 31.5469 0.148092C37.1506 0.712287 44.6061 2.78653 50.9868 7.44541C57.9054 12.4971 63.4601 20.5316 64.0156 32.5613C64.0666 33.6647 63.1659 34.5635 62.0613 34.5635H60.6694C59.5648 34.5635 58.6757 33.6666 58.6172 32.5636C58.0792 22.4068 53.4463 15.9105 47.8038 11.7905Z" fill="#1D1D1D"/>
<path fill-rule="evenodd" clip-rule="evenodd" d="M42.0008 19.2638C38.623 16.799 34.6431 15.5613 31.4906 15.1163C30.3967 14.9619 29.5364 14.0363 29.5812 12.9325L29.6366 11.5693C29.6814 10.4658 30.613 9.60193 31.7094 9.73517C35.6799 10.2177 40.7737 11.7225 45.1747 14.9339C50.0957 18.5248 54.054 24.195 54.5992 32.5664C54.671 33.6686 53.7679 34.5669 52.6633 34.5669H51.2868C50.1823 34.5669 49.2968 33.6691 49.2089 32.5681C48.6911 26.0793 45.6546 21.93 42.0008 19.2638Z" fill="#1D1D1D"/>
</g>
<defs>
<clipPath id="clip0_1671_24060">
<rect width="64" height="64" fill="white"/>
</clipPath>
</defs>
</svg>
