<svg width="52" height="64" viewBox="0 0 52 64" fill="none" xmlns="http://www.w3.org/2000/svg">
<g id="Group 1000004073">
<ellipse id="Ellipse 1989" cx="26.1842" cy="19.7506" rx="15.3795" ry="15.3795" fill="#1D1D1D"/>
<path id="Vector" d="M31.1775 49.2773C42.8851 49.9507 51.7106 52.9598 51.7106 56.5687C51.7106 60.6707 40.2869 63.9999 26.1873 63.9999C12.092 63.9999 0.664062 60.6707 0.664062 56.5687C0.664062 53.0016 9.2862 50.0242 20.7877 49.3004L31.1775 49.2773Z" fill="#1D1D1D"/>
<path id="Vector_2" d="M25.9571 0C37.0029 0 45.9581 8.9552 45.9581 20.0039C45.9581 26.2398 37.5306 39.2653 31.1736 49.2774C29.4416 52.0059 27.8629 54.5105 26.6506 56.5929C26.3433 57.1208 25.5705 57.121 25.2633 56.5931C24.079 54.558 22.5126 52.0528 20.7838 49.3004C14.4599 39.2379 5.95312 25.8606 5.95312 20.0039C5.95312 8.9552 14.9083 0 25.9571 0ZM34.8935 19.2499C34.8935 14.3246 30.8795 10.3091 25.9571 10.3091C21.0318 10.3091 17.0177 14.3246 17.0177 19.2499C17.0177 24.1723 21.0318 28.1863 25.9571 28.1863C30.8795 28.1863 34.8935 24.1723 34.8935 19.2499Z" fill="#F96515"/>
</g>
</svg>
