<svg width="16" height="16" viewBox="0 0 16 16" fill="none" xmlns="http://www.w3.org/2000/svg">
<mask id="mask0_4365_41853" style="mask-type:luminance" maskUnits="userSpaceOnUse" x="0" y="-1" width="17" height="17">
<path d="M13.6078 -0.00292969H2.40781C1.08233 -0.00292969 0.0078125 1.07154 0.0078125 2.39697V13.5965C0.0078125 14.922 1.08233 15.9964 2.40781 15.9964H13.6078C14.9333 15.9964 16.0078 14.922 16.0078 13.5965V2.39697C16.0078 1.07154 14.9333 -0.00292969 13.6078 -0.00292969Z" fill="white"/>
</mask>
<g mask="url(#mask0_4365_41853)">
<path d="M0.0078125 15.9964V-0.00292969H16.0078L0.0078125 15.9964Z" fill="#35A85B"/>
<path d="M8.00781 8.99609L1.00781 15.9958H15.0078L8.00781 8.99609Z" fill="#5881CA"/>
<path d="M9.00781 7.99679L16.0078 0.99707V14.9965L9.00781 7.99679Z" fill="#C1C0BE"/>
<path d="M0.0078125 15.9964L16.0078 -0.00292969L0.0078125 15.9964Z" fill="black"/>
<path d="M0.0078125 15.9964L16.0078 -0.00292969" stroke="#FADB2A" stroke-width="2.21871"/>
<path d="M5.47504 5.40356H7.03754C7.02174 5.78955 6.88376 6.158 6.64666 6.44734C6.40955 6.73669 6.08769 6.92939 5.73484 6.99325C5.38199 7.05712 5.01954 6.98828 4.70804 6.79824C4.39654 6.6082 4.15486 6.30847 4.02339 5.94913C3.89191 5.58979 3.87861 5.1926 3.9857 4.82394C4.09279 4.45528 4.31379 4.13748 4.61176 3.92363C4.90973 3.70978 5.26664 3.61284 5.62284 3.64901C5.97903 3.68518 6.31295 3.85227 6.56879 4.12236" stroke="#F2F2F2" stroke-width="0.687486"/>
<path d="M11.0391 2.65323C11.0391 2.07309 11.2695 1.51672 11.6798 1.1065C12.09 0.696279 12.6464 0.46582 13.2266 0.46582C13.8067 0.46582 14.3631 0.696279 14.7734 1.1065C15.1836 1.51672 15.4141 2.07309 15.4141 2.65323C15.4141 4.84064 13.2266 4.84064 13.2266 7.55928C13.2266 4.84064 11.0391 4.84064 11.0391 2.65323Z" fill="#DE3738"/>
<path d="M13.2266 3.55951C13.658 3.55951 14.0078 3.20974 14.0078 2.77829C14.0078 2.34683 13.658 1.99707 13.2266 1.99707C12.7951 1.99707 12.4453 2.34683 12.4453 2.77829C12.4453 3.20974 12.7951 3.55951 13.2266 3.55951Z" fill="#7D2426"/>
</g>
</svg>
