<svg width="36" height="30" viewBox="0 0 36 30" fill="none" xmlns="http://www.w3.org/2000/svg">
<g id="Group">
<path id="Vector" d="M6.25925 1.50766C6.40906 0.642793 7.21848 0.0653416 8.06709 0.217761L34.7109 5.0046C35.5598 5.15702 36.1265 5.98183 35.9767 6.8467L35.4596 9.83441L5.74219 4.49537L6.25925 1.50766Z" fill="#F96515"/>
<path id="Vector_2" d="M35.4606 9.83542L33.4719 21.3267C33.3221 22.1915 32.5127 22.769 31.6641 22.6166L5.02029 17.8295C4.17138 17.677 3.60467 16.8522 3.75448 15.9874L5.74319 4.49609L35.4606 9.83542Z" fill="#262626"/>
<path id="Vector_3" d="M1.45161 11.9238H28.7245C29.1095 11.9238 29.4787 12.0768 29.751 12.349C30.0232 12.6212 30.1761 12.9904 30.1761 13.3754V28.3549C30.1761 28.7399 30.0232 29.1091 29.751 29.3814C29.4787 29.6536 29.1095 29.8065 28.7245 29.8065H1.45161C1.06662 29.8065 0.697398 29.6536 0.425168 29.3814C0.152937 29.1091 0 28.7399 0 28.3549L0 13.3754C0 12.9904 0.152937 12.6212 0.425168 12.349C0.697398 12.0768 1.06662 11.9238 1.45161 11.9238Z" fill="#F96515"/>
<g id="Group_2">
<path id="Vector_4" d="M13.538 26.7631H10.0881C9.9341 26.7631 9.78641 26.7019 9.67752 26.593C9.56862 26.4841 9.50745 26.3364 9.50745 26.1824C9.50745 26.0284 9.56862 25.8807 9.67752 25.7719C9.78641 25.663 9.9341 25.6018 10.0881 25.6018H13.538C13.692 25.6018 13.8397 25.663 13.9486 25.7719C14.0575 25.8807 14.1186 26.0284 14.1186 26.1824C14.1186 26.3364 14.0575 26.4841 13.9486 26.593C13.8397 26.7019 13.692 26.7631 13.538 26.7631ZM6.98338 26.7631H3.53377C3.37977 26.7631 3.23208 26.7019 3.12319 26.593C3.0143 26.4841 2.95312 26.3364 2.95312 26.1824C2.95312 26.0284 3.0143 25.8807 3.12319 25.7719C3.23208 25.663 3.37977 25.6018 3.53377 25.6018H6.98367C7.13767 25.6018 7.28534 25.663 7.39421 25.772C7.50307 25.8809 7.56421 26.0286 7.56417 26.1826C7.56414 26.3366 7.50292 26.4843 7.394 26.5931C7.28508 26.702 7.13738 26.7631 6.98338 26.7631ZM20.0926 26.7631H16.6427C16.4887 26.7631 16.341 26.7019 16.2321 26.593C16.1232 26.4841 16.0621 26.3364 16.0621 26.1824C16.0621 26.0284 16.1232 25.8807 16.2321 25.7719C16.341 25.663 16.4887 25.6018 16.6427 25.6018H20.0926C20.2466 25.6018 20.3943 25.663 20.5032 25.7719C20.6121 25.8807 20.6733 26.0284 20.6733 26.1824C20.6733 26.3364 20.6121 26.4841 20.5032 26.593C20.3943 26.7019 20.2466 26.7631 20.0926 26.7631ZM26.6469 26.7631H23.1973C23.0433 26.7631 22.8956 26.7019 22.7867 26.593C22.6779 26.4841 22.6167 26.3364 22.6167 26.1824C22.6167 26.0284 22.6779 25.8807 22.7867 25.7719C22.8956 25.663 23.0433 25.6018 23.1973 25.6018H26.6472C26.8012 25.6018 26.9489 25.663 27.0578 25.772C27.1666 25.8809 27.2278 26.0286 27.2277 26.1826C27.2277 26.3366 27.1665 26.4843 27.0576 26.5931C26.9486 26.702 26.8009 26.7631 26.6469 26.7631ZM4.15884 23.047H8.56274C8.79373 23.047 9.01527 22.9552 9.17861 22.7919C9.34194 22.6285 9.43371 22.407 9.43371 22.176V20.369C9.43371 20.138 9.34194 19.9165 9.17861 19.7531C9.01527 19.5898 8.79373 19.498 8.56274 19.498H4.15884C3.92784 19.498 3.70631 19.5898 3.54297 19.7531C3.37963 19.9165 3.28787 20.138 3.28787 20.369V22.176C3.28787 22.407 3.37963 22.6285 3.54297 22.7919C3.70631 22.9552 3.92784 23.047 4.15884 23.047Z" fill="#262626"/>
</g>
</g>
</svg>
