<svg width="36" height="36" viewBox="0 0 36 36" fill="none" xmlns="http://www.w3.org/2000/svg">
<g id="Group">
<g id="Clip path group">
<mask id="mask0_4310_35986" style="mask-type:luminance" maskUnits="userSpaceOnUse" x="0" y="0" width="36" height="36">
<g id="a">
<path id="Vector" d="M0 0.000156403H35.9999V36H0V0.000156403Z" fill="white"/>
</g>
</mask>
<g mask="url(#mask0_4310_35986)">
<g id="Group_2">
<path id="Vector_2" d="M35.9047 15.6938C35.6861 11.6003 33.9886 7.78266 31.0678 4.86189C27.9327 1.72674 23.7643 0.000156403 19.3306 0.000156403C12.7537 0.000156403 6.27456 1.75177 0.593536 5.06566C0.454148 5.14697 0.335279 5.25919 0.246079 5.39367C0.15688 5.52815 0.0997296 5.68131 0.0790275 5.84135C0.0583255 6.00139 0.0746232 6.16404 0.126668 6.3168C0.178712 6.46955 0.265115 6.60832 0.379224 6.72243L2.63287 8.97607C0.954097 12.1787 0.0703415 15.7581 0.0703415 19.3797V22.924C0.0703415 25.9214 2.0888 28.5698 4.97884 29.3646L28.3252 35.7848C28.8444 35.9276 29.3805 36 29.919 36C32.7665 36 35.1562 34.0088 35.7732 31.3461L33.8202 22.5704L35.9047 15.6938Z" fill="#F96515"/>
<path id="Vector_3" d="M35.9023 15.6938C35.6837 11.6003 33.9862 7.78266 31.0654 4.86189C27.9303 1.72674 23.7619 0.000156403 19.3281 0.000156403V33.3113L28.3228 35.7848C28.842 35.9276 29.378 36 29.9165 36C32.7641 36 35.1538 34.0088 35.7708 31.3461L33.8178 22.5704L35.9023 15.6938Z" fill="#F96515"/>
<path id="Vector_4" d="M35.9048 15.6934L22.9219 12.4477C22.3393 12.4477 21.8672 12.9199 21.8672 13.5024V24.2762C21.8672 24.4486 21.9094 24.6183 21.9902 24.7705L22.9219 26.5264L35.7733 31.3457C35.8768 30.9009 35.9293 30.4457 35.9296 29.989V16.5987C35.9296 16.2956 35.9208 15.9938 35.9048 15.6934Z" fill="#262626"/>
<path id="Vector_5" d="M20.0031 11.719C18.4499 11.3307 16.9453 12.5054 16.9453 14.1064V22.5807C16.9453 23.0817 17.0982 23.5707 17.3836 23.9825C17.6689 24.3942 18.0731 24.7091 18.5422 24.885L22.9219 26.5273V12.4487L20.0031 11.719Z" fill="#262626"/>
<path id="Vector_6" d="M16.9453 14.1054V22.5798C16.9453 23.0807 17.0982 23.5698 17.3835 23.9815C17.6689 24.3933 18.0731 24.7081 18.5422 24.884L19.3306 25.1797V11.6452C18.0428 11.6827 16.9453 12.7382 16.9453 14.1054Z" fill="#262626"/>
<path id="Vector_7" d="M12.375 19.336C12.375 20.8892 11.1158 22.1484 9.56249 22.1484C8.00922 22.1484 6.75 20.8892 6.75 19.336C6.75 17.7827 8.00922 16.5235 9.56249 16.5235C11.1158 16.5235 12.375 17.7827 12.375 19.336Z" fill="#F96515"/>
<path id="Vector_8" d="M9.56249 17.5781C8.59323 17.5781 7.80468 18.3667 7.80468 19.336C7.80468 20.3052 8.59323 21.0938 9.56249 21.0938C10.5317 21.0938 11.3203 20.3052 11.3203 19.336C11.3203 18.3667 10.5317 17.5781 9.56249 17.5781ZM9.56249 23.2031C7.43013 23.2031 5.69531 21.4683 5.69531 19.336C5.69531 17.2036 7.43013 15.4688 9.56249 15.4688C11.6948 15.4688 13.4297 17.2036 13.4297 19.336C13.4297 21.4683 11.6948 23.2031 9.56249 23.2031Z" fill="#262626"/>
</g>
</g>
</g>
</g>
</svg>
