<svg width="36" height="36" viewBox="0 0 36 36" fill="none" xmlns="http://www.w3.org/2000/svg">
<g id="Group">
<path id="Vector" d="M32.1213 0H3.879C1.73995 0 0 1.73995 0 3.879V24.5676C0 26.7064 1.73995 28.4463 3.879 28.4463H12.8296L15.7937 34.3749C16.31 35.4075 17.1139 36 18 36C18.8861 36 19.69 35.4075 20.2063 34.3749L23.1707 28.4466H32.1213C34.26 28.4466 36 26.7067 36 24.5676V3.879C36 1.73995 34.26 0 32.1213 0Z" fill="#F96515"/>
<path id="Vector_2" d="M18.0015 18.4288C16.1743 18.4288 14.6875 19.9156 14.6875 21.7429C14.6875 23.5701 16.1743 25.0569 18.0015 25.0569C19.8288 25.0569 21.3159 23.5702 21.3159 21.7429C21.3159 19.9155 19.8288 18.4288 18.0015 18.4288ZM18.0015 4.51855C16.1743 4.51855 14.6875 6.00496 14.6875 7.83252V12.7055C14.6875 14.5328 16.1743 16.0196 18.0015 16.0196C19.8288 16.0196 21.3159 14.5328 21.3159 12.7055V7.83224C21.3159 6.00496 19.8288 4.51855 18.0015 4.51855Z" fill="#262626"/>
</g>
</svg>
