<svg width="36" height="36" viewBox="0 0 36 36" fill="none" xmlns="http://www.w3.org/2000/svg">
<g id="Group">
<path id="Vector" d="M33.4392 10.1787H32.9434L31.7058 11.0849L30.6875 12.6467V17.3396L31.0125 17.6568L31.469 17.8293H35.1191C35.6051 17.8293 35.999 17.4354 35.999 16.9493V14.1038C35.999 12.3587 34.9434 10.8482 33.4392 10.1787Z" fill="#262626"/>
<path id="Vector_2" d="M17.8349 11.3705C17.3832 10.8262 16.8003 10.3942 16.1361 10.124H15.6032L14.1509 11.1459L13.5499 12.4481L13.1875 13.3829V17.0056L13.5165 17.6177L14.063 17.8292H17.5691L18.3021 17.2727V11.9528L17.8349 11.3705Z" fill="#262626"/>
<path id="Vector_3" d="M13.4436 16.9496V14.1677C13.4436 12.3596 14.5468 10.7739 16.1357 10.1243C15.556 9.88846 14.9314 9.78338 14.3065 9.81652C12.0147 9.93521 10.2383 11.8728 10.2383 14.1677V16.9495C10.2383 17.4355 10.6322 17.8295 11.1182 17.8295H14.3235C13.8376 17.8295 13.4436 17.4356 13.4436 16.9496Z" fill="#262626"/>
<path id="Vector_4" d="M30.8811 16.9495V14.104C30.8811 12.3587 31.9368 10.8482 33.4409 10.1788C32.8259 9.90497 32.1547 9.78083 31.4824 9.81655C30.2451 9.8806 29.1587 10.4755 28.4203 11.3699L27.9375 11.9754V17.1395L28.6705 17.8296H31.7611C31.2752 17.8296 30.8811 17.4356 30.8811 16.9495Z" fill="#262626"/>
<path id="Vector_5" d="M24.7263 7.70312L23.6172 7.92412L22.226 8.43606L20.2812 10.6063V16.7395L20.7751 17.8294H28.669V13.0137C28.669 10.5196 27.0014 8.39641 24.7263 7.70312Z" fill="#262626"/>
<path id="Vector_6" d="M24.7268 7.70297C24.1818 7.53694 23.6144 7.45646 23.0448 7.4644C19.9973 7.50532 17.5703 10.0386 17.5703 13.0864V17.8292H20.7756V13.0864C20.7756 10.5686 22.4326 8.40343 24.7268 7.70297Z" fill="#262626"/>
<path id="Vector_7" d="M15.7723 4.31445H15.2046L14.0032 5.23062C14.0032 5.23062 13.7503 6.67745 13.7098 6.74424C13.6693 6.81104 13.55 8.23557 13.7098 8.30237C13.8696 8.36916 15.0605 9.44867 15.0605 9.44867L15.7724 9.53248C16.7477 9.06898 17.4221 8.07512 17.4221 6.92347C17.4221 5.77182 16.7476 4.77795 15.7723 4.31445Z" fill="#F96515"/>
<path id="Vector_8" d="M14.1198 6.92352C14.1198 5.77187 14.7943 4.77793 15.7696 4.3145C15.3829 4.13072 14.96 4.03562 14.5319 4.03613C12.9373 4.03613 11.6445 5.32883 11.6445 6.92352C11.6445 8.51821 12.9372 9.8109 14.5319 9.8109C14.96 9.81142 15.3829 9.71631 15.7696 9.53253C14.7942 9.0691 14.1198 8.07524 14.1198 6.92352Z" fill="#F96515"/>
<path id="Vector_9" d="M32.9445 4.31445H32.4215L31.5756 5.21952C31.5756 5.21952 31.1416 6.52163 31.1193 6.59954C31.097 6.67745 31.1193 7.3118 31.1193 7.3118L31.4198 8.60281L32.1544 9.27057L32.9445 9.53241C33.9198 9.06891 34.5943 8.07505 34.5943 6.9234C34.5943 5.77175 33.9198 4.77795 32.9445 4.31445Z" fill="#F96515"/>
<path id="Vector_10" d="M31.2956 6.92352C31.2956 5.77187 31.97 4.77793 32.9453 4.3145C32.5587 4.13072 32.1358 4.03562 31.7077 4.03613C30.113 4.03613 28.8203 5.32883 28.8203 6.92352C28.8203 8.51821 30.113 9.8109 31.7077 9.8109C32.1358 9.81142 32.5587 9.71631 32.9453 9.53253C31.97 9.0691 31.2956 8.07524 31.2956 6.92352Z" fill="#F96515"/>
<path id="Vector_11" d="M24.7026 0.350586H24.2711L22.7018 1.51313L22.2344 2.98224V4.68507L23.2972 6.39345L23.9037 6.91651L24.2933 7.06677L24.7025 7.11324C25.9736 6.51812 26.8544 5.22816 26.8544 3.73191C26.8544 2.23566 25.9737 0.945711 24.7026 0.350586Z" fill="#F96515"/>
<path id="Vector_12" d="M22.5515 3.73233C22.5515 2.23608 23.4323 0.946197 24.7034 0.351002C24.2087 0.119312 23.6691 -0.000529527 23.123 1.75878e-06C21.0617 1.75878e-06 19.3906 1.67098 19.3906 3.73233C19.3906 5.79368 21.0617 7.46466 23.123 7.46466C23.6691 7.46518 24.2087 7.34534 24.7034 7.11366C23.4323 6.51846 22.5515 5.22858 22.5515 3.73233Z" fill="#F96515"/>
<path id="Vector_13" d="M35.7951 25.4001C34.8609 23.4491 32.7106 24.3714 32.53 24.4389L23.5054 27.1088C23.4952 27.1119 23.4844 27.1123 23.4741 27.1098C23.4638 27.1074 23.4543 27.1022 23.4466 27.0949C23.4389 27.0876 23.4333 27.0784 23.4303 27.0682C23.4273 27.058 23.4271 27.0472 23.4297 27.0369C23.5276 26.6397 23.7568 25.1963 22.1332 24.5483C16.8881 22.4544 16.2626 22.1003 14.9352 22.0792L14.9351 22.0791C12.0475 22.0887 10.8237 22.1082 9.64145 22.4369L8.41534 23.3006L7.40552 25.0873L7.16406 29.6507L9.64138 32.0652L10.4534 32.4215C12.0683 32.0498 13.6941 32.0877 15.0381 32.6239L18.4229 33.9752C19.1628 34.2302 20.8625 34.6273 22.6262 33.7233L22.6277 33.7226L26.165 32.1579L28.4836 31.1323L34.4444 28.4956C34.8021 28.3121 36.6012 27.2328 35.7951 25.4001Z" fill="#F96515"/>
<path id="Vector_14" d="M7.63116 27.1025C7.63116 25.2646 8.40326 23.6072 9.64062 22.4365C9.1428 22.575 8.6523 22.7682 8.04804 23.0387C6.98537 23.5148 5.97089 24.0919 5.01855 24.762C4.39748 25.1985 3.70842 25.5291 2.97647 25.7303L0.485508 26.4152C0.345999 26.4535 0.22294 26.5366 0.135231 26.6517C0.0475212 26.7667 1.21142e-05 26.9074 0 27.0521L0 35.3389C0 35.8013 0.462797 36.1206 0.895078 35.9565L9.55484 32.6687C9.85028 32.5729 10.1498 32.4903 10.4526 32.421C8.7499 31.266 7.63116 29.3149 7.63116 27.1025Z" fill="#F96515"/>
<path id="Vector_15" d="M24.234 14.3857H23.6106L21.9928 15.7323L21.5703 16.7946V18.8108L22.4878 20.5734L23.5804 21.2796L24.234 21.2732C25.6877 20.8034 26.7394 19.4395 26.7394 17.8294C26.7394 16.2194 25.6876 14.8556 24.234 14.3857Z" fill="#F96515"/>
<path id="Vector_16" d="M21.7274 17.8301C21.7274 16.22 22.7791 14.8561 24.2328 14.3863C23.873 14.27 23.4972 14.2108 23.1191 14.2109C21.1204 14.2109 19.5 15.8313 19.5 17.8301C19.5 19.8288 21.1204 21.4492 23.1191 21.4492C23.4972 21.4493 23.873 21.3902 24.2328 21.2738C22.7791 20.804 21.7274 19.4401 21.7274 17.8301Z" fill="#F96515"/>
<path id="Vector_17" d="M22.9428 19.3977C22.8714 19.3978 22.8007 19.3838 22.7348 19.3565C22.6689 19.3292 22.609 19.2891 22.5586 19.2386L21.4247 18.1047C21.3228 18.0028 21.2656 17.8646 21.2656 17.7205C21.2656 17.5764 21.3228 17.4382 21.4247 17.3363C21.5266 17.2345 21.6648 17.1773 21.8089 17.1773C21.9529 17.1773 22.0911 17.2345 22.193 17.3363L22.9428 18.0861L24.2164 16.8125C24.3185 16.7115 24.4564 16.6549 24.6 16.6553C24.7437 16.6556 24.8813 16.7128 24.9829 16.8144C25.0844 16.916 25.1417 17.0537 25.142 17.1973C25.1423 17.3409 25.0858 17.4789 24.9847 17.5809L23.3269 19.2386C23.2765 19.2891 23.2166 19.3291 23.1507 19.3565C23.0848 19.3838 23.0141 19.3978 22.9428 19.3977Z" fill="#262626"/>
</g>
</svg>
