<svg width="36" height="36" viewBox="0 0 36 36" fill="none" xmlns="http://www.w3.org/2000/svg">
<g id="Group">
<path id="Vector" d="M18 36.001C27.9411 36.001 36 27.9422 36 18.001C36 8.05987 27.9411 0.000976562 18 0.000976562C8.05888 0.000976562 0 8.05987 0 18.001C0 27.9422 8.05888 36.001 18 36.001Z" fill="#F96515"/>
<path id="Vector_2" d="M18.3702 21.2996C19.0186 21.9481 19.0186 23.0597 18.3702 23.7081L17.027 25.0513C16.3786 25.6997 15.267 25.6997 14.6185 25.0513L8.73632 19.1227C8.08789 18.4743 8.08789 17.3627 8.73632 16.7143L10.0795 15.3711C10.7279 14.7227 11.8395 14.7227 12.488 15.3711L18.3702 21.2996Z" fill="#1D1D1D"/>
<path id="Vector_3" d="M23.5119 11.0644C24.1603 10.416 25.2719 10.416 25.9204 11.0644L27.2635 12.4076C27.912 13.0561 27.912 14.1677 27.2635 14.8161L17.0739 24.9594C16.4255 25.6079 15.3139 25.6079 14.6654 24.9594L13.3223 23.6163C12.6738 22.9678 12.6738 21.8562 13.3223 21.2078L23.5119 11.0644Z" fill="#1D1D1D"/>
</g>
</svg>
