<svg width="36" height="36" viewBox="0 0 36 36" fill="none" xmlns="http://www.w3.org/2000/svg">
<g id="Group">
<path id="Vector" d="M25.4853 6.32812H21.0977V1.85625L18.9883 0H3.16797C1.41705 0 0.00390625 1.41321 0.00390625 3.16406V32.8359C0.00390625 34.5866 1.41705 36 3.16797 36H24.2617C26.0126 36 27.4258 34.5866 27.4258 32.8359V8.4375L25.4853 6.32812Z" fill="#F96515"/>
<path id="Vector_2" d="M27.4258 6.96094V8.4375H20.043C19.4523 8.4375 18.9883 7.97337 18.9883 7.38281V0H20.043C20.1063 0 20.1908 0 20.2538 0.0210938C21.1398 0.0420469 21.857 0.33743 22.4055 0.84368L26.4344 4.68274C27.0673 5.27344 27.4258 6.09609 27.4258 6.96094Z" fill="#1D1D1D"/>
<path id="Vector_3" d="M16.8789 7.38281C16.8789 7.97337 16.4149 8.4375 15.8242 8.4375H5.27734C4.68665 8.4375 4.22266 7.97337 4.22266 7.38281C4.22266 6.79212 4.68665 6.32812 5.27734 6.32812H15.8242C16.4149 6.32812 16.8789 6.79212 16.8789 7.38281ZM23.207 13.7812C23.207 14.3718 22.743 14.8359 22.1523 14.8359H5.27734C4.68665 14.8359 4.22266 14.3718 4.22266 13.7812C4.22266 13.1906 4.68665 12.7266 5.27734 12.7266H22.1523C22.743 12.7266 23.207 13.1906 23.207 13.7812ZM23.207 20.1094C23.207 20.6999 22.743 21.1641 22.1523 21.1641H5.27734C4.68665 21.1641 4.22266 20.6999 4.22266 20.1094C4.22266 19.5187 4.68665 19.0547 5.27734 19.0547H22.1523C22.743 19.0547 23.207 19.5187 23.207 20.1094ZM16.8789 26.4375C16.8789 27.0281 16.4149 27.4922 15.8242 27.4922H5.27734C4.68665 27.4922 4.22266 27.0281 4.22266 26.4375C4.22266 25.8468 4.68665 25.3828 5.27734 25.3828H15.8242C16.4149 25.3828 16.8789 25.8468 16.8789 26.4375Z" fill="#1D1D1D"/>
<path id="Vector_4" d="M24.9772 25.0871L23.416 23.7793L21.2013 24.623L21.1802 24.644L20.8426 25.0659C20.5261 25.4456 20.3153 25.8674 20.1678 26.3737L19.1973 30.487C19.1131 30.8667 19.2396 31.2674 19.556 31.5206C19.8933 31.8159 20.3575 31.837 20.6529 31.6894L24.513 30.0019C24.9561 29.812 25.3779 29.5167 25.673 29.137L26.032 28.6941L26.2214 26.1206L24.9772 25.0871Z" fill="#1D1D1D"/>
<path id="Vector_5" d="M35.9768 15.4479C35.9135 14.6043 35.5058 13.8448 34.894 13.3386C34.2399 12.7901 33.4384 12.537 32.5945 12.6004C31.751 12.6636 30.9702 13.0643 30.4429 13.7183L29.7469 14.5409L29.4727 17.0511L30.8227 18.169L32.3416 19.4558L34.5985 18.5908L35.2734 17.8104V17.7893C35.8219 17.1354 36.061 16.2918 35.9768 15.4479Z" fill="#F96515"/>
<path id="Vector_6" d="M32.1734 16.566L32.1727 16.5653L29.7477 14.541L21.1836 24.6449L23.6305 26.691L23.6319 26.6924L26.0352 28.6949L34.5992 18.591L32.1734 16.566Z" fill="#1D1D1D"/>
</g>
</svg>
