<svg width="34" height="34" viewBox="0 0 34 34" fill="none" xmlns="http://www.w3.org/2000/svg">
<g id="Group">
<path id="Vector" d="M17.3882 0.129713C16.891 0.117338 16.3937 0.129713 15.8987 0.162338C12.688 0.372713 9.65723 1.40996 6.98648 3.41921V2.37071C6.98648 2.07234 6.86795 1.7862 6.65698 1.57522C6.446 1.36424 6.15985 1.24571 5.86148 1.24571C5.56311 1.24571 5.27696 1.36424 5.06598 1.57522C4.85501 1.7862 4.73648 2.07234 4.73648 2.37071V5.85821C4.73648 6.86059 5.94473 7.36121 6.65461 6.65584C11.851 1.46059 20.0759 0.921713 25.9045 5.39471C31.7331 9.86771 33.3396 17.9497 29.6676 24.3127C25.9934 30.6757 18.1949 33.3195 11.4066 30.507C4.61836 27.6945 0.97673 20.3133 2.8791 13.2168C2.9175 13.074 2.92732 12.9249 2.90798 12.7783C2.88865 12.6316 2.84055 12.4902 2.76645 12.3622C2.69235 12.2341 2.59369 12.122 2.47615 12.0321C2.35861 11.9423 2.22448 11.8766 2.08148 11.8387C1.79386 11.7605 1.48695 11.7996 1.22814 11.9475C0.96933 12.0953 0.779778 12.3398 0.701105 12.6273C-1.48815 20.7993 2.72723 29.3527 10.5426 32.5916C18.358 35.8293 27.3827 32.757 31.6127 25.4332C35.8427 18.1095 33.9887 8.75734 27.277 3.60821C24.4353 1.42513 20.9708 0.206452 17.3882 0.129713ZM17.0024 5.48696C10.6562 5.48696 5.48235 10.653 5.48235 16.998C5.48235 23.343 10.6574 28.5157 17.0024 28.5157C23.3474 28.5157 28.5111 23.3418 28.5111 16.998C28.5111 10.6541 23.3474 5.48696 17.0024 5.48696ZM17.0024 9.92959C17.1501 9.93018 17.2963 9.95986 17.4325 10.0169C17.5688 10.074 17.6925 10.1574 17.7965 10.2623C17.9006 10.3672 17.983 10.4915 18.0389 10.6282C18.0949 10.7649 18.1234 10.9114 18.1229 11.0591V11.2323C19.2479 11.3853 20.212 12.0828 20.7239 13.0537C20.8626 13.3182 20.8906 13.627 20.8017 13.9121C20.7127 14.1973 20.5142 14.4354 20.2497 14.5742C19.9852 14.7129 19.6764 14.7409 19.3912 14.652C19.1061 14.563 18.868 14.3645 18.7292 14.1C18.6281 13.9032 18.4743 13.7384 18.285 13.624C18.0957 13.5096 17.8783 13.45 17.6571 13.452H16.6109C15.9201 13.452 15.3981 13.974 15.3981 14.6647C15.3981 15.3555 15.9201 15.8775 16.6109 15.8775H17.3916C19.2906 15.8775 20.8454 17.4423 20.8454 19.3402C20.8422 20.1288 20.5709 20.8929 20.0762 21.507C19.5815 22.1211 18.8927 22.5487 18.1229 22.7197V22.9436C18.1229 23.2423 18.0042 23.5287 17.793 23.7399C17.5818 23.9511 17.2954 24.0697 16.9967 24.0697C16.6981 24.0697 16.4116 23.9511 16.2004 23.7399C15.9893 23.5287 15.8706 23.2423 15.8706 22.9436V22.7681C15.3248 22.6923 14.8047 22.4881 14.3531 22.1723C13.9015 21.8564 13.5314 21.438 13.273 20.9512C13.1993 20.8199 13.1528 20.6752 13.136 20.5256C13.1192 20.376 13.1327 20.2246 13.1754 20.0803C13.2182 19.9359 13.2895 19.8017 13.385 19.6854C13.4806 19.569 13.5985 19.4731 13.7318 19.4031C13.8651 19.3332 14.011 19.2907 14.1611 19.2781C14.3111 19.2655 14.4621 19.2831 14.6051 19.3299C14.7482 19.3767 14.8804 19.4517 14.994 19.5505C15.1076 19.6492 15.2003 19.7698 15.2665 19.905C15.4679 20.2886 15.865 20.5507 16.3454 20.5507H17.3916C18.0835 20.5507 18.5954 20.031 18.5954 19.3402C18.5954 18.6495 18.0835 18.1275 17.3916 18.1275H16.6109C15.6939 18.1227 14.8159 17.7564 14.1675 17.108C13.5192 16.4597 13.1528 15.5816 13.1481 14.6647C13.1481 13.0211 14.3226 11.6317 15.8706 11.2875V11.0591C15.87 10.9104 15.8989 10.7631 15.9556 10.6256C16.0123 10.4882 16.0957 10.3633 16.2009 10.2583C16.3061 10.1532 16.4312 10.0701 16.5687 10.0137C16.7063 9.95728 16.8537 9.9287 17.0024 9.92959Z" fill="#F96515"/>
</g>
</svg>
