<svg width="20" height="20" viewBox="0 0 20 20" fill="none" xmlns="http://www.w3.org/2000/svg">
<path d="M2.50004 15.0001C2.5 14.9462 2.5 14.8908 2.5 14.8335V5.16683C2.5 4.23341 2.5 3.76635 2.68166 3.40983C2.84144 3.09623 3.09623 2.84144 3.40983 2.68166C3.76635 2.5 4.23341 2.5 5.16683 2.5H14.8335C15.7669 2.5 16.2334 2.5 16.5899 2.68166C16.9035 2.84144 17.1587 3.09623 17.3185 3.40983C17.5 3.766 17.5 4.23249 17.5 5.16409V14.8359C17.5 15.2401 17.5 15.5566 17.4852 15.8145M2.50004 15.0001C2.50068 15.8237 2.51114 16.2548 2.68166 16.5895C2.84144 16.9031 3.09623 17.1587 3.40983 17.3185C3.766 17.5 4.23249 17.5 5.16409 17.5H14.8363C15.7679 17.5 16.2337 17.5 16.5899 17.3185C16.9035 17.1587 17.1587 16.9031 17.3185 16.5895C17.4213 16.3879 17.4658 16.1511 17.4852 15.8145M2.50004 15.0001L6.47331 10.3646L6.47449 10.3633C6.82689 9.95216 7.00338 9.74625 7.21273 9.67204C7.39662 9.60684 7.59739 9.60836 7.78035 9.67611C7.98886 9.7533 8.16255 9.96156 8.50993 10.3784L10.7359 13.0496C11.0575 13.4355 11.2192 13.6295 11.4155 13.7074C11.5887 13.7761 11.7797 13.7838 11.9584 13.7311C12.1618 13.6711 12.3409 13.492 12.699 13.134L13.1132 12.7197C13.4778 12.3551 13.6601 12.173 13.8664 12.1134C14.0476 12.0611 14.2414 12.0724 14.4157 12.1444C14.6142 12.2263 14.7752 12.427 15.0972 12.8296L17.4852 15.8145M17.4852 15.8145L17.5 15.833M12.5 7.5C12.0398 7.5 11.6667 7.1269 11.6667 6.66667C11.6667 6.20643 12.0398 5.83333 12.5 5.83333C12.9602 5.83333 13.3333 6.20643 13.3333 6.66667C13.3333 7.1269 12.9602 7.5 12.5 7.5Z" stroke="white" stroke-width="1.66667" stroke-linecap="round" stroke-linejoin="round"/>
</svg>
