<svg width="435" height="16" viewBox="0 0 435 16" fill="none" xmlns="http://www.w3.org/2000/svg">
<path d="M434.707 8.70714C435.098 8.31662 435.098 7.68346 434.707 7.29293L428.343 0.92897C427.953 0.538445 427.319 0.538445 426.929 0.92897C426.538 1.31949 426.538 1.95266 426.929 2.34318L432.586 8.00004L426.929 13.6569C426.538 14.0474 426.538 14.6806 426.929 15.0711C427.319 15.4616 427.953 15.4616 428.343 15.0711L434.707 8.70714ZM-8.74228e-08 9L2.00926 9L2.00926 7L8.74228e-08 7L-8.74228e-08 9ZM6.02778 9L10.0463 9L10.0463 7L6.02778 7L6.02778 9ZM14.0648 9L18.0833 9L18.0833 7L14.0648 7L14.0648 9ZM22.1019 9L26.1204 9L26.1204 7L22.1019 7L22.1019 9ZM30.1389 9L34.1574 9L34.1574 7L30.1389 7L30.1389 9ZM38.1759 9L42.1944 9L42.1944 7L38.1759 7L38.1759 9ZM46.213 9L50.2315 9L50.2315 7L46.213 7L46.213 9ZM54.25 9L58.2685 9.00001L58.2685 7.00001L54.25 7L54.25 9ZM62.287 9.00001L66.3055 9.00001L66.3055 7.00001L62.287 7.00001L62.287 9.00001ZM70.3241 9.00001L74.3426 9.00001L74.3426 7.00001L70.3241 7.00001L70.3241 9.00001ZM78.3611 9.00001L82.3796 9.00001L82.3796 7.00001L78.3611 7.00001L78.3611 9.00001ZM86.3981 9.00001L90.4166 9.00001L90.4166 7.00001L86.3981 7.00001L86.3981 9.00001ZM94.4352 9.00001L98.4537 9.00001L98.4537 7.00001L94.4352 7.00001L94.4352 9.00001ZM102.472 9.00001L106.491 9.00001L106.491 7.00001L102.472 7.00001L102.472 9.00001ZM110.509 9.00001L114.528 9.00001L114.528 7.00001L110.509 7.00001L110.509 9.00001ZM118.546 9.00001L122.565 9.00001L122.565 7.00001L118.546 7.00001L118.546 9.00001ZM126.583 9.00001L130.602 9.00001L130.602 7.00001L126.583 7.00001L126.583 9.00001ZM134.62 9.00001L138.639 9.00001L138.639 7.00001L134.62 7.00001L134.62 9.00001ZM142.657 9.00001L146.676 9.00001L146.676 7.00001L142.657 7.00001L142.657 9.00001ZM150.694 9.00001L154.713 9.00001L154.713 7.00001L150.694 7.00001L150.694 9.00001ZM158.731 9.00001L162.75 9.00001L162.75 7.00001L158.731 7.00001L158.731 9.00001ZM166.769 9.00001L170.787 9.00001L170.787 7.00001L166.769 7.00001L166.769 9.00001ZM174.806 9.00002L178.824 9.00002L178.824 7.00002L174.806 7.00002L174.806 9.00002ZM182.843 9.00002L186.861 9.00002L186.861 7.00002L182.843 7.00002L182.843 9.00002ZM190.88 9.00002L194.898 9.00002L194.898 7.00002L190.88 7.00002L190.88 9.00002ZM198.917 9.00002L202.935 9.00002L202.935 7.00002L198.917 7.00002L198.917 9.00002ZM206.954 9.00002L210.972 9.00002L210.972 7.00002L206.954 7.00002L206.954 9.00002ZM214.991 9.00002L219.009 9.00002L219.009 7.00002L214.991 7.00002L214.991 9.00002ZM223.028 9.00002L227.046 9.00002L227.046 7.00002L223.028 7.00002L223.028 9.00002ZM231.065 9.00002L235.083 9.00002L235.083 7.00002L231.065 7.00002L231.065 9.00002ZM239.102 9.00002L243.12 9.00002L243.12 7.00002L239.102 7.00002L239.102 9.00002ZM247.139 9.00002L251.158 9.00002L251.158 7.00002L247.139 7.00002L247.139 9.00002ZM255.176 9.00002L259.195 9.00002L259.195 7.00002L255.176 7.00002L255.176 9.00002ZM263.213 9.00002L267.232 9.00002L267.232 7.00002L263.213 7.00002L263.213 9.00002ZM271.25 9.00002L275.269 9.00002L275.269 7.00002L271.25 7.00002L271.25 9.00002ZM279.287 9.00002L283.306 9.00002L283.306 7.00002L279.287 7.00002L279.287 9.00002ZM287.324 9.00003L291.343 9.00003L291.343 7.00003L287.324 7.00003L287.324 9.00003ZM295.361 9.00003L299.38 9.00003L299.38 7.00003L295.361 7.00003L295.361 9.00003ZM303.398 9.00003L307.417 9.00003L307.417 7.00003L303.398 7.00003L303.398 9.00003ZM311.435 9.00003L315.454 9.00003L315.454 7.00003L311.435 7.00003L311.435 9.00003ZM319.472 9.00003L323.491 9.00003L323.491 7.00003L319.472 7.00003L319.472 9.00003ZM327.509 9.00003L331.528 9.00003L331.528 7.00003L327.509 7.00003L327.509 9.00003ZM335.547 9.00003L339.565 9.00003L339.565 7.00003L335.547 7.00003L335.547 9.00003ZM343.584 9.00003L347.602 9.00003L347.602 7.00003L343.584 7.00003L343.584 9.00003ZM351.621 9.00003L355.639 9.00003L355.639 7.00003L351.621 7.00003L351.621 9.00003ZM359.658 9.00003L363.676 9.00003L363.676 7.00003L359.658 7.00003L359.658 9.00003ZM367.695 9.00003L371.713 9.00003L371.713 7.00003L367.695 7.00003L367.695 9.00003ZM375.732 9.00003L379.75 9.00003L379.75 7.00003L375.732 7.00003L375.732 9.00003ZM383.769 9.00003L387.787 9.00003L387.787 7.00003L383.769 7.00003L383.769 9.00003ZM391.806 9.00003L395.824 9.00003L395.824 7.00003L391.806 7.00003L391.806 9.00003ZM399.843 9.00003L403.861 9.00004L403.861 7.00004L399.843 7.00003L399.843 9.00003ZM407.88 9.00004L411.898 9.00004L411.898 7.00004L407.88 7.00004L407.88 9.00004ZM415.917 9.00004L419.936 9.00004L419.936 7.00004L415.917 7.00004L415.917 9.00004ZM423.954 9.00004L427.973 9.00004L427.973 7.00004L423.954 7.00004L423.954 9.00004ZM431.991 9.00004L434 9.00004L434 7.00004L431.991 7.00004L431.991 9.00004Z" fill="#6A6A6A"/>
</svg>
